SplineFontDB: 3.0
FontName: MuseJazzText
FullName: MuseJazz Text
FamilyName: MuseJazz Text
Weight: Normal
Copyright: Copyright \\251 2016 Werner Schweer. This font is licensed under the SIL Open Font License \\(http://scripts.sil.org/OFL\\).
Version: 003.100
ItalicAngle: 0
UnderlinePosition: -204
UnderlineWidth: 102
Ascent: 1638
Descent: 410
InvalidEm: 0
sfntRevision: 0x00030000
LayerCount: 2
Layer: 0 1 "Back" 1
Layer: 1 1 "Fore" 0
XUID: [1021 983 26586 7056]
BaseHoriz: 0
FSType: 8
OS2Version: 3
OS2_WeightWidthSlopeOnly: 0
OS2_UseTypoMetrics: 1
CreationTime: 1271071127
ModificationTime: 1476182926
PfmFamily: 65
TTFWeight: 400
TTFWidth: 5
LineGap: 0
VLineGap: 0
Panose: 3 0 0 0 0 0 0 0 0 0
OS2TypoAscent: 0
OS2TypoAOffset: 1
OS2TypoDescent: 0
OS2TypoDOffset: 1
OS2TypoLinegap: 0
OS2WinAscent: 0
OS2WinAOffset: 1
OS2WinDescent: 0
OS2WinDOffset: 1
HheadAscent: 0
HheadAOffset: 1
HheadDescent: 0
HheadDOffset: 1
OS2Vendor: 'PfEd'
Lookup: 258 0 0 "Kern Pairs" { "Kern Pairs-1" [300,30,0] } ['kern' ('DFLT' <'dflt' > 'latn' <'dflt' > ) ]
MarkAttachClasses: 1
DEI: 91125
ShortTable: cvt  2
  68
  1297
EndShort
ShortTable: maxp 16
  1
  0
  95
  298
  10
  0
  0
  2
  0
  1
  1
  0
  64
  46
  0
  0
EndShort

StartChar: parenleft
Encoding: 40 40 0
Width: 452
VWidth: 1597
Flags: W
LayerCount: 2
Fore
SplineSet
44 478 m 1,0,-1
 24 492 l 1,1,-1
 24 857 l 1,2,-1
 44 871 l 1,3,-1
 44 1073 l 1,4,5
 48 1073 48 1073 55 1078.5 c 128,-1,6
 62 1084 62 1084 62 1087 c 1,7,8
 76 1126 76 1126 85 1183 c 128,-1,9
 94 1240 94 1240 106 1279 c 1,10,-1
 112 1287 l 2,11,12
 120 1293 l 1,13,14
 127 1307 127 1307 139.5 1339 c 128,-1,15
 152 1371 152 1371 168 1403 c 128,-1,16
 184 1435 184 1435 199 1460 c 128,-1,17
 214 1485 214 1485 232 1485 c 0,18,19
 260 1485 260 1485 264 1467 c 128,-1,20
 268 1449 268 1449 268 1429 c 0,21,22
 268 1411 268 1411 268 1400.5 c 128,-1,23
 268 1390 268 1390 254 1375 c 1,24,25
 250 1368 250 1368 232 1352 c 128,-1,26
 214 1336 214 1336 214 1332 c 1,27,28
 210 1325 210 1325 205 1298.5 c 128,-1,29
 200 1272 200 1272 200 1265 c 0,30,31
 200 1262 200 1262 193 1258 c 128,-1,32
 186 1254 186 1254 186 1251 c 1,33,34
 183 1244 183 1244 179.5 1217 c 128,-1,35
 176 1190 176 1190 172 1184 c 1,36,37
 172 1168 172 1168 158 1169 c 1,38,-1
 158 531 l 1,39,40
 172 531 172 531 172 517 c 1,41,42
 176 510 176 510 180 476 c 128,-1,43
 184 442 184 442 186 434 c 0,44,45
 193 420 193 420 205.5 402.5 c 128,-1,46
 218 385 218 385 226 367 c 1,47,48
 230 360 230 360 235 333 c 128,-1,49
 240 306 240 306 240 300 c 1,50,-1
 246 292 l 1,51,-1
 254 286 l 1,52,53
 257 279 257 279 264.5 261.5 c 128,-1,54
 272 244 272 244 281 224.5 c 128,-1,55
 290 205 290 205 297 187 c 128,-1,56
 304 169 304 169 308 164 c 0,57,58
 319 150 319 150 334.5 141.5 c 128,-1,59
 350 133 350 133 371 105.5 c 128,-1,60
 392 78 392 78 404 66 c 128,-1,61
 416 54 416 54 416 34 c 0,62,63
 416 27 416 27 414 19.5 c 128,-1,64
 412 12 412 12 412 8 c 1,65,-1
 398 -2 l 1,66,67
 391 -23 391 -23 387.5 -55.5 c 128,-1,68
 384 -88 384 -88 374 -120 c 128,-1,69
 364 -152 364 -152 344 -173 c 128,-1,70
 324 -194 324 -194 288 -194 c 2,71,-1
 278 -194 l 2,72,73
 274 -194 274 -194 271 -182 c 128,-1,74
 268 -170 268 -170 264 -166 c 2,75,-1
 196 -98 l 2,76,77
 193 -95 193 -95 189.5 -79.5 c 128,-1,78
 186 -64 186 -64 182 -58 c 1,79,80
 168 -30 168 -30 147 3 c 128,-1,81
 126 36 126 36 116 64 c 1,82,83
 112 68 112 68 103 107.5 c 128,-1,84
 94 147 94 147 90 150 c 1,85,86
 90 154 90 154 83 157.5 c 128,-1,87
 76 161 76 161 76 164 c 0,88,89
 76 168 76 168 75 182.5 c 128,-1,90
 74 197 74 197 72 212.5 c 128,-1,91
 70 228 70 228 66 243 c 128,-1,92
 62 258 62 258 62 261 c 0,93,94
 62 265 62 265 55 270 c 128,-1,95
 48 275 48 275 44 272 c 1,96,-1
 44 478 l 1,0,-1
EndSplineSet
Validated: 1
EndChar

StartChar: parenright
Encoding: 41 41 1
Width: 535
VWidth: 1597
Flags: W
LayerCount: 2
Fore
SplineSet
323 392 m 1,0,-1
 344 402 l 1,1,-1
 344 828 l 1,2,3
 341 828 341 828 330 839 c 1,4,5
 316 899 316 899 312.5 931 c 128,-1,6
 309 963 309 963 291 1017 c 1,7,-1
 284 1024 l 1,8,-1
 277 1031 l 2,9,10
 274 1035 274 1035 270 1052 c 0,11,12
 266 1070 266 1070 263 1073 c 1,13,14
 246 1088 246 1088 232 1122 c 0,15,16
 214 1164 214 1164 191 1196 c 0,17,18
 188 1200 188 1200 184 1215.5 c 128,-1,19
 180 1231 180 1231 177 1235 c 1,20,21
 166 1256 166 1256 150.5 1277.5 c 128,-1,22
 135 1299 135 1299 135 1323 c 0,23,24
 135 1330 135 1330 135 1337.5 c 128,-1,25
 135 1345 135 1345 138 1345 c 1,26,27
 138 1349 138 1349 143.5 1352 c 128,-1,28
 149 1355 149 1355 149 1359 c 1,29,30
 153 1363 153 1363 158 1378.5 c 128,-1,31
 163 1394 163 1394 163 1398 c 1,32,33
 166 1405 166 1405 187.5 1422.5 c 128,-1,34
 209 1440 209 1440 232 1456 c 128,-1,35
 255 1472 255 1472 278 1484.5 c 128,-1,36
 301 1497 301 1497 308 1497 c 1,37,-1
 316 1494 l 1,38,39
 316 1491 316 1491 321 1474.5 c 128,-1,40
 326 1458 326 1458 326 1455 c 1,41,42
 340 1430 340 1430 363 1410.5 c 128,-1,43
 386 1391 386 1391 397 1373 c 1,44,45
 397 1369 397 1369 400.5 1355 c 128,-1,46
 404 1341 404 1341 409.5 1325 c 128,-1,47
 415 1309 415 1309 418.5 1295 c 128,-1,48
 422 1281 422 1281 422 1277 c 1,49,50
 429 1259 429 1259 443 1243.5 c 128,-1,51
 457 1228 457 1228 465 1210 c 1,52,53
 465 1184 465 1184 470 1174 c 0,54,55
 484 1145 484 1145 484 1114 c 0,56,57
 484 1106 484 1106 483 1098 c 1,58,-1
 493 1087 l 1,59,60
 497 1080 497 1080 502.5 1044.5 c 128,-1,61
 508 1009 508 1009 508 1002 c 1,62,63
 511 1002 511 1002 514.5 997 c 128,-1,64
 518 992 518 992 522 992 c 1,65,-1
 522 527 l 1,66,-1
 500 512 l 1,67,-1
 500 402 l 1,68,69
 496 406 496 406 489.5 400.5 c 128,-1,70
 483 395 483 395 483 392 c 0,71,72
 483 388 483 388 479.5 374 c 128,-1,73
 476 360 476 360 474 344 c 128,-1,74
 472 328 472 328 470.5 313.5 c 128,-1,75
 469 299 469 299 469 296 c 1,76,77
 465 285 465 285 449 262 c 128,-1,78
 433 239 433 239 426 225 c 0,79,80
 422 218 422 218 413.5 179 c 128,-1,81
 405 140 405 140 401 132 c 0,82,83
 390 108 390 108 367 88 c 128,-1,84
 344 68 344 68 330 51 c 1,85,86
 330 47 330 47 325 29.5 c 128,-1,87
 320 12 320 12 320 8 c 1,88,89
 317 5 317 5 299 -11 c 128,-1,90
 281 -27 281 -27 277 -35 c 1,91,92
 273 -38 273 -38 269.5 -54 c 128,-1,93
 266 -70 266 -70 263 -74 c 1,94,95
 259 -77 259 -77 243 -93 c 128,-1,96
 227 -109 227 -109 224 -116 c 1,97,98
 220 -120 220 -120 214.5 -136 c 128,-1,99
 209 -152 209 -152 209 -155 c 1,100,101
 199 -173 199 -173 152.5 -196 c 128,-1,102
 106 -219 106 -219 86 -237 c 1,103,-1
 78 -244 l 1,104,-1
 71 -251 l 1,105,106
 64 -251 64 -251 43 -254.5 c 128,-1,107
 22 -258 22 -258 14 -258 c 1,108,109
 14 -251 14 -251 16 -238.5 c 128,-1,110
 18 -226 18 -226 18 -223 c 1,111,-1
 25 -216 l 2,112,-1
 32 -209 l 1,113,114
 50 -180 50 -180 56 -162 c 0,115,116
 63 -139 63 -139 86 -116 c 0,117,118
 93 -109 93 -109 121 -80.5 c 128,-1,119
 149 -52 149 -52 153 -45 c 1,120,121
 157 -42 157 -42 162 -26 c 128,-1,122
 167 -10 167 -10 167 -6 c 1,123,124
 170 1 170 1 188 15 c 128,-1,125
 206 29 206 29 209 37 c 1,126,127
 209 40 209 40 214.5 56 c 128,-1,128
 220 72 220 72 224 76 c 1,129,130
 231 90 231 90 243.5 102.5 c 128,-1,131
 256 115 256 115 263 132 c 1,132,133
 266 136 266 136 269.5 152 c 128,-1,134
 273 168 273 168 277 171 c 1,135,136
 277 175 277 175 284 178.5 c 128,-1,137
 291 182 291 182 291 186 c 0,138,139
 291 193 291 193 296.5 219.5 c 128,-1,140
 302 246 302 246 305 253 c 1,141,142
 305 257 305 257 312.5 262 c 128,-1,143
 320 267 320 267 323 267 c 1,144,-1
 323 392 l 1,0,-1
EndSplineSet
Validated: 1
EndChar

StartChar: slash
Encoding: 47 47 2
Width: 923
VWidth: 1597
Flags: W
LayerCount: 2
Fore
SplineSet
-47 -310 m 1,0,-1
 646 1399 l 1,1,2
 704 1577 704 1577 776 1608 c 0,3,4
 791 1614 791 1614 804 1614 c 0,5,6
 836 1614 836 1614 863 1580 c 0,7,8
 899 1531 899 1531 899 1446 c 0,9,10
 899 1444 899 1444 899 1441 c 1,11,12
 900 1441 900 1441 900 1440 c 0,13,-1
 900 1439 l 0,14,-1
 898 1437 l 0,15,16
 896 1435 896 1435 895.5 1433 c 128,-1,17
 895 1431 895 1431 893 1427.5 c 128,-1,18
 891 1424 891 1424 889.5 1419 c 128,-1,19
 888 1414 888 1414 886 1406.5 c 128,-1,20
 884 1399 884 1399 880.5 1389.5 c 128,-1,21
 877 1380 877 1380 874 1366 c 128,-1,22
 871 1352 871 1352 868 1336 c 1,23,24
 854 1303 854 1303 845 1250 c 128,-1,25
 836 1197 836 1197 832 1191 c 1,26,27
 771 1046 771 1046 726 952 c 0,28,29
 685 858 685 858 474 396 c 0,30,31
 232 -136 232 -136 168 -304 c 1,32,33
 145 -345 145 -345 108 -359.5 c 128,-1,34
 71 -374 71 -374 56 -379 c 0,35,36
 50 -381 50 -381 44 -381 c 0,37,38
 35 -380 35 -380 25 -376 c 0,39,40
 9 -369 9 -369 -0.5 -358.5 c 128,-1,41
 -10 -348 -10 -348 -24.5 -332 c 128,-1,42
 -39 -316 -39 -316 -47 -310 c 1,0,-1
EndSplineSet
Validated: 1
EndChar

StartChar: zero
Encoding: 48 48 3
Width: 1101
VWidth: 1597
Flags: W
LayerCount: 2
Fore
SplineSet
93 267 m 16,0,1
 59 340 59 340 40 495 c 0,2,3
 34 544 34 544 34 597 c 0,4,5
 34 752 34 752 63 873 c 8,6,7
 79 940 79 940 147 1068 c 24,8,9
 198 1164 198 1164 264 1252 c 24,10,11
 313 1317 313 1317 359 1350 c 1,12,13
 363 1361 363 1361 424 1396 c 0,14,15
 480 1428 480 1428 505 1432 c 1,16,17
 515 1455 515 1455 569 1467 c 0,18,19
 601 1474 601 1474 652 1476 c 0,20,21
 688 1477 688 1477 696 1472 c 0,22,23
 709 1464 709 1464 744 1460 c 0,24,25
 811 1453 811 1453 816 1432 c 1,26,-1
 876 1404 l 0,27,28
 919 1376 919 1376 934 1357 c 0,29,30
 963 1322 963 1322 969 1290 c 0,31,32
 972 1272 972 1272 1007 1221 c 1,33,34
 1017 1180 1017 1180 1033 1140 c 0,35,36
 1046 1108 1046 1108 1050 1041 c 2,37,-1
 1056 948 l 2,38,39
 1061 870 1061 870 1061 798 c 0,40,41
 1061 728 1061 728 1056 666 c 0,42,-1
 1019 492 l 0,43,44
 973 356 973 356 939 309 c 0,45,46
 850 190 850 190 850 186 c 24,47,48
 810 140 810 140 739 81 c 24,49,50
 664 18 664 18 638 9 c 16,51,52
 596 -6 596 -6 498 -6 c 0,53,54
 414 -6 414 -6 383 6 c 8,55,56
 286 44 286 44 221 102 c 24,57,58
 132 182 132 182 93 267 c 16,0,1
345 978 m 16,59,60
 266 815 266 815 261 681 c 0,61,62
 260 656 260 656 260 633 c 0,63,64
 260 510 260 510 297 423 c 0,65,66
 374 246 374 246 510 246 c 0,67,68
 511 246 511 246 512 246 c 0,69,70
 568 246 568 246 687 372 c 0,71,72
 739 427 739 427 814 570 c 0,73,74
 856 651 856 651 856 821 c 0,75,76
 856 875 856 875 855 885 c 0,77,78
 841 1030 841 1030 816 1080 c 0,79,80
 784 1124 784 1124 764 1172 c 0,81,82
 738 1235 738 1235 682 1235 c 0,83,84
 655 1235 655 1235 620 1220 c 0,85,86
 528 1180 528 1180 483 1140 c 8,87,88
 379 1049 379 1049 345 978 c 16,59,60
EndSplineSet
Validated: 1
EndChar

StartChar: one
Encoding: 49 49 4
Width: 543
VWidth: 1597
Flags: W
LayerCount: 2
Fore
SplineSet
258 963 m 1,0,1
 147 886 147 886 80 886 c 0,2,3
 78 886 78 886 76 886 c 0,4,5
 14 889 14 889 14 931 c 0,6,7
 14 970 14 970 67 1044 c 0,8,9
 202 1230 202 1230 211 1244 c 0,10,11
 255 1322 255 1322 301 1396 c 0,12,13
 309 1408 309 1408 313 1431 c 0,14,15
 318 1458 318 1458 330 1473 c 128,-1,16
 342 1488 342 1488 348 1509 c 128,-1,17
 354 1530 354 1530 376 1539 c 0,18,19
 394 1546 394 1546 413 1546 c 0,20,21
 417 1546 417 1546 421 1546 c 0,22,23
 449 1544 449 1544 465.5 1524 c 128,-1,24
 482 1504 482 1504 487.5 1471 c 128,-1,25
 493 1438 493 1438 493 1400 c 128,-1,26
 493 1362 493 1362 486.5 1318.5 c 128,-1,27
 480 1275 480 1275 473 1238 c 128,-1,28
 466 1201 466 1201 460 1166 c 0,29,30
 452 1118 452 1118 452 1116 c 0,31,32
 450 1106 450 1106 451 1086 c 0,33,34
 451 1031 451 1031 465 906 c 0,35,36
 480 774 480 774 486 696 c 0,37,38
 488 676 488 676 496 485 c 0,39,40
 501 376 501 376 502 307 c 0,41,42
 502 285 502 285 501 267 c 1,43,44
 501 251 501 251 459 84 c 0,45,46
 438 -2 438 -2 386 -2 c 0,47,48
 365 -2 365 -2 339 13 c 0,49,50
 324 22 324 22 294 66 c 0,51,52
 270 101 270 101 265 143 c 0,53,54
 265 145 265 145 257 277 c 0,55,56
 251 382 251 382 251 414 c 0,57,58
 251 435 251 435 260 532 c 0,59,60
 260 533 260 533 260 552 c 0,61,62
 260 625 260 625 258 963 c 1,0,1
EndSplineSet
Validated: 1
EndChar

StartChar: two
Encoding: 50 50 5
Width: 961
VWidth: 1597
Flags: W
LayerCount: 2
Fore
SplineSet
112 1397 m 1,0,1
 200 1453 200 1453 280 1487 c 128,-1,2
 360 1521 360 1521 453 1521 c 0,3,4
 509 1521 509 1521 577 1509 c 0,5,6
 627 1500 627 1500 705 1449 c 0,7,8
 785 1397 785 1397 811 1346 c 0,9,10
 873 1227 873 1227 873 1171 c 0,11,12
 873 979 873 979 795 840 c 0,13,14
 704 678 704 678 633 555 c 1,15,16
 594 503 594 503 522 417 c 0,17,18
 504 386 504 386 414 321 c 1,19,20
 354 282 354 282 348 264 c 1,21,22
 435 264 435 264 462 267 c 0,23,24
 474 268 474 268 624 288 c 0,25,26
 685 296 685 296 819 324 c 1,27,28
 928 324 928 324 928 194 c 0,29,30
 928 50 928 50 866 22 c 128,-1,31
 804 -6 804 -6 704 -6 c 0,32,33
 655 -6 655 -6 609 -2 c 0,34,35
 551 2 551 2 531 6 c 0,36,37
 500 13 500 13 472 13 c 0,38,39
 446 13 446 13 419 13 c 2,40,-1
 370 13 l 2,41,42
 190 14 190 14 122 54 c 0,43,44
 54 95 54 95 53 174 c 0,45,46
 53 200 53 200 95 270 c 0,47,48
 151 364 151 364 156 366 c 0,49,50
 172 373 172 373 276 495 c 0,51,52
 325 553 325 553 371 604 c 1,53,-1
 422 673 l 1,54,-1
 458 721 l 1,55,-1
 506 790 l 1,56,57
 580 907 580 907 585 924 c 0,58,59
 601 999 601 999 601 1052 c 0,60,61
 601 1078 601 1078 597 1098 c 0,62,63
 587 1154 587 1154 564 1197 c 0,64,65
 529 1262 529 1262 466 1262 c 0,66,67
 392 1262 392 1262 314.5 1218 c 128,-1,68
 237 1174 237 1174 169 1125 c 1,69,70
 138 1126 138 1126 94 1194 c 0,71,72
 46 1269 46 1269 46 1280 c 0,73,74
 46 1349 46 1349 119 1397 c 1,75,-1
 112 1397 l 1,0,1
EndSplineSet
Validated: 1
EndChar

StartChar: three
Encoding: 51 51 6
Width: 792
VWidth: 1597
Flags: W
LayerCount: 2
Fore
SplineSet
380 1099 m 1,0,1
 339 1103 339 1103 309.5 1105.5 c 128,-1,2
 280 1108 280 1108 238 1116.5 c 128,-1,3
 196 1125 196 1125 168.5 1139 c 128,-1,4
 141 1153 141 1153 98 1182 c 128,-1,5
 55 1211 55 1211 44 1243.5 c 128,-1,6
 33 1276 33 1276 45 1292.5 c 128,-1,7
 57 1309 57 1309 78 1369 c 0,8,9
 89 1401 89 1401 95 1414 c 128,-1,10
 101 1427 101 1427 112.5 1448 c 128,-1,11
 124 1469 124 1469 138 1483 c 0,12,13
 160 1504 160 1504 191 1507 c 0,14,15
 199 1508 199 1508 206 1508 c 0,16,17
 229 1508 229 1508 252 1500 c 0,18,19
 283 1490 283 1490 313.5 1476 c 128,-1,20
 344 1462 344 1462 378 1447 c 0,21,22
 400 1437 400 1437 434 1430 c 0,23,24
 439 1429 439 1429 445 1429 c 0,25,26
 468 1429 468 1429 508 1441 c 0,27,28
 558 1456 558 1456 602 1470 c 0,29,30
 641 1483 641 1483 679 1483 c 0,31,32
 684 1483 684 1483 688 1483 c 0,33,34
 730 1481 730 1481 750 1453 c 1,35,36
 764 1443 764 1443 770 1412 c 0,37,38
 771 1405 771 1405 772 1368 c 0,39,40
 772 1367 772 1367 772 1366 c 0,41,42
 772 1332 772 1332 753 1302 c 128,-1,43
 734 1272 734 1272 710 1240 c 128,-1,44
 686 1208 686 1208 662 1174 c 0,45,46
 628 1126 628 1126 620 1105 c 0,47,48
 601 1057 601 1057 599 1046 c 0,49,50
 583 978 583 978 570 966 c 0,51,52
 521 912 521 912 521 894 c 0,53,54
 521 888 521 888 526 886 c 0,55,56
 583 868 583 868 628 844 c 0,57,58
 679 817 679 817 697 699 c 0,59,60
 712 602 712 602 712 584 c 0,61,62
 712 528 712 528 709 516 c 0,63,64
 679 383 679 383 649 276 c 0,65,66
 617 164 617 164 325 32 c 0,67,68
 305 23 305 23 261.5 5.5 c 128,-1,69
 218 -12 218 -12 193 -12 c 0,70,71
 192 -12 192 -12 191 -12 c 0,72,73
 168 -12 168 -12 143 5 c 0,74,75
 117 23 117 23 110 16.5 c 128,-1,76
 103 10 103 10 107 50 c 0,77,78
 113 104 113 104 129.5 145.5 c 128,-1,79
 146 187 146 187 164 211.5 c 128,-1,80
 182 236 182 236 209 257 c 128,-1,81
 236 278 236 278 259.5 289 c 128,-1,82
 283 300 283 300 316 319 c 0,83,84
 325 324 325 324 373 355 c 0,85,86
 462 412 462 412 462 499 c 0,87,88
 462 531 462 531 450 566 c 0,89,90
 434 615 434 615 406 630 c 0,91,92
 399 634 399 634 340 659 c 0,93,94
 333 662 333 662 322 662 c 0,95,96
 300 662 300 662 265 648 c 0,97,98
 219 630 219 630 196 619 c 0,99,100
 105 577 105 577 91 574 c 0,101,102
 81 572 81 572 74 571 c 0,103,104
 28 571 28 571 28 647 c 0,105,106
 28 656 28 656 28 667 c 0,107,108
 34 754 34 754 97 776 c 0,109,110
 161 798 161 798 217 847 c 0,111,112
 246 872 246 872 269 906 c 0,113,114
 312 969 312 969 315 975 c 0,115,116
 371 1074 371 1074 380 1099 c 1,0,1
EndSplineSet
Validated: 1
EndChar

StartChar: four
Encoding: 52 52 7
Width: 936
VWidth: 1597
Flags: W
LayerCount: 2
Fore
SplineSet
318 690 m 1,0,1
 382 677 382 677 426 674 c 0,2,3
 443 673 443 673 457 672 c 0,4,5
 528 672 528 672 528 702 c 0,6,7
 528 703 l 1,8,-1
 526 749 l 1,9,10
 526 783 526 783 531 825 c 0,11,12
 537 876 537 876 537 924 c 0,13,14
 537 957 537 957 534 987 c 0,15,16
 525 1092 525 1092 507 1092 c 1,17,18
 493 1088 493 1088 390 894 c 0,19,20
 340 801 340 801 338 792 c 0,21,22
 326 742 326 742 318 690 c 1,0,1
668 494 m 1,23,24
 674 454 674 454 681 352 c 0,25,26
 682 328 682 328 683 306 c 0,27,28
 683 234 683 234 666 184 c 0,29,30
 645 118 645 118 614.5 64 c 128,-1,31
 584 10 584 10 549 -4 c 0,32,33
 540 -8 540 -8 531 -7 c 0,34,35
 505 -7 505 -7 476 23 c 0,36,37
 457 44 457 44 450.5 85 c 128,-1,38
 444 126 444 126 444 170.5 c 128,-1,39
 444 215 444 215 459 287 c 0,40,41
 467 328 467 328 467 357 c 0,42,43
 467 380 467 380 462 396 c 0,44,45
 450 434 450 434 426 448 c 0,46,47
 407 459 407 459 383 459 c 0,48,49
 373 459 373 459 362 457 c 0,50,51
 326 450 326 450 280 437 c 128,-1,52
 234 424 234 424 195 413 c 0,53,54
 172 406 172 406 150 406 c 0,55,56
 135 406 135 406 120 409 c 0,57,58
 84 417 84 417 67 450 c 1,59,60
 58 469 58 469 55 492 c 0,61,62
 54 501 54 501 54 512 c 0,63,64
 54 527 54 527 56 543 c 0,65,66
 60 571 60 571 66 593.5 c 128,-1,67
 72 616 72 616 84.5 647 c 128,-1,68
 97 678 97 678 104 695 c 0,69,70
 116 726 116 726 124 742 c 0,71,72
 140 774 140 774 141 776 c 0,73,74
 196 938 196 938 404 1302 c 0,75,76
 409 1311 409 1311 428 1347.5 c 128,-1,77
 447 1384 447 1384 455.5 1398 c 128,-1,78
 464 1412 464 1412 483 1440 c 128,-1,79
 502 1468 502 1468 516 1480.5 c 128,-1,80
 530 1493 530 1493 550.5 1502.5 c 128,-1,81
 571 1512 571 1512 591 1512 c 0,82,83
 626 1510 626 1510 648 1472.5 c 128,-1,84
 670 1435 670 1435 675 1377.5 c 128,-1,85
 680 1320 680 1320 682 1248 c 128,-1,86
 684 1176 684 1176 686 1122.5 c 128,-1,87
 688 1069 688 1069 701.5 1012.5 c 128,-1,88
 715 956 715 956 720 921 c 1,89,90
 720 919 720 919 720 918 c 0,91,92
 720 841 720 841 766 840 c 0,93,94
 778 840 778 840 808 827 c 0,95,96
 818 822 818 822 858 828 c 0,97,98
 879 832 879 832 904 808 c 0,99,100
 926 786 926 786 926 760 c 0,101,102
 926 746 926 746 919 730 c 0,103,104
 899 688 899 688 875.5 665 c 128,-1,105
 852 642 852 642 801.5 606.5 c 128,-1,106
 751 571 751 571 720.5 540.5 c 128,-1,107
 690 510 690 510 668 494 c 1,23,24
EndSplineSet
Validated: 1
EndChar

StartChar: five
Encoding: 53 53 8
Width: 753
VWidth: 1597
Flags: W
LayerCount: 2
Fore
SplineSet
304 920 m 1,0,1
 308 920 308 920 311 920 c 0,2,3
 345 920 345 920 393 948 c 0,4,5
 446 980 446 980 483 983 c 0,6,7
 523 992 523 992 543 992 c 0,8,9
 564 992 564 992 565 982 c 0,10,11
 565 979 565 979 562 974 c 0,12,13
 568 972 568 972 646 902 c 0,14,15
 691 862 691 862 712 784 c 0,16,17
 729 721 729 721 729 655 c 0,18,19
 729 639 729 639 728 623 c 0,20,21
 723 540 723 540 696 477 c 0,22,23
 660 391 660 391 587 293 c 128,-1,24
 514 195 514 195 422 119 c 128,-1,25
 330 43 330 43 237 21 c 0,26,27
 213 15 213 15 190 15 c 0,28,29
 125 15 125 15 70 62 c 1,30,31
 40 92 40 92 23 126 c 0,32,33
 12 148 12 148 13 171 c 0,34,35
 13 184 13 184 16 196 c 0,36,37
 25 231 25 231 27 248 c 128,-1,38
 29 265 29 265 52 292 c 0,39,40
 84 329 84 329 100 341 c 0,41,42
 111 350 111 350 138 348 c 128,-1,43
 165 346 165 346 197 340 c 128,-1,44
 229 334 229 334 265 328 c 0,45,46
 296 324 296 324 323 324 c 0,47,48
 327 324 327 324 332 324 c 0,49,50
 377 325 377 325 386 339 c 0,51,52
 394 356 394 356 414 384 c 0,53,54
 464 459 464 459 465 504 c 0,55,56
 465 510 465 510 464 515 c 0,57,58
 460 545 460 545 459 592 c 0,59,60
 459 614 459 614 460 641 c 0,61,62
 460 651 460 651 436 677 c 0,63,64
 424 690 424 690 405.5 696 c 128,-1,65
 387 702 387 702 372 702 c 128,-1,66
 357 702 357 702 336 696 c 128,-1,67
 315 690 315 690 300.5 684 c 128,-1,68
 286 678 286 678 264 664 c 0,69,70
 230 644 230 644 229 644 c 0,71,72
 200 622 200 622 197 622 c 0,73,74
 184 620 184 620 172 620 c 0,75,76
 111 620 111 620 87 667 c 0,77,78
 68 704 68 704 59 739 c 0,79,80
 43 803 43 803 43 853 c 0,81,82
 43 867 43 867 44 880 c 0,83,84
 46 898 46 898 46 930 c 0,85,86
 46 989 46 989 40 1096 c 0,87,88
 37 1144 37 1144 37 1188 c 0,89,90
 37 1288 37 1288 51 1373 c 0,91,92
 55 1395 55 1395 203 1429 c 0,93,94
 356 1464 356 1464 360 1464 c 0,95,96
 427 1468 427 1468 468 1484 c 0,97,98
 509 1499 509 1499 564 1520 c 0,99,100
 572 1523 572 1523 646 1525 c 0,101,102
 664 1526 664 1526 669 1526 c 0,103,104
 670 1526 670 1526 671 1526 c 0,105,106
 690 1525 690 1525 702 1516 c 1,107,108
 718 1500 718 1500 722.5 1478.5 c 128,-1,109
 727 1457 727 1457 723 1438 c 0,110,111
 719 1418 719 1418 706 1395 c 0,112,113
 686 1357 686 1357 684 1357 c 0,114,115
 647 1365 647 1365 630 1335 c 0,116,117
 610 1301 610 1301 568 1284 c 0,118,119
 496 1255 496 1255 492 1252 c 0,120,121
 458 1231 458 1231 412 1224 c 0,122,123
 280 1205 280 1205 280 1178 c 0,124,125
 280 1163 280 1163 296 1028 c 0,126,127
 304 961 304 961 304 929 c 0,128,129
 304 924 304 924 304 920 c 1,0,1
EndSplineSet
Validated: 1
EndChar

StartChar: six
Encoding: 54 54 9
Width: 902
VWidth: 1597
Flags: W
LayerCount: 2
Fore
SplineSet
320 488 m 0,0,1
 307 432 307 432 307 392 c 0,2,3
 307 338 307 338 344 300 c 0,4,5
 360 284 360 284 390 284 c 0,6,7
 427 284 427 284 484 308 c 0,8,-1
 588 388 l 1,9,10
 638 455 638 455 660 560 c 0,11,12
 667 594 667 594 667 620 c 0,13,14
 667 666 667 666 644 684 c 0,15,16
 584 730 584 730 552 730 c 0,17,18
 545 730 545 730 540 728 c 0,19,20
 432 687 432 687 400 644 c 0,21,22
 370 604 370 604 356 576 c 0,23,24
 327 517 327 517 320 488 c 0,0,1
275 717 m 1,25,26
 291 735 291 735 323 773.5 c 128,-1,27
 355 812 355 812 378.5 840 c 128,-1,28
 402 868 402 868 429 881 c 128,-1,29
 456 894 456 894 484 919 c 0,30,31
 515 946 515 946 538 952 c 0,32,33
 543 967 543 967 588 972 c 0,34,35
 594 973 594 973 600 973 c 0,36,37
 636 973 636 973 680 952 c 0,38,39
 738 928 738 928 739 922 c 0,40,41
 800 887 800 887 808 876 c 0,42,43
 840 854 840 854 845 822 c 0,44,45
 850 786 850 786 856 753 c 0,46,47
 864 709 864 709 866 694 c 0,48,49
 870 665 870 665 870 649 c 0,50,51
 870 638 870 638 868 632 c 0,52,53
 862 618 862 618 852 572 c 0,54,55
 837 506 837 506 836 504 c 0,56,57
 835 501 835 501 800 432 c 0,58,59
 723 279 723 279 707 258 c 0,60,61
 646 178 646 178 584 116 c 128,-1,62
 522 54 522 54 452 24 c 0,63,64
 399 1 399 1 348 1 c 0,65,66
 346 1 346 1 344 1 c 0,67,68
 330 1 330 1 316 2 c 0,69,70
 250 10 250 10 186 73 c 128,-1,71
 122 136 122 136 73 253 c 0,72,73
 28 363 28 363 28 459 c 0,74,75
 28 461 28 461 28 463 c 0,76,77
 28 474 28 474 28 484 c 0,78,79
 42 745 42 745 43 746 c 0,80,81
 42 750 42 750 41 757 c 0,82,83
 41 803 41 803 80 996 c 0,84,85
 98 1084 98 1084 208 1232 c 0,86,87
 268 1312 268 1312 350 1382 c 0,88,89
 353 1385 353 1385 405 1443 c 0,90,91
 422 1462 422 1462 476 1506 c 0,92,93
 519 1541 519 1541 557 1559 c 0,94,95
 586 1573 586 1573 617 1573 c 0,96,97
 619 1573 619 1573 621 1573 c 0,98,99
 628 1573 628 1573 634 1573 c 0,100,101
 673 1569 673 1569 701 1536 c 0,102,103
 721 1512 721 1512 724 1478 c 0,104,105
 725 1470 725 1470 725 1462 c 0,106,107
 725 1437 725 1437 718 1414 c 0,108,109
 710 1388 710 1388 687 1359 c 0,110,111
 650 1313 650 1313 648 1312 c 0,112,113
 637 1307 637 1307 604 1284 c 0,114,-1
 548 1244 l 0,115,116
 490 1218 490 1218 480 1206 c 0,117,118
 476 1201 476 1201 425 1163 c 0,119,120
 381 1131 381 1131 353 1085 c 0,121,122
 322 1034 322 1034 306.5 971 c 128,-1,123
 291 908 291 908 283 845 c 128,-1,124
 275 782 275 782 275 717 c 1,25,26
EndSplineSet
Validated: 1
EndChar

StartChar: seven
Encoding: 55 55 10
Width: 892
VWidth: 1597
Flags: W
LayerCount: 2
Fore
SplineSet
855 1465 m 1,0,-1
 864 1460 l 1,1,-1
 855 1465 l 1,0,-1
563 1111 m 1,2,3
 506 1097 506 1097 431 1095 c 0,4,5
 379 1093 379 1093 327 1091 c 0,6,7
 267 1089 267 1089 235 1089 c 128,-1,8
 203 1089 203 1089 199 1091 c 0,9,10
 184 1098 184 1098 95 1131 c 0,11,12
 25 1157 25 1157 25 1195 c 0,13,14
 25 1198 25 1198 26 1202 c 0,15,16
 31 1234 31 1234 35 1266 c 0,17,18
 40 1309 40 1309 55 1344 c 0,19,20
 57 1349 57 1349 61 1367 c 0,21,22
 62 1372 62 1372 67 1385 c 128,-1,23
 72 1398 72 1398 76 1404.5 c 128,-1,24
 80 1411 80 1411 87 1419.5 c 128,-1,25
 94 1428 94 1428 100 1435 c 0,26,27
 121 1456 121 1456 151.5 1457 c 128,-1,28
 182 1458 182 1458 208 1446 c 0,29,30
 234 1436 234 1436 268 1420 c 0,31,32
 309 1401 309 1401 320 1397 c 0,33,34
 374 1382 374 1382 440 1382 c 0,35,36
 570 1382 570 1382 687 1421 c 0,37,38
 699 1425 699 1425 728 1439 c 0,39,40
 756 1454 756 1454 777 1462 c 0,41,42
 793 1468 793 1468 808 1468 c 0,43,44
 815 1468 815 1468 821 1467 c 0,45,46
 846 1462 846 1462 859 1440 c 0,47,48
 874 1412 874 1412 874 1374 c 0,49,50
 874 1349 874 1349 875 1323 c 0,51,52
 875 1309 875 1309 875 1295 c 0,53,54
 875 1254 875 1254 860 1225 c 128,-1,55
 845 1196 845 1196 840 1151.5 c 128,-1,56
 835 1107 835 1107 805 1071 c 128,-1,57
 775 1035 775 1035 755 1000 c 0,58,59
 736 966 736 966 728 946 c 0,60,61
 686 843 686 843 659 773.5 c 128,-1,62
 632 704 632 704 616 635 c 0,63,64
 592 534 592 534 589 478 c 0,65,66
 583 365 583 365 583 353 c 2,67,-1
 584 320 l 2,68,69
 584 271 584 271 580 208 c 0,70,71
 576 148 576 148 555 101 c 0,72,73
 531 49 531 49 502 22 c 0,74,75
 475 -3 475 -3 426 -3 c 0,76,77
 416 -3 l 0,78,79
 359 0 359 0 342 36 c 0,80,81
 326 74 326 74 326 142 c 0,82,83
 326 352 326 352 384 564 c 0,84,85
 409 655 409 655 476 848 c 128,-1,86
 543 1041 543 1041 563 1111 c 1,2,3
EndSplineSet
Validated: 1
EndChar

StartChar: eight
Encoding: 56 56 11
Width: 741
VWidth: 1597
Flags: W
LayerCount: 2
Fore
SplineSet
57 941 m 0,0,1
 40 1003 40 1003 40 1035 c 0,2,3
 40 1043 40 1043 41 1049 c 0,4,5
 57 1136 57 1136 61 1153 c 0,6,7
 77 1218 77 1218 89 1237 c 0,8,9
 110 1269 110 1269 107 1283 c 1,10,-1
 129 1333 l 1,11,-1
 159 1363 l 1,12,-1
 184 1398 l 0,13,14
 187 1402 187 1402 223 1438 c 0,15,16
 238 1453 238 1453 258 1464 c 1,17,18
 260 1467 260 1467 303 1490 c 2,19,-1
 351 1516 l 1,20,21
 369 1521 369 1521 400 1521 c 128,-1,22
 431 1521 431 1521 448 1521 c 0,23,24
 470 1521 470 1521 508 1518.5 c 128,-1,25
 546 1516 546 1516 554 1509 c 1,26,27
 573 1509 573 1509 616 1465 c 0,28,29
 674 1406 674 1406 674 1386 c 0,30,31
 674 1383 674 1383 673 1381 c 1,32,33
 688 1332 688 1332 688 1291 c 2,34,-1
 688 1252 l 2,35,36
 688 1147 688 1147 657 1063 c 128,-1,37
 626 979 626 979 577 904 c 1,38,39
 600 880 600 880 624 840 c 128,-1,40
 648 800 648 800 671 768 c 1,41,42
 680 750 680 750 684 712 c 0,43,44
 688 679 688 679 688 650 c 2,45,-1
 701 581 l 2,46,47
 710 531 710 531 710 465 c 128,-1,48
 710 399 710 399 701 317 c 0,49,50
 691 232 691 232 594 120 c 1,51,52
 532 77 532 77 469 34 c 1,53,-1
 409 13 l 1,54,-1
 369 0 l 1,55,56
 348 0 348 0 327 0 c 1,57,-1
 297 0 l 1,58,59
 296 -2 296 -2 287 -2 c 128,-1,60
 278 -2 278 -2 261 0 c 0,61,62
 228 5 228 5 195 12 c 1,63,64
 194 18 194 18 175 18 c 0,65,-1
 174 18 l 0,66,67
 145 18 145 18 99 69 c 0,68,69
 54 118 54 118 48 130 c 0,70,71
 45 135 45 135 21 285 c 0,72,73
 21 288 21 288 21 294 c 0,74,75
 21 320 21 320 29 409 c 0,76,77
 38 505 38 505 52 547 c 1,78,79
 80 615 80 615 94 637 c 0,80,81
 139 708 139 708 178 739 c 1,82,-1
 256 796 l 1,83,84
 204 807 204 807 139 841 c 0,85,86
 75 875 75 875 57 941 c 0,0,1
227 1116 m 0,87,88
 228 1030 228 1030 276 982 c 0,89,90
 323 936 323 936 355 936 c 0,91,92
 370 936 370 936 382 946 c 0,93,94
 412 970 412 970 439 1003 c 0,95,96
 465 1032 465 1032 484 1090 c 0,97,98
 504 1149 504 1149 504 1195 c 0,99,100
 504 1223 504 1223 496 1246 c 0,101,102
 471 1318 471 1318 391 1318 c 0,103,104
 333 1318 333 1318 280 1251 c 128,-1,105
 227 1184 227 1184 227 1116 c 0,87,88
227 475 m 0,106,107
 214 424 214 424 214 384 c 0,108,109
 214 326 214 326 241 292 c 0,110,111
 283 238 283 238 361 238 c 0,112,113
 397 238 397 238 457 295 c 0,114,115
 509 345 509 345 517 439 c 0,116,117
 521 493 521 493 521 530.5 c 128,-1,118
 521 568 521 568 517 589 c 0,119,120
 494 700 494 700 427 700 c 0,121,122
 373 700 373 700 298 628 c 0,123,124
 254 576 254 576 227 475 c 0,106,107
EndSplineSet
Validated: 1
EndChar

StartChar: nine
Encoding: 57 57 12
Width: 845
VWidth: 1597
Flags: W
LayerCount: 2
Fore
SplineSet
328 1212 m 0,0,1
 278 1190 278 1190 242 1070 c 0,2,3
 234 1045 234 1045 235 1020 c 0,4,5
 235 975 235 975 261 932 c 0,6,7
 309 851 309 851 368 851 c 0,8,9
 382 851 382 851 396 856 c 0,10,11
 416 862 416 862 480 888 c 0,12,13
 552 918 552 918 582 998 c 0,14,15
 598 1043 598 1043 599 1088 c 0,16,17
 599 1124 599 1124 588 1160 c 1,18,19
 579 1221 579 1221 484 1256 c 0,20,21
 478 1258 478 1258 468 1258 c 0,22,23
 427 1258 427 1258 328 1212 c 0,0,1
472 673 m 1,24,25
 448 670 448 670 393 661 c 128,-1,26
 338 652 338 652 308 650 c 0,27,28
 301 649 301 649 293 649 c 0,29,30
 266 649 266 649 232 656 c 0,31,32
 188 665 188 665 152 689 c 1,33,34
 120 714 120 714 99 754 c 0,35,36
 88 775 88 775 70 810 c 0,37,38
 58 835 58 835 44 886 c 0,39,40
 43 891 43 891 42 1008 c 0,41,42
 42 1011 42 1011 42 1013 c 0,43,44
 42 1136 42 1136 96 1260 c 0,45,46
 147 1377 147 1377 276 1424 c 0,47,48
 404 1471 404 1471 486 1471 c 0,49,50
 516 1471 516 1471 540 1464 c 0,51,52
 620 1442 620 1442 684 1399 c 128,-1,53
 748 1356 748 1356 767.5 1309.5 c 128,-1,54
 787 1263 787 1263 798 1200 c 0,55,56
 801 1181 801 1181 801 1159 c 0,57,58
 801 1111 801 1111 785 1055 c 0,59,60
 761 973 761 973 732.5 891.5 c 128,-1,61
 704 810 704 810 676 741 c 128,-1,62
 648 672 648 672 624 598 c 0,63,64
 606 538 606 538 594 476 c 0,65,66
 588 442 588 442 586 384 c 0,67,68
 585 365 585 365 585 349 c 0,69,70
 586 319 586 319 588 307 c 0,71,72
 589 301 589 301 589 290 c 0,73,74
 590 268 590 268 584 228 c 0,75,76
 572 144 572 144 562 124 c 0,77,78
 536 74 536 74 516 48 c 0,79,80
 477 -3 477 -3 429 -3 c 0,81,82
 416 -4 416 -4 402 0 c 0,83,84
 360 11 360 11 359 158 c 0,85,86
 359 176 359 176 360 196 c 0,87,88
 367 470 367 470 472 673 c 1,24,25
EndSplineSet
Validated: 1
EndChar

StartChar: A
Encoding: 65 65 13
Width: 1278
VWidth: 1597
Flags: W
LayerCount: 2
Fore
SplineSet
671 452 m 12,0,1
 593 458 593 458 583 459 c 20,2,3
 547 460 547 460 525 460 c 132,-1,4
 503 460 503 460 496 459 c 12,5,-1
 385 424 l 4,6,7
 357 394 357 394 336.5 348.5 c 132,-1,8
 316 303 316 303 306 262.5 c 132,-1,9
 296 222 296 222 280 172.5 c 132,-1,10
 264 123 264 123 245 91 c 4,11,12
 228 63 228 63 186 38.5 c 132,-1,13
 144 14 144 14 100 8 c 4,14,15
 92 7 92 7 85 8 c 4,16,17
 50 8 50 8 24 30 c 5,18,19
 9 44 9 44 9 71 c 4,20,21
 8 100 8 100 20 134 c 4,22,23
 30 168 30 168 48 208.5 c 132,-1,24
 66 249 66 249 82.5 281.5 c 132,-1,25
 99 314 99 314 115 346 c 132,-1,26
 131 378 131 378 136 392 c 4,27,28
 161 465 161 465 306 792 c 4,29,30
 396 997 396 997 484 1221 c 4,31,32
 489 1235 489 1235 500 1266.5 c 132,-1,33
 511 1298 511 1298 517 1316 c 132,-1,34
 523 1334 523 1334 535.5 1363.5 c 132,-1,35
 548 1393 548 1393 558.5 1412 c 132,-1,36
 569 1431 569 1431 585 1454.5 c 132,-1,37
 601 1478 601 1478 617 1493.5 c 132,-1,38
 633 1509 633 1509 655 1524 c 132,-1,39
 677 1539 677 1539 701 1548 c 5,40,41
 728 1557 728 1557 750 1558 c 4,42,43
 754 1558 754 1558 757 1558 c 4,44,45
 776 1558 776 1558 790 1554 c 4,46,47
 808 1549 808 1549 823 1536 c 132,-1,48
 838 1523 838 1523 849 1509 c 132,-1,49
 860 1495 860 1495 870.5 1473.5 c 132,-1,50
 881 1452 881 1452 888 1433.5 c 132,-1,51
 895 1415 895 1415 902 1389.5 c 132,-1,52
 909 1364 909 1364 912.5 1346.5 c 132,-1,53
 916 1329 916 1329 921.5 1304.5 c 132,-1,54
 927 1280 927 1280 930 1268 c 4,55,56
 946 1211 946 1211 987 1040 c 4,57,58
 1012 940 1012 940 1053 783 c 4,59,60
 1075 697 1075 697 1112 563 c 4,61,62
 1163 380 1163 380 1186 320 c 4,63,64
 1191 307 1191 307 1199.5 280.5 c 132,-1,65
 1208 254 1208 254 1213 239 c 132,-1,66
 1218 224 1218 224 1225 199 c 132,-1,67
 1232 174 1232 174 1234 158.5 c 132,-1,68
 1236 143 1236 143 1238 121 c 4,69,70
 1238 115 1238 115 1238 110 c 4,71,72
 1238 95 1238 95 1235 84 c 4,73,74
 1231 69 1231 69 1223 51.5 c 132,-1,75
 1215 34 1215 34 1202 20.5 c 132,-1,76
 1189 7 1189 7 1168.5 -6 c 132,-1,77
 1148 -19 1148 -19 1122 -29 c 5,78,79
 1104 -35 1104 -35 1088 -35 c 4,80,81
 1070 -35 1070 -35 1056 -28 c 4,82,83
 1028 -15 1028 -15 1010.5 18 c 132,-1,84
 993 51 993 51 979.5 94.5 c 132,-1,85
 966 138 966 138 956.5 188.5 c 132,-1,86
 947 239 947 239 938 284 c 4,87,88
 928 329 928 329 916 367 c 4,89,90
 903 408 903 408 887 424 c 4,91,92
 881 430 881 430 874 435.5 c 132,-1,93
 867 441 867 441 858 443.5 c 132,-1,94
 849 446 849 446 843 448 c 132,-1,95
 837 450 837 450 825 451 c 132,-1,96
 813 452 813 452 808.5 452 c 132,-1,97
 804 452 804 452 790 452 c 132,-1,98
 776 452 776 452 774 452 c 4,99,100
 724 452 724 452 698 452 c 132,-1,101
 672 452 672 452 671 452 c 12,0,1
708 1173 m 5,102,-1
 583 948 l 4,103,-1
 497 692 l 5,104,-1
 665 708 l 4,105,-1
 821 692 l 5,106,107
 818 766 818 766 803.5 855.5 c 132,-1,108
 789 945 789 945 767.5 1033.5 c 132,-1,109
 746 1122 746 1122 708 1173 c 5,102,-1
EndSplineSet
Validated: 1
EndChar

StartChar: B
Encoding: 66 66 14
Width: 981
VWidth: 1597
Flags: W
LayerCount: 2
Fore
SplineSet
295 1379 m 1,0,1
 314 1278 314 1278 314 1080 c 0,2,3
 314 1068 314 1068 310.5 1047 c 128,-1,4
 307 1026 307 1026 304.5 1010 c 128,-1,5
 302 994 302 994 303.5 975.5 c 128,-1,6
 305 957 305 957 313 945 c 0,7,8
 324 928 324 928 350.5 925.5 c 128,-1,9
 377 923 377 923 407.5 930.5 c 128,-1,10
 438 938 438 938 471.5 951 c 128,-1,11
 505 964 505 964 529 976 c 128,-1,12
 553 988 553 988 568 998 c 0,13,14
 617 1028 617 1028 641 1064 c 0,15,16
 663 1097 663 1097 663 1128 c 0,17,18
 663 1131 663 1131 663 1133 c 0,19,20
 661 1166 661 1166 644 1199 c 128,-1,21
 627 1232 627 1232 596 1260.5 c 128,-1,22
 565 1289 565 1289 528 1312.5 c 128,-1,23
 491 1336 491 1336 451 1353 c 1,24,25
 427 1364 427 1364 411 1369 c 128,-1,26
 395 1374 395 1374 374.5 1379.5 c 128,-1,27
 354 1385 354 1385 335 1384.5 c 128,-1,28
 316 1384 316 1384 295 1379 c 1,0,1
334 748 m 0,29,30
 311 741 311 741 298 719 c 128,-1,31
 285 697 285 697 281.5 665 c 128,-1,32
 278 633 278 633 278 603.5 c 128,-1,33
 278 574 278 574 280.5 540 c 128,-1,34
 283 506 283 506 282 492 c 0,35,36
 282 482 282 482 278 410 c 0,37,38
 275 367 275 367 275 332 c 0,39,40
 275 309 275 309 276 289 c 0,41,42
 279 238 279 238 295 214 c 0,43,44
 310 190 310 190 344 184 c 0,45,46
 362 181 362 181 382 181 c 0,47,48
 400 181 400 181 420 184 c 0,49,50
 462 190 462 190 494 198 c 128,-1,51
 526 206 526 206 555 215 c 0,52,53
 673 255 673 255 696 366 c 0,54,55
 702 392 702 392 702 419 c 0,56,57
 702 493 702 493 659 573 c 0,58,59
 605 674 605 674 516 724 c 0,60,61
 457 757 457 757 397 757 c 0,62,63
 366 757 366 757 334 748 c 0,29,30
112 -12 m 1025,64,-1
672 911 m 1,65,66
 748 888 748 888 804 847.5 c 128,-1,67
 860 807 860 807 890.5 755.5 c 128,-1,68
 921 704 921 704 933 644 c 0,69,70
 940 609 940 609 940 572 c 0,71,72
 940 546 940 546 936 520 c 0,73,74
 928 457 928 457 901 394.5 c 128,-1,75
 874 332 874 332 830 275 c 0,76,77
 754 176 754 176 620 102 c 0,78,79
 486 30 486 30 331 2 c 0,80,81
 252 -12 252 -12 180 -12 c 0,82,83
 112 -12 112 -12 50 0 c 0,84,85
 30 4 30 4 25 13 c 128,-1,86
 20 22 20 22 18 38 c 0,87,88
 15 59 15 59 15 67 c 0,89,90
 15 81 15 81 18 132 c 0,91,92
 20 184 20 184 20 196 c 0,93,94
 20 200 20 200 20 205 c 0,95,96
 20 254 20 254 30 344 c 0,97,98
 35 391 35 391 35 432 c 0,99,100
 35 439 35 439 35 445 c 0,101,102
 35 480 35 480 32 509 c 1,103,104
 24 568 24 568 24 649 c 0,105,106
 24 658 24 658 24 668 c 0,107,108
 25 760 25 760 30.5 826.5 c 128,-1,109
 36 893 36 893 42 985.5 c 128,-1,110
 48 1078 48 1078 48 1145 c 0,111,112
 48 1165 48 1165 40.5 1219.5 c 128,-1,113
 33 1274 33 1274 33 1317.5 c 128,-1,114
 33 1361 33 1361 48 1387 c 0,115,116
 88 1452 88 1452 153.5 1496 c 128,-1,117
 219 1540 219 1540 294.5 1558 c 128,-1,118
 370 1576 370 1576 449.5 1576 c 128,-1,119
 529 1576 529 1576 604 1554.5 c 128,-1,120
 679 1533 679 1533 736 1495 c 0,121,122
 764 1477 764 1477 788 1457.5 c 128,-1,123
 812 1438 812 1438 835.5 1414 c 128,-1,124
 859 1390 859 1390 875.5 1364.5 c 128,-1,125
 892 1339 892 1339 904 1309 c 0,126,127
 916 1278 916 1278 917 1248 c 0,128,129
 917 1244 917 1244 917 1240 c 0,130,131
 917 1213 917 1213 912 1184 c 1,132,133
 905 1154 905 1154 889.5 1125.5 c 128,-1,134
 874 1097 874 1097 857 1076 c 128,-1,135
 840 1055 840 1055 814 1030 c 128,-1,136
 788 1005 788 1005 768 989 c 128,-1,137
 748 973 748 973 718 949 c 128,-1,138
 688 925 688 925 672 911 c 1,65,66
EndSplineSet
Validated: 1
EndChar

StartChar: C
Encoding: 67 67 15
Width: 1274
VWidth: 1597
Flags: W
LayerCount: 2
Fore
SplineSet
731 1600 m 0,0,1
 758 1604 758 1604 785 1604 c 0,2,3
 946 1604 946 1604 1137 1484 c 0,4,5
 1154 1473 1154 1473 1166.5 1464 c 128,-1,6
 1179 1455 1179 1455 1194 1443 c 128,-1,7
 1209 1431 1209 1431 1218 1418 c 0,8,9
 1228 1405 1228 1405 1234 1390 c 0,10,11
 1240 1376 1240 1376 1240 1360 c 0,12,13
 1240 1341 1240 1341 1232 1321 c 0,14,15
 1216 1275 1216 1275 1189 1248 c 128,-1,16
 1162 1221 1162 1221 1130 1214 c 0,17,18
 1108 1209 1108 1209 1083 1209 c 0,19,20
 1072 1209 1072 1209 1060 1210 c 0,21,22
 1022 1213 1022 1213 981 1227.5 c 128,-1,23
 940 1242 940 1242 896.5 1258.5 c 128,-1,24
 853 1275 853 1275 810 1294 c 0,25,26
 767 1314 767 1314 724 1326 c 0,27,28
 680 1338 680 1338 642 1344 c 0,29,30
 626 1347 626 1347 611 1347 c 0,31,32
 589 1347 589 1347 569 1342 c 1,33,34
 488 1325 488 1325 422.5 1279.5 c 128,-1,35
 357 1234 357 1234 316.5 1171.5 c 128,-1,36
 276 1109 276 1109 252 1033 c 0,37,38
 228 956 228 956 227 878 c 0,39,40
 227 870 227 870 227 862 c 0,41,42
 228 792 228 792 242 722 c 0,43,44
 258 644 258 644 293 576 c 1,45,46
 332 500 332 500 406 439 c 128,-1,47
 480 378 480 378 569 332 c 0,48,49
 664 283 664 283 761 283 c 0,50,51
 867 283 867 283 975 342 c 0,52,53
 983 347 983 347 1001 358.5 c 128,-1,54
 1019 370 1019 370 1033.5 378 c 128,-1,55
 1048 386 1048 386 1068 394.5 c 128,-1,56
 1088 403 1088 403 1103.5 405.5 c 128,-1,57
 1119 408 1119 408 1135 402 c 128,-1,58
 1151 396 1151 396 1162 381 c 0,59,60
 1184 349 1184 349 1185 313 c 0,61,62
 1185 281 1185 281 1169 254 c 0,63,64
 1153 226 1153 226 1122.5 198 c 128,-1,65
 1092 170 1092 170 1059.5 149 c 128,-1,66
 1027 128 1027 128 987.5 107.5 c 128,-1,67
 948 87 948 87 921 75 c 128,-1,68
 894 63 894 63 867 53 c 0,69,70
 770 16 770 16 670 15 c 0,71,72
 667 15 667 15 664 15 c 128,-1,73
 661 15 661 15 658 15 c 0,74,75
 564 15 564 15 481 44 c 0,76,77
 392 74 392 74 309.5 131.5 c 128,-1,78
 227 189 227 189 165 264 c 128,-1,79
 103 339 103 339 60.5 430 c 128,-1,80
 18 521 18 521 4 617 c 0,81,82
 -3 664 -3 664 -3 712 c 0,83,84
 -2 771 -2 771 8 833 c 0,85,86
 26 945 26 945 71 1048 c 128,-1,87
 116 1151 116 1151 186 1246.5 c 128,-1,88
 256 1342 256 1342 340 1414.5 c 128,-1,89
 424 1487 424 1487 525.5 1536.5 c 128,-1,90
 627 1586 627 1586 731 1600 c 0,0,1
EndSplineSet
Validated: 1
EndChar

StartChar: D
Encoding: 68 68 16
Width: 1032
VWidth: 1597
Flags: W
LayerCount: 2
Fore
SplineSet
261 281 m 1,0,1
 359 289 359 289 445 335 c 0,2,3
 531 380 531 380 593 450 c 0,4,5
 654 520 654 520 696 610 c 128,-1,6
 738 700 738 700 751 794 c 0,7,8
 756 833 756 833 756 874 c 0,9,10
 756 930 756 930 746 986 c 0,11,12
 728 1084 728 1084 678 1163 c 0,13,14
 662 1189 662 1189 626.5 1225 c 128,-1,15
 591 1261 591 1261 544 1299.5 c 128,-1,16
 497 1338 497 1338 446 1365 c 0,17,18
 394 1392 394 1392 348 1399 c 0,19,20
 338 1400 338 1400 329 1400 c 0,21,22
 294 1400 294 1400 268 1380 c 0,23,24
 248 1364 248 1364 242 1324 c 0,25,26
 239 1303 239 1303 239 1283 c 0,27,28
 239 1264 239 1264 241 1246 c 0,29,30
 246 1208 246 1208 253 1161.5 c 128,-1,31
 260 1115 260 1115 261 1099 c 0,32,33
 268 977 268 977 268 841 c 128,-1,34
 268 705 268 705 264.5 538.5 c 128,-1,35
 261 372 261 372 261 281 c 1,0,1
388 1604 m 0,36,37
 420 1608 420 1608 451 1608 c 0,38,39
 510 1608 510 1608 566 1594 c 0,40,41
 652 1572 652 1572 718.5 1522 c 128,-1,42
 785 1472 785 1472 839.5 1402.5 c 128,-1,43
 894 1333 894 1333 927.5 1252.5 c 128,-1,44
 961 1172 961 1172 977 1086 c 0,45,46
 989 1024 989 1024 989 965 c 0,47,48
 989 943 989 943 987 920 c 0,49,50
 980 818 980 818 941 709.5 c 128,-1,51
 902 601 902 601 839.5 503.5 c 128,-1,52
 777 406 777 406 691.5 318 c 128,-1,53
 606 230 606 230 511.5 165.5 c 128,-1,54
 417 101 417 101 308.5 61 c 128,-1,55
 200 21 200 21 94 18 c 0,56,57
 92 18 92 18 89 18 c 0,58,59
 71 18 71 18 58 24 c 0,60,61
 43 32 43 32 35 43 c 128,-1,62
 27 54 27 54 23 72 c 128,-1,63
 19 90 19 90 18 104.5 c 128,-1,64
 17 119 17 119 17 140 c 0,65,66
 17 145 17 145 17 151 c 0,67,68
 17 208 17 208 26 330 c 0,69,70
 33 432 33 432 34 498 c 0,71,72
 34 519 34 519 33 537 c 0,73,74
 17 876 17 876 17 1226 c 0,75,76
 17 1249 17 1249 14.5 1285.5 c 128,-1,77
 12 1322 12 1322 11 1346 c 0,78,79
 11 1352 11 1352 11 1358 c 0,80,81
 11 1378 11 1378 13 1400 c 0,82,83
 16 1430 16 1430 28 1456 c 128,-1,84
 40 1482 40 1482 62 1506 c 0,85,86
 79 1526 79 1526 104.5 1540.5 c 128,-1,87
 130 1555 130 1555 154 1564 c 128,-1,88
 178 1573 178 1573 214 1580.5 c 128,-1,89
 250 1588 250 1588 272.5 1591 c 128,-1,90
 295 1594 295 1594 334 1598 c 128,-1,91
 373 1602 373 1602 388 1604 c 0,36,37
EndSplineSet
Validated: 1
EndChar

StartChar: E
Encoding: 69 69 17
Width: 1191
VWidth: 1597
Flags: W
LayerCount: 2
Fore
SplineSet
590 16 m 1025,0,-1
249 966 m 1,1,2
 317 958 317 958 448.5 956.5 c 128,-1,3
 580 955 580 955 602 954 c 0,4,5
 612 953 612 953 628 953 c 0,6,7
 656 954 656 954 700 956 c 0,8,9
 770 960 770 960 828 961 c 0,10,11
 840 961 840 961 853 961 c 0,12,13
 860 961 860 961 866 961 c 0,14,15
 906 961 906 961 948 956 c 0,16,17
 1010 948 1010 948 1037 930 c 0,18,19
 1068 910 1068 910 1078 856 c 0,20,21
 1082 833 1082 833 1082 809 c 0,22,23
 1082 778 1082 778 1074 748 c 0,24,25
 1060 695 1060 695 1026 681 c 0,26,27
 1006 673 1006 673 980 671.5 c 128,-1,28
 954 670 954 670 932 672.5 c 128,-1,29
 910 675 910 675 879.5 679.5 c 128,-1,30
 849 684 849 684 834 685 c 0,31,32
 637 698 637 698 456 698 c 0,33,34
 447 698 447 698 410.5 700.5 c 128,-1,35
 374 703 374 703 351 703 c 128,-1,36
 328 703 328 703 300.5 695 c 128,-1,37
 273 687 273 687 261 670 c 0,38,39
 245 649 245 649 242 611 c 0,40,41
 241 597 241 597 241 580 c 0,42,43
 241 554 241 554 244 520 c 0,44,45
 249 466 249 466 249 454 c 0,46,47
 249 440 249 440 245 407 c 128,-1,48
 241 374 241 374 240.5 355 c 128,-1,49
 240 336 240 336 246 308 c 1,50,51
 252 291 252 291 270 281 c 128,-1,52
 288 271 288 271 315 268.5 c 128,-1,53
 342 266 342 266 365 266.5 c 128,-1,54
 388 267 388 267 417 269 c 128,-1,55
 446 271 446 271 456 271 c 2,56,-1
 907 271 l 2,57,58
 923 271 923 271 950 274.5 c 128,-1,59
 977 278 977 278 999.5 280 c 128,-1,60
 1022 282 1022 282 1047 281.5 c 128,-1,61
 1072 281 1072 281 1088 274 c 0,62,63
 1108 266 1108 266 1120 244 c 128,-1,64
 1132 222 1132 222 1136 197 c 0,65,66
 1139 177 1139 177 1139 157 c 0,67,68
 1139 152 1139 152 1139 146 c 0,69,70
 1138 120 1138 120 1133 101 c 0,71,72
 1127 78 1127 78 1115.5 61 c 128,-1,73
 1104 44 1104 44 1089.5 34.5 c 128,-1,74
 1075 25 1075 25 1060.5 20 c 128,-1,75
 1046 15 1046 15 1024.5 13.5 c 128,-1,76
 1003 12 1003 12 987.5 12.5 c 128,-1,77
 972 13 972 13 947 14.5 c 128,-1,78
 922 16 922 16 907 16 c 0,79,80
 484 16 484 16 273 16 c 0,81,82
 258 16 258 16 224.5 11.5 c 128,-1,83
 191 7 191 7 162 5 c 0,84,85
 148 4 148 4 132 4 c 0,86,87
 118 4 118 4 102 5 c 0,88,89
 70 7 70 7 47 19 c 128,-1,90
 24 31 24 31 14 55 c 0,91,92
 0 85 0 85 0 132 c 0,93,94
 0 135 0 135 0 138 c 0,95,96
 0 182 0 182 7 221 c 0,97,98
 14 264 14 264 21 314 c 0,99,100
 27 358 27 358 27 385 c 0,101,102
 27 389 27 389 27 393 c 0,103,104
 26 431 26 431 26 477 c 0,105,106
 26 606 26 606 32 804 c 0,107,108
 40 1043 40 1043 40 1160 c 0,109,110
 40 1174 40 1174 40 1186 c 0,111,112
 40 1206 40 1206 36 1272 c 0,113,114
 32 1336 32 1336 32 1380 c 0,115,116
 32 1385 32 1385 32 1390 c 0,117,118
 32 1430 32 1430 40 1477 c 0,119,120
 48 1530 48 1530 68 1560 c 0,121,122
 77 1574 77 1574 92.5 1583 c 128,-1,123
 108 1592 108 1592 130 1596 c 0,124,125
 150 1600 150 1600 168 1601 c 0,126,127
 176 1602 176 1602 186 1602 c 0,128,129
 198 1602 198 1602 213 1600 c 0,130,131
 240 1598 240 1598 250.5 1597.5 c 128,-1,132
 261 1597 261 1597 285 1594 c 0,133,134
 368 1584 368 1584 462 1582 c 0,135,136
 488 1582 488 1582 516 1581 c 0,137,138
 590 1581 590 1581 680 1584 c 0,139,140
 802 1588 802 1588 858 1588 c 0,141,142
 869 1588 869 1588 907.5 1590 c 128,-1,143
 946 1592 946 1592 971 1591.5 c 128,-1,144
 996 1591 996 1591 1025.5 1583.5 c 128,-1,145
 1055 1576 1055 1576 1069 1560 c 0,146,147
 1093 1531 1093 1531 1094 1476 c 0,148,149
 1094 1424 1094 1424 1071 1378 c 128,-1,150
 1048 1332 1048 1332 1009 1324 c 0,151,152
 939 1310 939 1310 846 1310 c 0,153,154
 752 1310 752 1310 646 1316 c 0,155,156
 566 1320 566 1320 513 1320 c 0,157,158
 495 1320 495 1320 480 1320 c 0,159,160
 461 1320 461 1320 420 1327.5 c 128,-1,161
 379 1335 379 1335 345.5 1335 c 128,-1,162
 312 1335 312 1335 289 1320 c 0,163,164
 270 1308 270 1308 259.5 1275 c 128,-1,165
 249 1242 249 1242 246 1196 c 0,166,167
 243 1157 243 1157 243 1122 c 0,168,169
 244 1116 244 1116 244 1111 c 0,170,171
 244 1072 244 1072 246.5 1025 c 128,-1,172
 249 978 249 978 249 966 c 1,1,2
EndSplineSet
Validated: 1
EndChar

StartChar: F
Encoding: 70 70 18
Width: 1097
VWidth: 1597
Flags: W
LayerCount: 2
Fore
SplineSet
582 945 m 0,0,1
 584 945 l 0,2,3
 616 945 616 945 706 936 c 0,4,5
 721 935 721 935 751 935 c 128,-1,6
 781 935 781 935 825 936 c 1,7,8
 860 925 860 925 876 893 c 0,9,10
 889 867 889 867 888 837 c 0,11,12
 888 830 888 830 888 824 c 0,13,14
 888 798 888 798 870 752 c 0,15,16
 849 700 849 700 836 696 c 0,17,18
 767 680 767 680 702 680 c 0,19,20
 693 680 693 680 684 680 c 0,21,22
 563 684 563 684 556 684 c 2,23,-1
 484 682 l 1,24,25
 447 682 447 682 443 686 c 0,26,27
 442 686 442 686 406 690 c 0,28,29
 392 692 392 692 369 692.5 c 128,-1,30
 346 693 346 693 331 690 c 128,-1,31
 316 687 316 687 300.5 679.5 c 128,-1,32
 285 672 285 672 276 659 c 0,33,34
 254 629 254 629 246 584 c 0,35,36
 240 553 240 553 240 520 c 0,37,38
 240 506 240 506 242 491 c 0,39,40
 244 469 244 469 250 389 c 0,41,42
 253 345 253 345 262 284 c 0,43,44
 266 255 266 255 265 228 c 0,45,46
 265 206 265 206 263 186 c 0,47,48
 258 138 258 138 244 102 c 128,-1,49
 230 66 230 66 194 41 c 0,50,51
 167 22 167 22 101 9 c 0,52,53
 96 8 96 8 92 8 c 0,54,55
 87 8 87 8 58 19 c 0,56,57
 24 31 24 31 24 76 c 0,58,59
 23 139 23 139 23 172 c 128,-1,60
 23 205 23 205 24 208 c 0,61,62
 26 225 26 225 26 245 c 0,63,64
 26 281 26 281 20 324 c 0,65,66
 19 332 19 332 19 357 c 0,67,68
 19 412 19 412 24 548 c 0,69,70
 29 691 29 691 33 778 c 0,71,72
 39 918 39 918 39 1301 c 0,73,74
 39 1312 39 1312 38.5 1339.5 c 128,-1,75
 38 1367 38 1367 37.5 1384.5 c 128,-1,76
 37 1402 37 1402 39 1430 c 128,-1,77
 41 1458 41 1458 44 1476.5 c 128,-1,78
 47 1495 47 1495 54.5 1517.5 c 128,-1,79
 62 1540 62 1540 72.5 1554 c 128,-1,80
 83 1568 83 1568 99 1579 c 128,-1,81
 115 1590 115 1590 136 1594 c 0,82,83
 188 1604 188 1604 268 1604 c 0,84,85
 283 1604 283 1604 297 1604 c 0,86,87
 354 1604 354 1604 403 1601 c 0,88,89
 464 1597 464 1597 543.5 1592.5 c 128,-1,90
 623 1588 623 1588 675 1588 c 0,91,92
 704 1588 704 1588 772 1592 c 0,93,94
 828 1596 828 1596 873 1596 c 0,95,96
 883 1596 883 1596 893 1596 c 0,97,98
 946 1595 946 1595 987 1584 c 0,99,100
 1021 1575 1021 1575 1038 1541 c 0,101,102
 1053 1511 1053 1511 1053 1476 c 0,103,104
 1053 1472 1053 1472 1053 1468 c 0,105,106
 1053 1432 1053 1432 1036 1390 c 0,107,108
 1021 1352 1021 1352 998 1335 c 0,109,110
 983 1324 983 1324 962 1319 c 128,-1,111
 941 1314 941 1314 925 1314 c 128,-1,112
 909 1314 909 1314 883.5 1315 c 128,-1,113
 858 1316 858 1316 846 1316 c 0,114,115
 828 1316 828 1316 806 1316 c 0,116,117
 740 1316 740 1316 639 1320 c 0,118,119
 505 1326 505 1326 451 1326 c 0,120,121
 438 1326 438 1326 409.5 1328.5 c 128,-1,122
 381 1331 381 1331 361.5 1332 c 128,-1,123
 342 1333 342 1333 319 1330 c 128,-1,124
 296 1327 296 1327 282 1313 c 128,-1,125
 268 1299 268 1299 264 1276 c 1,126,127
 260 1244 260 1244 257 1204 c 0,128,129
 252 1138 252 1138 252 1113 c 0,130,131
 252 1105 252 1105 252 1097 c 0,132,133
 252 1054 252 1054 259 1018 c 0,134,135
 267 976 267 976 284 959 c 1,136,137
 296 947 296 947 321 941 c 0,138,139
 351 933 351 933 367 934 c 0,140,141
 405 937 405 937 420 938 c 0,142,143
 510 945 510 945 582 945 c 0,0,1
EndSplineSet
Validated: 1
EndChar

StartChar: G
Encoding: 71 71 19
Width: 1381
VWidth: 1597
Flags: W
LayerCount: 2
Fore
SplineSet
838 1595 m 0,0,1
 849 1597 849 1597 863 1597 c 0,2,3
 894 1597 894 1597 937 1589 c 0,4,5
 1000 1578 1000 1578 1067 1555 c 128,-1,6
 1134 1532 1134 1532 1190 1497 c 128,-1,7
 1246 1462 1246 1462 1269 1418 c 0,8,9
 1279 1398 1279 1398 1279 1376 c 0,10,11
 1279 1350 1279 1350 1264 1321 c 1,12,13
 1237 1273 1237 1273 1206.5 1247 c 128,-1,14
 1176 1221 1176 1221 1145.5 1217.5 c 128,-1,15
 1115 1214 1115 1214 1084 1221 c 128,-1,16
 1053 1228 1053 1228 1018.5 1247 c 128,-1,17
 984 1266 984 1266 952.5 1284.5 c 128,-1,18
 921 1303 921 1303 882.5 1321.5 c 128,-1,19
 844 1340 844 1340 812 1348 c 0,20,21
 772 1358 772 1358 727 1358 c 0,22,23
 666 1358 666 1358 600 1340 c 0,24,25
 484 1309 484 1309 399 1246 c 1,26,27
 331 1196 331 1196 288 1116 c 0,28,29
 246 1036 246 1036 232 946 c 0,30,31
 223 886 223 886 223 825 c 0,32,33
 223 792 223 792 225 760 c 0,34,35
 232 666 232 666 263 579.5 c 128,-1,36
 294 493 294 493 342 429 c 1,37,38
 390 367 390 367 461 324.5 c 128,-1,39
 532 282 532 282 610 266 c 0,40,41
 650 257 650 257 692 257 c 0,42,43
 696 257 696 257 701 257 c 0,44,-1
 770 264 l 0,45,46
 852 280 852 280 916 330 c 0,47,48
 933 343 933 343 949 364.5 c 128,-1,49
 965 386 965 386 972.5 400 c 128,-1,50
 980 414 980 414 995 442 c 0,51,52
 998 449 998 449 1010.5 472 c 128,-1,53
 1023 495 1023 495 1032 510.5 c 128,-1,54
 1041 526 1041 526 1051 551 c 128,-1,55
 1061 576 1061 576 1065 594 c 128,-1,56
 1069 612 1069 612 1067.5 631.5 c 128,-1,57
 1066 651 1066 651 1056 663 c 0,58,59
 1031 695 1031 695 906 697 c 0,60,61
 886 698 886 698 843 698 c 0,62,63
 834 698 834 698 825 698 c 0,64,65
 704 698 704 698 661 711 c 0,66,67
 608 727 608 727 608 766 c 0,68,69
 608 792 608 792 631 828 c 0,70,71
 639 840 639 840 650 855 c 0,72,73
 680 896 680 896 766 922 c 128,-1,74
 852 948 852 948 946 952 c 0,75,76
 968 953 968 953 991 953 c 0,77,78
 996 953 996 953 1002 953 c 0,79,80
 1067 953 1067 953 1131 942 c 0,81,82
 1221 928 1221 928 1262 895 c 1,83,84
 1332 843 1332 843 1332 747 c 0,85,86
 1332 650 1332 650 1261 509 c 1,87,88
 1216 422 1216 422 1170 354 c 128,-1,89
 1124 286 1124 286 1065 223.5 c 128,-1,90
 1006 161 1006 161 940.5 117.5 c 128,-1,91
 875 74 875 74 791.5 44.5 c 128,-1,92
 708 15 708 15 612 5 c 0,93,94
 580 2 580 2 550 2 c 0,95,96
 496 2 496 2 446 12 c 0,97,98
 368 28 368 28 306 64.5 c 128,-1,99
 244 101 244 101 193.5 153.5 c 128,-1,100
 143 206 143 206 108 271 c 128,-1,101
 73 336 73 336 48 410 c 0,102,103
 23 482 23 482 13 560 c 0,104,105
 4 630 4 630 4 702 c 0,106,107
 4 709 4 709 4 716 c 0,108,109
 5 794 5 794 19 868 c 0,110,111
 41 989 41 989 95 1096 c 128,-1,112
 149 1203 149 1203 226.5 1286.5 c 128,-1,113
 304 1370 304 1370 401 1434.5 c 128,-1,114
 498 1499 498 1499 608.5 1539 c 128,-1,115
 719 1579 719 1579 838 1595 c 0,0,1
EndSplineSet
Validated: 1
EndChar

StartChar: H
Encoding: 72 72 20
Width: 1163
VWidth: 1597
Flags: W
LayerCount: 2
Fore
SplineSet
44 19 m 1,0,1
 44 28 44 28 44 55.5 c 128,-1,2
 44 83 44 83 42.5 115 c 128,-1,3
 41 147 41 147 41 174 c 0,4,5
 41 200 41 200 41 214 c 0,6,7
 41 232 41 232 41 262.5 c 128,-1,8
 41 293 41 293 42.5 323.5 c 128,-1,9
 44 354 44 354 44 378.5 c 128,-1,10
 44 403 44 403 44 406 c 0,11,12
 44 422 44 422 47.5 478 c 128,-1,13
 51 534 51 534 55 599.5 c 128,-1,14
 59 665 59 665 64 721.5 c 128,-1,15
 69 778 69 778 69 792 c 2,16,-1
 69 1231 l 2,17,18
 69 1246 69 1246 72 1282.5 c 128,-1,19
 75 1319 75 1319 79.5 1360.5 c 128,-1,20
 84 1402 84 1402 87 1438 c 128,-1,21
 90 1474 90 1474 93 1490 c 1,22,23
 99 1499 99 1499 126.5 1521.5 c 128,-1,24
 154 1544 154 1544 186 1565.5 c 128,-1,25
 218 1587 218 1587 243.5 1603.5 c 128,-1,26
 269 1620 269 1620 273 1620 c 0,27,28
 291 1620 291 1620 306 1617 c 128,-1,29
 321 1614 321 1614 328 1593 c 1,30,31
 330 1569 330 1569 333 1511 c 128,-1,32
 336 1453 336 1453 341 1387.5 c 128,-1,33
 346 1322 346 1322 349 1263 c 128,-1,34
 352 1204 352 1204 352 1179 c 0,35,36
 352 1164 352 1164 352 1124 c 128,-1,37
 352 1084 352 1084 350.5 1040 c 128,-1,38
 349 996 349 996 347.5 956.5 c 128,-1,39
 346 917 346 917 346 902 c 1,40,41
 465 902 465 902 583.5 905 c 128,-1,42
 702 908 702 908 818 947 c 1,43,44
 824 1076 824 1076 836 1218.5 c 128,-1,45
 848 1361 848 1361 870 1490 c 1,46,-1
 893 1514 l 1,47,48
 945 1548 945 1548 989.5 1582 c 128,-1,49
 1034 1616 1034 1616 1104 1616 c 1,50,51
 1104 1245 1104 1245 1097.5 896.5 c 128,-1,52
 1091 548 1091 548 1073 174 c 1,53,54
 1021 123 1021 123 954.5 85 c 128,-1,55
 888 47 888 47 818 19 c 1,56,-1
 818 689 l 2,57,58
 818 716 818 716 785.5 716.5 c 128,-1,59
 753 717 753 717 744 717 c 2,60,-1
 686 717 l 2,61,62
 670 717 670 717 632.5 712 c 128,-1,63
 595 707 595 707 554 702.5 c 128,-1,64
 513 698 513 698 478 695 c 128,-1,65
 443 692 443 692 431 689 c 1,66,67
 404 686 404 686 360 677 c 128,-1,68
 316 668 316 668 316 665 c 2,69,-1
 316 150 l 1,70,71
 307 144 307 144 287 128.5 c 128,-1,72
 267 113 267 113 244.5 96.5 c 128,-1,73
 222 80 222 80 201.5 65 c 128,-1,74
 181 50 181 50 172 44 c 1,75,76
 167 44 167 44 158 34 c 0,77,78
 148 23 148 23 145 19 c 0,79,80
 139 13 139 13 119 5.5 c 128,-1,81
 99 -2 99 -2 93 -5 c 1,82,83
 90 -9 90 -9 87 -9 c 2,84,-1
 81 -9 l 1,85,-1
 75 -9 l 2,86,87
 73 -9 73 -9 69 -5 c 1,88,89
 53 4 53 4 44 19 c 1,0,1
EndSplineSet
Validated: 1
EndChar

StartChar: I
Encoding: 73 73 21
Width: 987
VWidth: 1597
Flags: W
LayerCount: 2
Fore
SplineSet
384 724 m 16,0,1
 386 736 386 736 386 898 c 0,2,-1
 386 916 l 0,3,4
 386 980 386 980 390 1036 c 0,5,6
 393 1078 393 1078 393 1094 c 0,7,8
 393 1120 393 1120 393 1163 c 128,-1,9
 393 1206 393 1206 390 1247 c 0,10,11
 387 1295 387 1295 387 1343 c 1,12,-1
 169 1343 l 1,13,14
 169 1378 169 1378 172 1413 c 1,15,16
 172 1442 172 1442 174 1472.5 c 128,-1,17
 176 1503 176 1503 179 1526 c 0,18,19
 182 1551 182 1551 203 1574.5 c 128,-1,20
 224 1598 224 1598 249 1598 c 2,21,-1
 948 1598 l 2,22,23
 967 1598 967 1598 971 1580.5 c 128,-1,24
 975 1563 975 1563 975 1555 c 0,25,26
 975 1549 975 1549 971.5 1517.5 c 128,-1,27
 968 1486 968 1486 968 1484 c 0,28,29
 965 1461 965 1461 958.5 1435.5 c 128,-1,30
 952 1410 952 1410 948 1407 c 1,31,32
 939 1391 939 1391 912 1362.5 c 128,-1,33
 885 1334 885 1334 875 1334 c 2,34,-1
 636 1334 l 1,35,36
 605 1104 605 1104 596.5 875.5 c 128,-1,37
 588 647 588 647 588 417 c 2,38,-1
 588 321 l 2,39,40
 588 315 588 315 597.5 306.5 c 128,-1,41
 607 298 607 298 611 296 c 1,42,43
 620 293 620 293 640.5 289 c 128,-1,44
 661 285 661 285 683.5 282 c 128,-1,45
 706 279 706 279 726.5 276 c 128,-1,46
 747 273 747 273 757 273 c 1,47,-1
 757 235 l 2,48,49
 757 146 757 146 754.5 73 c 128,-1,50
 752 0 752 0 710 0 c 128,-1,51
 668 0 668 0 588 2 c 128,-1,52
 508 4 508 4 431 4 c 0,53,54
 419 4 419 4 396.5 4 c 128,-1,55
 374 4 374 4 353 6 c 128,-1,56
 332 8 332 8 316 8 c 128,-1,57
 300 8 300 8 297 8 c 0,58,59
 291 8 291 8 268.5 11 c 128,-1,60
 246 14 246 14 219 17 c 128,-1,61
 192 20 192 20 166 23.5 c 128,-1,62
 140 27 140 27 128 30 c 0,63,64
 105 36 105 36 68.5 44.5 c 128,-1,65
 32 53 32 53 32 55 c 2,66,-1
 32 282 l 1,67,68
 64 282 64 282 83 276 c 128,-1,69
 102 270 102 270 118 263.5 c 128,-1,70
 134 257 134 257 171.5 260.5 c 128,-1,71
 209 264 209 264 244 264 c 0,72,73
 333 264 333 264 348 292 c 0,74,75
 367 326 367 326 368 404 c 0,76,77
 372 652 372 652 384 724 c 16,0,1
EndSplineSet
Validated: 1
EndChar

StartChar: J
Encoding: 74 74 22
Width: 1125
VWidth: 1597
Flags: W
LayerCount: 2
Fore
SplineSet
808 650 m 16,0,1
 799 596 799 596 786 490 c 0,2,3
 775 392 775 392 728 288 c 0,4,5
 684 190 684 190 566 91 c 1,6,7
 486 27 486 27 412.5 -3.5 c 128,-1,8
 339 -34 339 -34 240 -34 c 0,9,10
 208 -34 208 -34 172.5 -30.5 c 128,-1,11
 137 -27 137 -27 107 -16 c 128,-1,12
 77 -5 77 -5 57.5 21 c 128,-1,13
 38 47 38 47 38 91 c 0,14,15
 38 126 38 126 59 159.5 c 128,-1,16
 80 193 80 193 112 217 c 128,-1,17
 144 241 144 241 182 255.5 c 128,-1,18
 220 270 220 270 253 270 c 0,19,20
 276 270 276 270 293 257.5 c 128,-1,21
 310 245 310 245 326 230.5 c 128,-1,22
 342 216 342 216 358 203 c 128,-1,23
 374 190 374 190 399 190 c 0,24,25
 440 190 440 190 464.5 218.5 c 128,-1,26
 489 247 489 247 498.5 289 c 128,-1,27
 508 331 508 331 510 374 c 128,-1,28
 512 417 512 417 515 442 c 1,29,30
 515 458 515 458 519.5 496.5 c 128,-1,31
 524 535 524 535 527 580 c 128,-1,32
 530 625 530 625 545 656.5 c 128,-1,33
 560 688 560 688 560 704 c 1,34,35
 568 760 l 0,36,37
 573 787 573 787 578 822 c 0,38,39
 588 849 588 849 588 884 c 128,-1,40
 588 919 588 919 588 941 c 0,41,42
 588 953 588 953 592.5 1004.5 c 128,-1,43
 597 1056 597 1056 602 1115 c 128,-1,44
 607 1174 607 1174 610 1225.5 c 128,-1,45
 613 1277 613 1277 613 1289 c 0,46,47
 613 1292 613 1292 615 1310 c 128,-1,48
 617 1328 617 1328 617 1334 c 0,49,50
 617 1350 617 1350 615 1367 c 128,-1,51
 613 1384 613 1384 588 1392 c 1,52,53
 572 1392 572 1392 529 1390 c 128,-1,54
 486 1388 486 1388 438 1388 c 128,-1,55
 390 1388 390 1388 348.5 1390 c 128,-1,56
 307 1392 307 1392 291 1392 c 0,57,58
 278 1392 278 1392 239.5 1401.5 c 128,-1,59
 201 1411 201 1411 189 1413 c 1,60,-1
 189 1427 l 2,61,62
 189 1443 189 1443 209.5 1474.5 c 128,-1,63
 230 1506 230 1506 259 1536.5 c 128,-1,64
 288 1567 288 1567 317 1591 c 128,-1,65
 346 1615 346 1615 364 1615 c 2,66,-1
 1099 1615 l 1,67,68
 1099 1561 1099 1561 1068.5 1526 c 128,-1,69
 1038 1491 1038 1491 1000 1459 c 128,-1,70
 962 1427 962 1427 928.5 1395 c 128,-1,71
 895 1363 895 1363 888 1314 c 1,72,73
 885 1298 885 1298 882 1259.5 c 128,-1,74
 879 1221 879 1221 874 1178.5 c 128,-1,75
 869 1136 869 1136 866 1096 c 128,-1,76
 863 1056 863 1056 863 1040 c 1,77,-1
 840 864 l 9,78,-1
 808 650 l 16,0,1
EndSplineSet
Validated: 1
EndChar

StartChar: K
Encoding: 75 75 23
Width: 1095
VWidth: 1597
Flags: W
LayerCount: 2
Fore
SplineSet
386 1230 m 24,0,1
 383 1224 383 1224 383 1138 c 128,-1,2
 383 1052 383 1052 376 1048 c 1,3,-1
 356 800 l 1,4,5
 362 800 362 800 377 798 c 128,-1,6
 392 796 392 796 398 796 c 0,7,8
 446 796 446 796 498.5 853.5 c 128,-1,9
 551 911 551 911 608.5 999 c 128,-1,10
 666 1087 666 1087 725.5 1189 c 128,-1,11
 785 1291 785 1291 842 1379 c 128,-1,12
 899 1467 899 1467 955.5 1525 c 128,-1,13
 1012 1583 1012 1583 1062 1583 c 1,14,15
 1062 1554 1062 1554 1033.5 1488.5 c 128,-1,16
 1005 1423 1005 1423 962 1341.5 c 128,-1,17
 919 1260 919 1260 864.5 1168.5 c 128,-1,18
 810 1077 810 1077 758.5 997 c 128,-1,19
 707 917 707 917 666 857 c 0,20,21
 611 777 611 777 605 771 c 0,22,23
 602 768 602 768 602 764 c 2,24,-1
 602 757 l 2,25,26
 602 754 602 754 604 750 c 128,-1,27
 606 746 606 746 605 743 c 1,28,29
 665 688 665 688 715 608 c 128,-1,30
 765 528 765 528 813 442 c 128,-1,31
 861 356 861 356 912 275.5 c 128,-1,32
 963 195 963 195 1024 141 c 1,33,34
 1024 138 1024 138 1025.5 128.5 c 128,-1,35
 1027 119 1027 119 1027 112 c 0,36,37
 1027 81 1027 81 998.5 60 c 128,-1,38
 970 39 970 39 931 26 c 128,-1,39
 892 13 892 13 856 8.5 c 128,-1,40
 820 4 820 4 800 4 c 0,41,42
 759 4 759 4 731.5 29.5 c 128,-1,43
 704 55 704 55 683.5 90 c 128,-1,44
 663 125 663 125 645.5 162 c 128,-1,45
 628 199 628 199 605 222 c 1,46,47
 605 225 605 225 590.5 242 c 128,-1,48
 576 259 576 259 558.5 281.5 c 128,-1,49
 541 304 541 304 527 321 c 0,50,-1
 513 339 l 1,51,52
 481 358 481 358 468.5 384 c 128,-1,53
 456 410 456 410 443 437 c 128,-1,54
 430 464 430 464 412 486.5 c 128,-1,55
 394 509 394 509 356 522 c 1,56,-1
 299 87 l 1,57,58
 296 67 296 67 271.5 51.5 c 128,-1,59
 247 36 247 36 217 24.5 c 128,-1,60
 187 13 187 13 155 7 c 128,-1,61
 123 1 123 1 104 1 c 0,62,63
 81 1 81 1 51 4 c 128,-1,64
 21 7 21 7 21 42 c 2,65,-1
 21 58 l 1,66,67
 24 74 24 74 27 101.5 c 128,-1,68
 30 129 30 129 35 156 c 128,-1,69
 40 183 40 183 45 203.5 c 128,-1,70
 50 224 50 224 50 228 c 0,71,72
 50 231 50 231 61 240.5 c 128,-1,73
 72 250 72 250 78 253 c 1,74,75
 118 406 118 406 122 560 c 0,76,77
 125 675 125 675 125 790 c 0,78,79
 124 828 124 828 124 867 c 0,80,81
 123 918 123 918 123 969 c 0,82,83
 124 994 124 994 124 1020 c 0,84,85
 124 1096 124 1096 124 1173 c 0,86,87
 126 1326 126 1326 158 1477 c 1,88,89
 164 1483 164 1483 173.5 1494 c 128,-1,90
 183 1505 183 1505 187 1505 c 1,91,92
 196 1511 196 1511 220.5 1524 c 128,-1,93
 245 1537 245 1537 270.5 1550 c 128,-1,94
 296 1563 296 1563 321 1574 c 128,-1,95
 346 1585 346 1585 356 1591 c 1,96,97
 356 1582 356 1582 359.5 1563 c 128,-1,98
 363 1544 363 1544 368 1521.5 c 128,-1,99
 373 1499 373 1499 373.5 1491.5 c 128,-1,100
 374 1484 374 1484 376 1478 c 0,101,102
 379 1472 379 1472 375 1448 c 128,-1,103
 371 1424 371 1424 378 1420 c 1,104,105
 374 1414 374 1414 376 1406 c 0,106,107
 380 1379 380 1379 381 1368 c 0,108,109
 382 1354 382 1354 386 1328 c 0,110,111
 390 1299 390 1299 392 1291 c 0,112,113
 400 1257 400 1257 386 1230 c 24,0,1
EndSplineSet
Validated: 1
EndChar

StartChar: L
Encoding: 76 76 24
Width: 970
VWidth: 1597
Flags: W
LayerCount: 2
Fore
SplineSet
38 83 m 0,0,1
 38 99 38 99 40 134 c 0,2,3
 42 170 42 170 44 176 c 1,4,5
 44 182 44 182 52.5 190 c 128,-1,6
 61 198 61 198 67 198 c 1,7,8
 70 220 70 220 73.5 273 c 128,-1,9
 77 326 77 326 81.5 387 c 128,-1,10
 86 448 86 448 89 500.5 c 128,-1,11
 92 553 92 553 92 572 c 0,12,13
 92 601 92 601 92 706 c 128,-1,14
 92 811 92 811 92 934.5 c 128,-1,15
 92 1058 92 1058 92 1163 c 128,-1,16
 92 1268 92 1268 92 1297 c 0,17,18
 92 1309 92 1309 95 1335 c 128,-1,19
 98 1361 98 1361 103 1388 c 128,-1,20
 108 1415 108 1415 111.5 1439 c 128,-1,21
 115 1463 115 1463 119 1470 c 1,22,23
 125 1486 125 1486 152 1532.5 c 128,-1,24
 179 1579 179 1579 191 1594 c 1,25,26
 198 1600 198 1600 217 1610 c 128,-1,27
 236 1620 236 1620 243 1620 c 256,28,29
 249 1620 249 1620 258.5 1610.5 c 128,-1,30
 268 1601 268 1601 268 1594 c 0,31,32
 271 1565 271 1565 274.5 1491.5 c 128,-1,33
 278 1418 278 1418 281 1334 c 128,-1,34
 284 1250 284 1250 287.5 1176 c 128,-1,35
 291 1102 291 1102 291 1074 c 0,36,37
 291 1051 291 1051 291 966 c 128,-1,38
 291 881 291 881 291 785.5 c 128,-1,39
 291 690 291 690 291 605 c 128,-1,40
 291 520 291 520 291 498 c 0,41,42
 291 489 291 489 295.5 468.5 c 128,-1,43
 300 448 300 448 305 423.5 c 128,-1,44
 310 399 310 399 313 378.5 c 128,-1,45
 316 358 316 358 319 348 c 1,46,47
 342 348 342 348 403 328 c 128,-1,48
 464 308 464 308 526 303 c 128,-1,49
 588 298 588 298 646 295 c 128,-1,50
 704 292 704 292 726 292 c 1,51,52
 757 289 757 289 789.5 293.5 c 128,-1,53
 822 298 822 298 848 297 c 128,-1,54
 874 296 874 296 890 281 c 128,-1,55
 906 266 906 266 906 228 c 0,56,57
 906 189 906 189 888 155.5 c 128,-1,58
 870 122 870 122 843 93 c 128,-1,59
 816 64 816 64 784 40 c 0,60,61
 738 4 738 4 726 -8 c 0,62,63
 720 -14 720 -14 701 -24 c 0,64,65
 680 -34 680 -34 678 -34 c 2,66,-1
 119 0 l 1,67,-1
 44 26 l 1,68,69
 41 26 41 26 39.5 48 c 128,-1,70
 38 70 38 70 38 83 c 0,0,1
EndSplineSet
Validated: 1
EndChar

StartChar: M
Encoding: 77 77 25
Width: 1508
VWidth: 1597
Flags: W
LayerCount: 2
Fore
SplineSet
1384 560 m 16,0,1
 1380 491 1380 491 1377.5 411 c 128,-1,2
 1375 331 1375 331 1372 260.5 c 128,-1,3
 1369 190 1369 190 1365 161 c 1,4,5
 1359 78 1359 78 1308 30.5 c 128,-1,6
 1257 -17 1257 -17 1174 -17 c 0,7,8
 1155 -17 1155 -17 1124.5 -17 c 128,-1,9
 1094 -17 1094 -17 1094 15 c 2,10,-1
 1094 27 l 1,11,12
 1097 39 1097 39 1100.5 76.5 c 128,-1,13
 1104 114 1104 114 1108.5 152 c 128,-1,14
 1113 190 1113 190 1116 225.5 c 128,-1,15
 1119 261 1119 261 1119 277 c 1,16,17
 1142 283 1142 283 1142 305.5 c 128,-1,18
 1142 328 1142 328 1142 344 c 0,19,20
 1142 356 1142 356 1142 380.5 c 128,-1,21
 1142 405 1142 405 1119 411 c 1,22,-1
 1139 434 l 1,23,-1
 1139 810 l 1,24,25
 1136 810 1136 810 1129 813.5 c 128,-1,26
 1122 817 1122 817 1119 814 c 1,27,28
 1100 804 1100 804 1084.5 773.5 c 128,-1,29
 1069 743 1069 743 1054.5 704.5 c 128,-1,30
 1040 666 1040 666 1028.5 628 c 128,-1,31
 1017 590 1017 590 1005 568 c 1,32,33
 1005 565 1005 565 995 556.5 c 128,-1,34
 985 548 985 548 985 545 c 1,35,36
 965 516 965 516 935.5 446 c 128,-1,37
 906 376 906 376 867.5 304 c 128,-1,38
 829 232 829 232 780 181 c 0,39,40
 738 138 738 138 687 138 c 0,41,42
 678 138 678 138 669 139 c 1,43,44
 653 142 653 142 619.5 160 c 128,-1,45
 586 178 586 178 580 184 c 1,46,-1
 573 200 l 0,47,48
 566 216 566 216 558.5 238.5 c 128,-1,49
 551 261 551 261 544.5 283.5 c 128,-1,50
 538 306 538 306 535 318 c 1,51,52
 529 330 529 330 519 367.5 c 128,-1,53
 509 405 509 405 499.5 443 c 128,-1,54
 490 481 490 481 480 516 c 0,55,56
 471 552 471 552 467 568 c 1,57,58
 448 580 448 580 439 609 c 128,-1,59
 430 638 430 638 410 638 c 1,60,-1
 401 635 l 1,61,62
 398 609 398 609 391.5 550 c 128,-1,63
 385 491 385 491 378.5 422 c 128,-1,64
 372 353 372 353 366 292.5 c 128,-1,65
 360 232 360 232 356 207 c 0,66,67
 344 117 344 117 276.5 61 c 128,-1,68
 209 5 209 5 116 5 c 0,69,70
 78 5 78 5 57.5 15 c 128,-1,71
 37 25 37 25 37 69 c 0,72,73
 37 81 37 81 37 107 c 128,-1,74
 37 133 37 133 62 139 c 1,75,76
 65 178 65 178 74.5 277 c 128,-1,77
 84 376 84 376 95.5 488 c 128,-1,78
 107 600 107 600 116.5 699 c 128,-1,79
 126 798 126 798 129 835 c 1,80,-1
 129 858 l 1,81,82
 132 913 132 913 135.5 999 c 128,-1,83
 139 1085 139 1085 142 1168 c 128,-1,84
 145 1251 145 1251 148 1312 c 128,-1,85
 151 1373 151 1373 151 1376 c 0,86,87
 154 1395 154 1395 162 1438 c 128,-1,88
 170 1481 170 1481 174 1487 c 1,89,90
 177 1490 177 1490 190 1500 c 128,-1,91
 203 1510 203 1510 218.5 1521.5 c 128,-1,92
 234 1533 234 1533 247.5 1542 c 128,-1,93
 261 1551 261 1551 263 1555 c 1,94,95
 269 1558 269 1558 286.5 1578.5 c 128,-1,96
 304 1599 304 1599 308 1599 c 1,97,98
 311 1602 311 1602 328.5 1602.5 c 128,-1,99
 346 1603 346 1603 356 1603 c 0,100,101
 407 1603 407 1603 440.5 1568 c 128,-1,102
 474 1533 474 1533 490 1487 c 1,103,104
 493 1471 493 1471 506 1429.5 c 128,-1,105
 519 1388 519 1388 533.5 1342 c 128,-1,106
 548 1296 548 1296 560.5 1255 c 128,-1,107
 573 1214 573 1214 580 1197 c 1,108,-1
 602 1175 l 1,109,-1
 714 701 l 1,110,111
 730 692 730 692 736.5 678 c 128,-1,112
 743 664 743 664 747.5 646.5 c 128,-1,113
 752 629 752 629 758.5 614.5 c 128,-1,114
 765 600 765 600 781 590 c 1,115,116
 801 600 801 600 810 617.5 c 128,-1,117
 819 635 819 635 825 653.5 c 128,-1,118
 831 672 831 672 839.5 691.5 c 128,-1,119
 848 711 848 711 870 724 c 1,120,-1
 985 995 l 1,121,122
 988 995 988 995 996.5 1003.5 c 128,-1,123
 1005 1012 1005 1012 1005 1015 c 1,124,125
 1030 1073 1030 1073 1058.5 1159 c 128,-1,126
 1087 1245 1087 1245 1129 1323.5 c 128,-1,127
 1171 1402 1171 1402 1228 1457.5 c 128,-1,128
 1285 1513 1285 1513 1369 1513 c 0,129,130
 1427 1513 1427 1513 1430 1473.5 c 128,-1,131
 1433 1434 1433 1434 1433 1385 c 0,132,133
 1433 1238 1433 1238 1421.5 1138.5 c 128,-1,134
 1410 1039 1410 1039 1404 899 c 1,135,136
 1400 896 1400 896 1394 836 c 8,137,138
 1388 702 1388 702 1384 560 c 16,0,1
EndSplineSet
Validated: 1
EndChar

StartChar: N
Encoding: 78 78 26
Width: 1253
VWidth: 1597
Flags: W
LayerCount: 2
Fore
SplineSet
40 838 m 0,0,1
 40 870 40 870 40 953.5 c 128,-1,2
 40 1037 40 1037 42 1127.5 c 128,-1,3
 44 1218 44 1218 44 1299.5 c 128,-1,4
 44 1381 44 1381 44 1413 c 0,5,6
 44 1422 44 1422 50 1441.5 c 128,-1,7
 56 1461 56 1461 62.5 1481.5 c 128,-1,8
 69 1502 69 1502 75 1521.5 c 128,-1,9
 81 1541 81 1541 85 1548 c 1,10,11
 88 1548 88 1548 94.5 1555.5 c 128,-1,12
 101 1563 101 1563 108 1570 c 0,13,14
 114 1576 114 1576 139.5 1590.5 c 128,-1,15
 165 1605 165 1605 172 1611 c 1,16,17
 181 1617 181 1617 198 1624.5 c 128,-1,18
 215 1632 215 1632 219 1632 c 0,19,20
 225 1632 225 1632 239.5 1625 c 128,-1,21
 254 1618 254 1618 261 1611 c 1,22,23
 264 1611 264 1611 270.5 1595 c 128,-1,24
 277 1579 277 1579 283 1570 c 1,25,26
 337 1448 337 1448 386.5 1350.5 c 128,-1,27
 436 1253 436 1253 500 1132 c 1,28,29
 503 1129 503 1129 513 1121 c 128,-1,30
 523 1113 523 1113 523 1109 c 1,31,32
 593 994 593 994 647 882.5 c 128,-1,33
 701 771 701 771 762 650 c 0,34,35
 765 644 765 644 771 640 c 1,36,37
 781 631 781 631 784 630 c 1,38,39
 791 620 791 620 804 596.5 c 128,-1,40
 817 573 817 573 829.5 544.5 c 128,-1,41
 842 516 842 516 853 490 c 0,42,43
 864 463 864 463 870 454 c 1,44,-1
 916 454 l 1,45,-1
 916 761 l 1,46,-1
 893 781 l 1,47,48
 893 784 893 784 890 836.5 c 128,-1,49
 887 889 887 889 884 963 c 128,-1,50
 881 1037 881 1037 877 1113 c 128,-1,51
 873 1189 873 1189 870 1240 c 1,52,-1
 870 1362 l 1,53,-1
 870 1480 l 1,54,55
 905 1525 905 1525 959.5 1569.5 c 128,-1,56
 1014 1614 1014 1614 1078 1614 c 0,57,58
 1081 1614 1081 1614 1084.5 1612.5 c 128,-1,59
 1088 1611 1088 1611 1091 1611 c 1,60,61
 1117 1499 1117 1499 1123 1384 c 128,-1,62
 1129 1269 1129 1269 1133 1154 c 1,63,64
 1136 1119 1136 1119 1138 1044 c 128,-1,65
 1140 969 1140 969 1141 873 c 128,-1,66
 1142 777 1142 777 1145 673 c 128,-1,67
 1148 569 1148 569 1150 473.5 c 128,-1,68
 1152 378 1152 378 1160 326.5 c 128,-1,69
 1168 275 1168 275 1168 240 c 1,70,71
 1174 240 1174 240 1174.5 208 c 128,-1,72
 1175 176 1175 176 1177 173 c 1,73,-1
 1177 161 l 2,74,75
 1177 135 1177 135 1144 106 c 128,-1,76
 1111 77 1111 77 1066 52 c 128,-1,77
 1021 27 1021 27 977.5 11 c 128,-1,78
 934 -5 934 -5 916 -5 c 0,79,80
 913 -5 913 -5 904.5 -3.5 c 128,-1,81
 896 -2 896 -2 893 -2 c 1,82,83
 842 43 842 43 787.5 97 c 128,-1,84
 733 151 733 151 695 215 c 1,85,86
 695 218 695 218 688.5 230.5 c 128,-1,87
 682 243 682 243 674 257.5 c 128,-1,88
 666 272 666 272 660 285 c 128,-1,89
 654 298 654 298 654 301 c 1,90,91
 609 374 609 374 561 451 c 0,92,93
 538 487 538 487 478 608 c 0,94,95
 475 614 475 614 465.5 636.5 c 128,-1,96
 456 659 456 659 446 686.5 c 128,-1,97
 436 714 436 714 426.5 734.5 c 128,-1,98
 417 755 417 755 413 761 c 0,99,100
 410 767 410 767 391 783.5 c 128,-1,101
 372 800 372 800 369 806 c 1,102,103
 357 825 357 825 342.5 865 c 128,-1,104
 328 905 328 905 292 915 c 1,105,-1
 292 83 l 2,106,107
 292 80 292 80 279.5 74.5 c 128,-1,108
 267 69 267 69 261 62 c 1,109,110
 249 55 249 55 228 44 c 128,-1,111
 207 33 207 33 186 23 c 128,-1,112
 165 13 165 13 149 5.5 c 128,-1,113
 133 -2 133 -2 129.5 -2 c 128,-1,114
 126 -2 126 -2 115 -3.5 c 128,-1,115
 104 -5 104 -5 98 -5 c 256,116,117
 92 -5 92 -5 80.5 -3.5 c 128,-1,118
 69 -2 69 -2 62 -2 c 1,119,120
 59 11 59 11 56 49 c 128,-1,121
 53 87 53 87 49.5 127 c 128,-1,122
 46 167 46 167 45 203.5 c 128,-1,123
 44 240 44 240 44 257 c 0,124,125
 44 267 44 267 44 336.5 c 128,-1,126
 44 406 44 406 42 499 c 128,-1,127
 40 592 40 592 40 686.5 c 128,-1,128
 40 781 40 781 40 838 c 0,0,1
EndSplineSet
Validated: 1
EndChar

StartChar: O
Encoding: 79 79 27
Width: 1074
VWidth: 1597
Flags: W
LayerCount: 2
Fore
SplineSet
34 590 m 0,0,1
 34 613 34 613 26 675 c 0,2,3
 22 712 22 712 22 751 c 0,4,5
 22 777 22 777 24 804 c 0,6,7
 29 872 29 872 33 931 c 128,-1,8
 37 990 37 990 40 1016 c 1,9,10
 46 1032 46 1032 62 1084 c 128,-1,11
 78 1136 78 1136 84 1152 c 1,12,13
 140 1321 140 1321 148 1332 c 0,14,15
 255 1485 255 1485 268 1492 c 0,16,17
 354 1536 354 1536 432 1567.5 c 128,-1,18
 510 1599 510 1599 615 1599 c 0,19,20
 682 1599 682 1599 741.5 1587.5 c 128,-1,21
 801 1576 801 1576 862 1535 c 0,22,23
 900 1510 900 1510 928 1458 c 0,24,25
 956 1408 956 1408 980 1364 c 0,26,27
 1002 1328 1002 1328 1016 1268 c 0,28,29
 1023 1232 1023 1232 1032 1184 c 1,30,-1
 1041 855 l 1,31,32
 1043 854 1043 854 1043 848 c 0,33,34
 1043 822 1043 822 1012 700 c 0,35,36
 990 612 990 612 948 528.5 c 128,-1,37
 906 445 906 445 860 335 c 128,-1,38
 814 225 814 225 747 175 c 1,39,40
 702 143 702 143 664 111 c 128,-1,41
 626 79 626 79 582.5 53 c 128,-1,42
 539 27 539 27 492.5 11 c 128,-1,43
 446 -5 446 -5 389 -5 c 0,44,45
 302 -5 302 -5 237 64 c 128,-1,46
 172 133 172 133 127 228.5 c 128,-1,47
 82 324 82 324 58 425 c 128,-1,48
 34 526 34 526 34 590 c 0,0,1
300 679 m 1,49,50
 296 668 296 668 296 646 c 0,51,52
 296 610 296 610 308 548 c 0,53,54
 311 534 311 534 332 456 c 0,55,56
 338 436 338 436 401 361 c 0,57,58
 439 316 439 316 524 316 c 128,-1,59
 609 316 609 316 660 396 c 0,60,61
 716 484 716 484 732 528 c 0,62,63
 753 586 753 586 800 700 c 0,64,65
 815 735 815 735 816 840 c 0,66,67
 816 843 816 843 820 992 c 0,68,69
 822 1053 822 1053 822 1085 c 128,-1,70
 822 1117 822 1117 820 1120 c 0,71,72
 768 1226 768 1226 768 1232 c 0,73,74
 765 1280 765 1280 656 1336 c 1,75,76
 653 1339 653 1339 575 1339.5 c 128,-1,77
 497 1340 497 1340 488 1340 c 0,78,79
 476 1340 476 1340 434 1321 c 128,-1,80
 392 1302 392 1302 389 1299 c 1,81,82
 383 1296 383 1296 370 1284.5 c 128,-1,83
 357 1273 357 1273 342.5 1259 c 128,-1,84
 328 1245 328 1245 325.5 1225.5 c 128,-1,85
 323 1206 323 1206 320 1200 c 1,86,87
 317 1184 317 1184 302 1147.5 c 128,-1,88
 287 1111 287 1111 282.5 1064.5 c 128,-1,89
 278 1018 278 1018 274.5 974.5 c 128,-1,90
 271 931 271 931 271 915 c 0,91,92
 271 903 271 903 274.5 869.5 c 128,-1,93
 278 836 278 836 282.5 797.5 c 128,-1,94
 287 759 287 759 292 725 c 128,-1,95
 297 691 297 691 300 679 c 1,49,50
EndSplineSet
Validated: 1
EndChar

StartChar: P
Encoding: 80 80 28
Width: 1046
VWidth: 1597
Flags: W
LayerCount: 2
Fore
SplineSet
36 66 m 2,0,1
 36 76 36 76 36 86 c 1,2,3
 36 91 36 91 48 103 c 0,4,5
 54 109 54 109 58 112 c 1,6,7
 58 118 58 118 61.5 138 c 128,-1,8
 65 158 65 158 68 180 c 128,-1,9
 71 202 71 202 74 221 c 128,-1,10
 77 240 77 240 77 246 c 256,11,12
 77 252 77 252 83.5 258.5 c 128,-1,13
 90 265 90 265 94 265 c 1,14,15
 97 278 97 278 100.5 307 c 128,-1,16
 104 336 104 336 107 369.5 c 128,-1,17
 110 403 110 403 111 433.5 c 128,-1,18
 112 464 112 464 112 477 c 0,19,20
 112 506 112 506 115.5 578 c 128,-1,21
 119 650 119 650 122 728.5 c 128,-1,22
 125 807 125 807 128.5 877 c 128,-1,23
 132 947 132 947 132 975 c 1,24,-1
 140 1028 l 1,25,-1
 164 1374 l 1,26,27
 184 1413 184 1413 212 1444 c 0,28,29
 232 1466 232 1466 231 1470 c 1,30,31
 234 1476 234 1476 248.5 1490.5 c 128,-1,32
 263 1505 263 1505 277.5 1521 c 128,-1,33
 292 1537 292 1537 304.5 1550 c 128,-1,34
 317 1563 317 1563 324 1566 c 1,35,36
 342 1578 342 1578 364 1592 c 0,37,38
 399 1614 399 1614 408 1616 c 0,39,40
 428 1621 428 1621 468 1620 c 0,41,42
 492 1620 492 1620 516 1624 c 1,43,-1
 668 1624 l 1,44,45
 697 1614 697 1614 740 1608 c 0,46,47
 779 1603 779 1603 813.5 1584.5 c 128,-1,48
 848 1566 848 1566 897 1532 c 0,49,50
 951 1495 951 1495 975 1432 c 0,51,52
 981 1416 981 1416 986 1392 c 128,-1,53
 991 1368 991 1368 1010 1359 c 1,54,-1
 1010 1087 l 1,55,56
 994 1077 994 1077 980 1051.5 c 128,-1,57
 966 1026 966 1026 951.5 997.5 c 128,-1,58
 937 969 937 969 922.5 941.5 c 128,-1,59
 908 914 908 914 895 899 c 1,60,61
 892 892 892 892 868 877.5 c 128,-1,62
 844 863 844 863 841 856 c 1,63,64
 787 812 787 812 731 766 c 128,-1,65
 675 720 675 720 611 685 c 1,66,67
 608 685 608 685 585.5 678.5 c 128,-1,68
 563 672 563 672 553 668 c 1,69,70
 547 665 547 665 515 658.5 c 128,-1,71
 483 652 483 652 477 650 c 1,72,73
 474 647 474 647 467.5 638.5 c 128,-1,74
 461 630 461 630 458 630 c 1,75,76
 452 627 452 627 420 621 c 128,-1,77
 388 615 388 615 385 611 c 0,78,79
 373 601 373 601 367.5 564.5 c 128,-1,80
 362 528 362 528 360.5 483 c 128,-1,81
 359 438 359 438 357.5 393.5 c 128,-1,82
 356 349 356 349 346 327 c 0,83,84
 343 321 343 321 335 312.5 c 128,-1,85
 327 304 327 304 324 304 c 1,86,87
 324 294 324 294 322.5 270 c 128,-1,88
 321 246 321 246 319 219.5 c 128,-1,89
 317 193 317 193 312 168.5 c 128,-1,90
 307 144 307 144 304 135 c 1,91,92
 304 132 304 132 291.5 119 c 128,-1,93
 279 106 279 106 264.5 90 c 128,-1,94
 250 74 250 74 236 60 c 0,95,96
 227 51 227 51 211 39 c 0,97,98
 186 22 186 22 164 20 c 0,99,100
 139 18 139 18 112 16 c 0,101,102
 84 14 84 14 62 14 c 0,103,104
 60 14 60 14 59 14 c 0,105,106
 36 14 36 14 36 43 c 2,107,-1
 36 66 l 2,0,1
428 884 m 1,108,109
 465 869 465 869 501 869 c 0,110,111
 517 869 517 869 532 872 c 0,112,113
 594 887 594 887 600 892 c 0,114,115
 622 914 622 914 654 921 c 0,116,117
 671 925 671 925 680 931 c 0,118,119
 690 937 690 937 716 953 c 128,-1,120
 742 969 742 969 764 991 c 0,121,122
 786 1014 786 1014 802 1077 c 0,123,124
 814 1124 814 1124 814 1143 c 0,125,126
 814 1151 814 1151 812 1154 c 1,127,128
 805 1180 805 1180 795.5 1207 c 128,-1,129
 786 1234 786 1234 776.5 1258 c 128,-1,130
 767 1282 767 1282 757 1292 c 1,131,132
 738 1326 738 1326 668 1356 c 0,133,134
 586 1392 586 1392 526 1392 c 0,135,136
 498 1392 498 1392 476 1384 c 9,137,138
 417 1360 417 1360 384 1240 c 16,139,140
 352 1121 352 1121 352 1018 c 0,141,142
 352 980 352 980 356 944 c 0,143,-1
 428 884 l 1,108,109
EndSplineSet
Validated: 1
EndChar

StartChar: Q
Encoding: 81 81 29
Width: 1081
VWidth: 1597
Flags: W
LayerCount: 2
Fore
SplineSet
960 -79 m 0,0,1
 950 -79 950 -79 944 -76 c 1,2,3
 938 -70 938 -70 914 -47.5 c 128,-1,4
 890 -25 890 -25 884 -19 c 2,5,-1
 851 15 l 2,6,7
 828 39 828 39 828 42 c 1,8,-1
 804 70 l 2,9,10
 786 91 786 91 769 114.5 c 128,-1,11
 752 138 752 138 734 158 c 2,12,-1
 733 161 l 1,13,14
 696 134 696 134 663 106 c 0,15,16
 625 74 625 74 581.5 48.5 c 128,-1,17
 538 23 538 23 491.5 7 c 128,-1,18
 445 -9 445 -9 388 -9 c 0,19,20
 301 -9 301 -9 236 59.5 c 128,-1,21
 171 128 171 128 126 224 c 128,-1,22
 81 320 81 320 57.5 420.5 c 128,-1,23
 34 521 34 521 34 585 c 0,24,25
 34 608 34 608 37 666 c 128,-1,26
 40 724 40 724 45 792 c 2,27,-1
 54 918 l 2,28,29
 58 976 58 976 62 1001 c 1,30,31
 68 1017 68 1017 92 1060 c 128,-1,32
 116 1103 116 1103 122 1119 c 1,33,34
 167 1192 167 1192 210.5 1277 c 128,-1,35
 254 1362 254 1362 308.5 1432 c 128,-1,36
 363 1502 363 1502 436 1548 c 128,-1,37
 509 1594 509 1594 615 1594 c 0,38,39
 682 1594 682 1594 741 1583 c 128,-1,40
 800 1572 800 1572 861 1530 c 0,41,42
 899 1505 899 1505 926.5 1454 c 128,-1,43
 954 1403 954 1403 972.5 1350.5 c 128,-1,44
 991 1298 991 1298 1010.5 1269 c 128,-1,45
 1030 1240 1030 1240 1040 1208 c 1,46,-1
 1040 850 l 1,47,48
 1035 820 1035 820 1006 744 c 0,49,50
 978 668 978 668 942 554 c 0,51,52
 908 445 908 445 863 340 c 1,53,-1
 998 167 l 1,54,55
 1008 152 1008 152 1010 118 c 1,56,-1
 1010 95 l 2,57,58
 1010 72 1010 72 1008 46 c 0,59,60
 1002 -18 1002 -18 1002 -22 c 0,61,62
 1002 -79 1002 -79 960 -79 c 0,0,1
299 675 m 1,63,64
 325 599 325 599 336 556 c 0,65,66
 351 497 351 497 377.5 455 c 128,-1,67
 404 413 404 413 444 365 c 128,-1,68
 484 317 484 317 580 317 c 0,69,70
 607 317 607 317 629 325 c 1,71,-1
 620 335 l 2,72,73
 569 390 569 390 529 450 c 0,74,75
 491 509 491 509 481 572 c 0,76,77
 479 582 479 582 479 592 c 0,78,79
 479 647 479 647 526 710 c 1,80,81
 639 597 639 597 742 481 c 1,82,83
 750 504 750 504 754 528 c 0,84,85
 772 614 772 614 773.5 701.5 c 128,-1,86
 775 789 775 789 775 838 c 0,87,88
 775 931 775 931 768.5 1002.5 c 128,-1,89
 762 1074 762 1074 736.5 1130 c 128,-1,90
 711 1186 711 1186 656.5 1226 c 128,-1,91
 602 1266 602 1266 506 1295 c 1,92,93
 503 1298 503 1298 479.5 1299.5 c 128,-1,94
 456 1301 456 1301 445 1301 c 0,95,96
 433 1301 433 1301 412.5 1299.5 c 128,-1,97
 392 1298 392 1298 388 1295 c 0,98,99
 382 1292 382 1292 369 1280 c 128,-1,100
 356 1268 356 1268 342 1254 c 2,101,-1
 315 1228 l 2,102,103
 302 1216 302 1216 299 1208 c 1,104,105
 296 1192 296 1192 291 1149 c 2,106,-1
 281 1060 l 2,107,108
 276 1014 276 1014 273 970.5 c 128,-1,109
 270 927 270 927 270 911 c 0,110,111
 270 899 270 899 273 865 c 128,-1,112
 276 831 276 831 281 792.5 c 128,-1,113
 286 754 286 754 291 720.5 c 128,-1,114
 296 687 296 687 299 675 c 1,63,64
EndSplineSet
Validated: 1
EndChar

StartChar: R
Encoding: 82 82 30
Width: 1087
VWidth: 1597
Flags: W
LayerCount: 2
Fore
SplineSet
316 184 m 17,0,-1
 311 143 l 2,1,2
 308 125 308 125 280 103 c 0,3,4
 250 79 250 79 210.5 55 c 128,-1,5
 171 31 171 31 132.5 15 c 128,-1,6
 94 -1 94 -1 74 -1 c 2,7,-1
 62 -1 l 2,8,9
 59 -1 59 -1 55 2 c 0,10,11
 49 8 49 8 38 37 c 0,12,13
 29 60 29 60 29 73 c 0,14,15
 29 77 29 77 30 79 c 1,16,-1
 129 1377 l 2,17,18
 129 1380 129 1380 145 1396 c 0,19,20
 161 1412 161 1412 180.5 1432.5 c 128,-1,21
 200 1453 200 1453 220.5 1473.5 c 128,-1,22
 241 1494 241 1494 257 1504 c 1,23,24
 337 1571 337 1571 418.5 1590 c 128,-1,25
 500 1609 500 1609 601 1609 c 0,26,27
 697 1609 697 1609 775.5 1595 c 128,-1,28
 854 1581 854 1581 910 1542.5 c 128,-1,29
 966 1504 966 1504 996 1437 c 128,-1,30
 1026 1370 1026 1370 1026 1265 c 0,31,32
 1026 1201 1026 1201 1024.5 1164 c 128,-1,33
 1023 1127 1023 1127 998 1073 c 1,34,35
 978 1038 978 1038 945 1004 c 128,-1,36
 912 970 912 970 877 938.5 c 128,-1,37
 842 907 842 907 816 872 c 128,-1,38
 790 837 790 837 790 795 c 0,39,40
 790 712 790 712 823.5 624 c 128,-1,41
 857 536 857 536 895 459 c 0,42,43
 911 427 911 427 933.5 397 c 128,-1,44
 956 367 956 367 977 333.5 c 128,-1,45
 998 300 998 300 1012 264.5 c 128,-1,46
 1026 229 1026 229 1026 191 c 0,47,48
 1026 155 1026 155 1012 133.5 c 128,-1,49
 998 112 998 112 974 97.5 c 128,-1,50
 950 83 950 83 922.5 73 c 128,-1,51
 895 63 895 63 870 51 c 1,52,53
 867 51 867 51 857.5 39.5 c 128,-1,54
 848 28 848 28 845 28 c 1,55,56
 842 25 842 25 833.5 25 c 128,-1,57
 825 25 825 25 819 25 c 0,58,59
 780 25 780 25 748.5 71.5 c 128,-1,60
 717 118 717 118 691 177 c 128,-1,61
 665 236 665 236 646.5 295 c 128,-1,62
 628 354 628 354 615 383 c 1,63,64
 615 386 615 386 604 395.5 c 128,-1,65
 593 405 593 405 589 409 c 1,66,-1
 461 664 l 1,67,-1
 455 664 l 2,68,69
 452 664 452 664 448 668 c 1,70,-1
 436 664 l 1,71,72
 388 629 388 629 364 576 c 128,-1,73
 340 523 340 523 328.5 466 c 128,-1,74
 317 409 317 409 315.5 346 c 128,-1,75
 314 283 314 283 311 229 c 9,76,-1
 316 184 l 17,0,-1
385 1303 m 1,77,78
 385 1278 385 1278 380 1215.5 c 128,-1,79
 375 1153 375 1153 372 1084.5 c 128,-1,80
 369 1016 369 1016 364 953.5 c 128,-1,81
 359 891 359 891 359 868 c 2,82,-1
 359 785 l 1,83,84
 404 785 404 785 452 819 c 128,-1,85
 500 853 500 853 537 868 c 1,86,87
 578 888 578 888 623.5 907 c 128,-1,88
 669 926 669 926 707.5 953 c 128,-1,89
 746 980 746 980 769.5 1017 c 128,-1,90
 793 1054 793 1054 793 1108 c 0,91,92
 793 1178 793 1178 764.5 1229 c 128,-1,93
 736 1280 736 1280 689.5 1314 c 128,-1,94
 643 1348 643 1348 582.5 1364 c 128,-1,95
 522 1380 522 1380 461 1380 c 0,96,97
 426 1380 426 1380 410 1354.5 c 128,-1,98
 394 1329 394 1329 385 1303 c 1,77,78
EndSplineSet
Validated: 1
EndChar

StartChar: S
Encoding: 83 83 31
Width: 935
VWidth: 1597
Flags: W
LayerCount: 2
Fore
SplineSet
144 12 m 24,0,1
 91 27 91 27 29 93 c 1,2,3
 58 112 58 112 80.5 153 c 128,-1,4
 103 194 103 194 130 237.5 c 128,-1,5
 157 281 157 281 189 310 c 0,6,7
 211 331 211 331 241 331 c 0,8,9
 252 331 252 331 265 328 c 1,10,11
 281 325 281 325 294 312.5 c 128,-1,12
 307 300 307 300 323 285.5 c 128,-1,13
 339 271 339 271 363 260 c 128,-1,14
 387 249 387 249 425 249 c 0,15,16
 518 249 518 249 564 306.5 c 128,-1,17
 610 364 610 364 610 450 c 2,18,-1
 610 463 l 1,19,20
 607 472 607 472 596 494.5 c 128,-1,21
 585 517 585 517 572 543 c 128,-1,22
 559 569 559 569 548 591 c 128,-1,23
 537 613 537 613 531 622 c 1,24,25
 515 628 515 628 478 648 c 128,-1,26
 441 668 441 668 399.5 688.5 c 128,-1,27
 358 709 358 709 320 728 c 0,28,29
 281 747 281 747 265 753 c 1,30,31
 182 801 182 801 143.5 862 c 128,-1,32
 105 923 105 923 105 1026 c 0,33,34
 105 1099 105 1099 110 1145 c 128,-1,35
 115 1191 115 1191 129.5 1228 c 128,-1,36
 144 1265 144 1265 169.5 1300 c 128,-1,37
 195 1335 195 1335 239 1389 c 1,38,39
 287 1447 287 1447 330.5 1492 c 128,-1,40
 374 1537 374 1537 422 1567 c 128,-1,41
 470 1597 470 1597 529 1613 c 128,-1,42
 588 1629 588 1629 672 1629 c 0,43,44
 765 1629 765 1629 815.5 1594 c 128,-1,45
 866 1559 866 1559 901 1469 c 1,46,47
 905 1469 905 1469 905 1456 c 0,48,49
 905 1433 905 1433 880.5 1395 c 128,-1,50
 856 1357 856 1357 822.5 1319 c 128,-1,51
 789 1281 789 1281 755.5 1253.5 c 128,-1,52
 722 1226 722 1226 703 1226 c 0,53,54
 672 1226 672 1226 658.5 1243.5 c 128,-1,55
 645 1261 645 1261 630.5 1282 c 128,-1,56
 616 1303 616 1303 592.5 1320.5 c 128,-1,57
 569 1338 569 1338 515 1338 c 0,58,59
 476 1338 476 1338 441 1336.5 c 128,-1,60
 406 1335 406 1335 379 1322.5 c 128,-1,61
 352 1310 352 1310 334.5 1285.5 c 128,-1,62
 317 1261 317 1261 317 1217 c 0,63,64
 317 1214 317 1214 318.5 1199.5 c 128,-1,65
 320 1185 320 1185 320 1179 c 1,66,67
 326 1169 326 1169 345 1150 c 128,-1,68
 364 1131 364 1131 385 1110 c 128,-1,69
 406 1089 406 1089 425.5 1070 c 128,-1,70
 445 1051 445 1051 451 1044 c 1,71,72
 457 1044 457 1044 476 1035 c 128,-1,73
 495 1026 495 1026 505 1019 c 1,74,75
 511 1016 511 1016 540 1004.5 c 128,-1,76
 569 993 569 993 599.5 980.5 c 128,-1,77
 630 968 630 968 657 955 c 128,-1,78
 684 942 684 942 690 939 c 1,79,80
 729 910 729 910 762.5 867 c 128,-1,81
 796 824 796 824 821.5 773 c 128,-1,82
 847 722 847 722 861.5 667.5 c 128,-1,83
 876 613 876 613 876 569 c 0,84,85
 876 563 876 563 866 532 c 128,-1,86
 856 501 856 501 850 488 c 0,87,88
 808 405 808 405 773 334.5 c 128,-1,89
 738 264 738 264 693.5 205.5 c 128,-1,90
 649 147 649 147 585 99 c 128,-1,91
 521 51 521 51 425 12 c 1,92,93
 423 10 423 10 406 7 c 0,94,95
 380 3 380 3 372 -1 c 0,96,97
 351 -10 351 -10 339 -8 c 0,98,99
 288 0 288 0 236 0 c 0,100,101
 225 0 225 0 144 12 c 24,0,1
EndSplineSet
Validated: 1
EndChar

StartChar: T
Encoding: 84 84 32
Width: 1263
VWidth: 1597
Flags: W
LayerCount: 2
Fore
SplineSet
38 1392 m 1,0,1
 38 1446 38 1446 84 1492 c 128,-1,2
 130 1538 130 1538 179 1555 c 1,3,4
 444 1584 444 1584 717 1601 c 128,-1,5
 990 1618 990 1618 1259 1618 c 1,6,7
 1259 1538 1259 1538 1212.5 1491.5 c 128,-1,8
 1166 1445 1166 1445 1097 1419.5 c 128,-1,9
 1028 1394 1028 1394 953 1383.5 c 128,-1,10
 878 1373 878 1373 821 1363 c 1,11,-1
 821 1088 l 1,12,-1
 816 1036 l 1,13,-1
 812 996 l 0,14,15
 807 956 807 956 802 898.5 c 128,-1,16
 797 841 797 841 794 780.5 c 128,-1,17
 791 720 791 720 787 681 c 1,18,-1
 787 598 l 2,19,20
 787 569 787 569 782.5 499 c 128,-1,21
 778 429 778 429 775 349 c 128,-1,22
 772 269 772 269 750 212 c 128,-1,23
 728 155 728 155 728 126 c 1,24,25
 718 100 718 100 691 68.5 c 128,-1,26
 664 37 664 37 630.5 10 c 128,-1,27
 597 -17 597 -17 560 -35 c 128,-1,28
 523 -53 523 -53 498 -53 c 1,29,30
 498 298 498 298 530 642 c 128,-1,31
 562 986 562 986 562 1334 c 1,32,-1
 80 1316 l 0,33,-1
 38 1392 l 1,0,1
EndSplineSet
Validated: 1
EndChar

StartChar: U
Encoding: 85 85 33
Width: 1012
VWidth: 1597
Flags: W
LayerCount: 2
Fore
SplineSet
26 327 m 0,0,1
 26 585 26 585 43 840 c 0,2,3
 56 1032 56 1032 56 1226 c 0,4,5
 56 1291 56 1291 55 1356 c 1,6,7
 74 1420 74 1420 115.5 1472 c 128,-1,8
 157 1524 157 1524 207 1563 c 1,9,-1
 246 1537 l 1,10,-1
 246 969 l 1,11,-1
 252 904 l 1,12,-1
 260 852 l 1,13,-1
 259 400 l 1,14,15
 275 391 275 391 284.5 373 c 128,-1,16
 294 355 294 355 302 337.5 c 128,-1,17
 310 320 310 320 324.5 309 c 128,-1,18
 339 298 339 298 364 298 c 0,19,20
 479 298 479 298 549.5 363.5 c 128,-1,21
 620 429 620 429 658.5 523.5 c 128,-1,22
 697 618 697 618 717 714 c 128,-1,23
 737 810 737 810 740 896 c 1,24,-1
 751 943 l 1,25,-1
 756 969 l 0,26,27
 761 995 761 995 764 1028 c 128,-1,28
 767 1061 767 1061 772 1095 c 128,-1,29
 777 1129 777 1129 777 1151 c 1,30,31
 780 1211 780 1211 781.5 1288 c 128,-1,32
 783 1365 783 1365 799 1433.5 c 128,-1,33
 815 1502 815 1502 858 1548 c 128,-1,34
 901 1594 901 1594 991 1594 c 1,35,36
 991 1489 991 1489 986 1395 c 128,-1,37
 981 1301 981 1301 975 1208.5 c 128,-1,38
 969 1116 969 1116 957.5 1020 c 128,-1,39
 946 924 946 924 934 815 c 1,40,41
 918 710 918 710 853.5 566 c 128,-1,42
 789 422 789 422 691.5 294.5 c 128,-1,43
 594 167 594 167 476 77.5 c 128,-1,44
 358 -12 358 -12 233 -12 c 0,45,46
 160 -12 160 -12 120 21.5 c 128,-1,47
 80 55 80 55 58 106 c 128,-1,48
 36 157 36 157 31 216.5 c 128,-1,49
 26 276 26 276 26 327 c 0,0,1
EndSplineSet
Validated: 1
EndChar

StartChar: V
Encoding: 86 86 34
Width: 1079
VWidth: 1597
Flags: W
LayerCount: 2
Fore
SplineSet
836 1472 m 1,0,1
 840 1500 840 1500 870.5 1550.5 c 128,-1,2
 901 1601 901 1601 941 1615 c 1,3,4
 951 1620 951 1620 974 1620 c 0,5,6
 984 1620 984 1620 996 1619 c 0,7,8
 1038 1616 1038 1616 1048 1616 c 1,9,10
 1048 1596 1048 1596 1047 1570 c 128,-1,11
 1046 1544 1046 1544 1042 1510.5 c 128,-1,12
 1038 1477 1038 1477 1033 1440.5 c 128,-1,13
 1028 1404 1028 1404 1012 1380 c 1,14,15
 1006 1348 1006 1348 984 1300 c 0,16,17
 949 1226 949 1226 942 1210 c 0,18,19
 930 1182 930 1182 909 1105 c 0,20,21
 894 1051 894 1051 890 1031 c 1,22,23
 874 991 874 991 874 990 c 0,24,25
 877 988 877 988 877 983 c 0,26,27
 877 966 877 966 852 912 c 0,28,29
 818 838 818 838 816 832 c 0,30,31
 771 723 771 723 764 696 c 0,32,33
 760 686 760 686 740 618 c 0,34,35
 738 610 738 610 711 546 c 1,36,37
 707 542 707 542 692 454 c 0,38,39
 682 394 682 394 680 394 c 0,40,41
 679 394 679 394 680 408 c 1,42,-1
 610 161 l 2,43,44
 586 78 586 78 518 31 c 0,45,46
 442 -21 442 -21 368 -21 c 0,47,48
 358 -21 358 -21 324 -17.5 c 128,-1,49
 290 -14 290 -14 280 -14 c 1,50,51
 275 -13 275 -13 220 196 c 24,52,53
 183 338 183 338 174 469 c 0,54,55
 165 603 165 603 147 687.5 c 128,-1,56
 129 772 129 772 122 809 c 1,57,58
 115 826 115 826 108 869.5 c 128,-1,59
 101 913 101 913 75 930 c 1,60,61
 71 944 71 944 64.5 979 c 128,-1,62
 58 1014 58 1014 49.5 1054.5 c 128,-1,63
 41 1095 41 1095 34 1130.5 c 128,-1,64
 27 1166 27 1166 24 1183 c 1,65,66
 24 1190 24 1190 22 1244 c 128,-1,67
 20 1298 20 1298 20 1324 c 0,68,69
 20 1365 20 1365 22 1415.5 c 128,-1,70
 24 1466 24 1466 35.5 1511.5 c 128,-1,71
 47 1557 47 1557 77.5 1587.5 c 128,-1,72
 108 1618 108 1618 165 1618 c 0,73,74
 192 1618 192 1618 210.5 1614.5 c 128,-1,75
 229 1611 229 1611 253 1590 c 1,76,77
 248 1589 248 1589 248 1573 c 0,78,79
 248 1546 248 1546 263 1474 c 0,80,81
 278 1401 278 1401 293 1320 c 128,-1,82
 308 1239 308 1239 327.5 1174 c 128,-1,83
 347 1109 347 1109 355 1079 c 1,84,85
 362 1062 362 1062 368 1015 c 128,-1,86
 374 968 374 968 393 913 c 1,87,-1
 483 573 l 1,88,89
 499 596 499 596 504 611 c 128,-1,90
 509 626 509 626 512.5 641.5 c 128,-1,91
 516 657 516 657 519.5 675.5 c 128,-1,92
 523 694 523 694 534 725 c 1,93,94
 534 728 534 728 545.5 736 c 128,-1,95
 557 744 557 744 557 748 c 1,96,97
 560 755 560 755 568.5 771.5 c 128,-1,98
 577 788 577 788 585.5 808.5 c 128,-1,99
 594 829 594 829 601 847.5 c 128,-1,100
 608 866 608 866 610 876 c 0,101,102
 614 889 614 889 626 926.5 c 128,-1,103
 638 964 638 964 649.5 1004 c 128,-1,104
 661 1044 661 1044 671.5 1079.5 c 128,-1,105
 682 1115 682 1115 685 1133 c 1,106,107
 712 1146 712 1146 722 1178 c 128,-1,108
 732 1210 732 1210 739 1233 c 1,109,110
 739 1240 739 1240 747.5 1265 c 128,-1,111
 756 1290 756 1290 764 1320.5 c 128,-1,112
 772 1351 772 1351 802.5 1408.5 c 128,-1,113
 833 1466 833 1466 836 1472 c 1,0,1
EndSplineSet
Validated: 1
EndChar

StartChar: W
Encoding: 87 87 35
Width: 1828
VWidth: 1597
Flags: W
LayerCount: 2
Fore
SplineSet
304 1256 m 0,0,1
 387 696 l 0,2,3
 386 708 386 708 402 636 c 0,4,5
 412 593 412 593 412 570 c 1,6,7
 447 632 447 632 465 697 c 128,-1,8
 483 762 483 762 515 824 c 1,9,10
 515 827 515 827 526 836.5 c 128,-1,11
 537 846 537 846 540 849 c 1,12,13
 544 855 544 855 553.5 874.5 c 128,-1,14
 563 894 563 894 566 900 c 1,15,16
 581 909 581 909 614 998 c 0,17,18
 643 1075 643 1075 678 1148 c 1,19,20
 713 1212 713 1212 729.5 1287.5 c 128,-1,21
 746 1363 746 1363 781 1427 c 1,22,23
 781 1431 781 1431 790 1440 c 128,-1,24
 799 1449 799 1449 806 1452 c 0,25,26
 832 1468 832 1468 849.5 1487.5 c 128,-1,27
 867 1507 867 1507 884.5 1523 c 128,-1,28
 902 1539 902 1539 924.5 1548.5 c 128,-1,29
 947 1558 947 1558 982 1558 c 0,30,31
 989 1558 989 1558 1008 1556.5 c 128,-1,32
 1027 1555 1027 1555 1033 1555 c 1,33,-1
 1124 647 l 1,34,35
 1140 637 1140 637 1150 622 c 1,36,37
 1153 612 1153 612 1156 591 c 128,-1,38
 1159 570 1159 570 1163.5 546.5 c 128,-1,39
 1168 523 1168 523 1171.5 500 c 128,-1,40
 1175 477 1175 477 1175 468 c 1,41,42
 1262 669 1262 669 1319 837 c 128,-1,43
 1376 1005 1376 1005 1415 1225 c 1,44,45
 1431 1234 1431 1234 1440 1250 c 1,46,47
 1473 1324 1473 1324 1493.5 1386.5 c 128,-1,48
 1514 1449 1514 1449 1544.5 1495.5 c 128,-1,49
 1575 1542 1575 1542 1628 1568 c 128,-1,50
 1681 1594 1681 1594 1777 1594 c 1,51,52
 1777 1575 1777 1575 1775.5 1546 c 128,-1,53
 1774 1517 1774 1517 1769 1488 c 128,-1,54
 1764 1459 1764 1459 1753 1435 c 128,-1,55
 1742 1411 1742 1411 1719 1402 c 1,56,-1
 1604 952 l 1,57,-1
 1582 926 l 1,58,-1
 1453 545 l 1,59,60
 1428 529 1428 529 1418.5 497 c 128,-1,61
 1409 465 1409 465 1402 442 c 1,62,63
 1377 369 1377 369 1348 287 c 128,-1,64
 1319 205 1319 205 1274 137.5 c 128,-1,65
 1229 70 1229 70 1162 27 c 128,-1,66
 1095 -16 1095 -16 995 -16 c 0,67,68
 944 -16 944 -16 921.5 6.5 c 128,-1,69
 899 29 899 29 896 87 c 1,70,-1
 845 747 l 1,71,72
 838 750 838 750 828.5 759.5 c 128,-1,73
 819 769 819 769 819 776 c 1,74,75
 816 785 816 785 813 806 c 128,-1,76
 810 827 810 827 805 851 c 128,-1,77
 800 875 800 875 797 895.5 c 128,-1,78
 794 916 794 916 794 926 c 1,79,80
 768 853 768 853 732.5 795 c 128,-1,81
 697 737 697 737 666 673 c 0,82,83
 627 593 627 593 592 517.5 c 128,-1,84
 557 442 557 442 515 365 c 1,85,86
 486 314 486 314 458.5 248.5 c 128,-1,87
 431 183 431 183 396 125.5 c 128,-1,88
 361 68 361 68 311 28 c 128,-1,89
 261 -12 261 -12 182 -12 c 0,90,91
 179 -12 179 -12 170.5 -3 c 128,-1,92
 162 6 162 6 160 12 c 0,93,94
 154 25 154 25 143 65 c 0,95,96
 134 99 134 99 133 112 c 2,97,-1
 56 1055 l 1,98,-1
 44 1174 l 1,99,-1
 44 1452 l 2,100,101
 44 1455 44 1455 61.5 1474.5 c 128,-1,102
 79 1494 79 1494 102.5 1518 c 128,-1,103
 126 1542 126 1542 152 1566 c 128,-1,104
 178 1590 178 1590 194 1606 c 1,105,106
 204 1612 204 1612 232 1622 c 0,107,108
 270 1637 270 1637 271 1633 c 0,109,110
 292 1404 292 1404 304 1256 c 0,0,1
EndSplineSet
Validated: 1
EndChar

StartChar: X
Encoding: 88 88 36
Width: 1098
VWidth: 1597
Flags: W
LayerCount: 2
Fore
SplineSet
1002 1275 m 128,-1,1
 1002 1271 1002 1271 1000 1271 c 0,2,3
 998 1272 998 1272 998 1268 c 1,4,5
 995 1264 995 1264 995 1260 c 1,6,-1
 726 744 l 1,7,-1
 819 590 l 1,8,-1
 916 424 l 2,9,10
 958 352 958 352 981 320 c 1,11,12
 976 309 976 309 976 296 c 0,13,14
 976 273 976 273 992 243 c 0,15,16
 1016 195 1016 195 1038 140 c 0,17,18
 1061 81 1061 81 1061 27 c 0,19,20
 1061 -26 1061 -26 1002 -60 c 0,21,22
 988 -67 988 -67 984 -71 c 0,23,24
 981 -74 981 -74 977 -74 c 1,25,-1
 917 -14 l 2,26,27
 912 -10 912 -10 913 -7 c 1,28,29
 910 -3 910 -3 909.5 -1.5 c 128,-1,30
 909 0 909 0 906 4 c 2,31,-1
 895 14 l 1,32,33
 757 260 757 260 606 502 c 1,34,35
 459 213 459 213 285 -57 c 1,36,37
 252 -67 252 -67 222 -101 c 2,38,-1
 160 -170 l 2,39,40
 128 -206 128 -206 94 -227 c 0,41,42
 75 -239 75 -239 57 -239 c 0,43,44
 42 -239 42 -239 27 -231 c 1,45,46
 -4 -218 -4 -218 -4 -193 c 2,47,-1
 -4 -184 l 1,48,49
 2 -152 2 -152 19 -113 c 1,50,51
 19 -110 19 -110 23 -104.5 c 128,-1,52
 27 -99 27 -99 30 -92 c 1,53,54
 35 -85 35 -85 41 -74 c 1,55,56
 44 -60 44 -60 66 -18 c 2,57,-1
 116 73 l 1,58,-1
 166 160 l 2,59,60
 188 199 188 199 197 210 c 1,61,-1
 254 322 l 1,62,-1
 342 494 l 1,63,-1
 446 694 l 1,64,-1
 464 728 l 1,65,66
 288 1011 288 1011 147 1310 c 1,67,68
 152 1325 152 1325 152 1343 c 0,69,70
 152 1362 152 1362 146 1386 c 0,71,72
 134 1430 134 1430 119.5 1476.5 c 128,-1,73
 105 1523 105 1523 105 1562 c 128,-1,74
 105 1601 105 1601 136 1622 c 0,75,76
 150 1631 150 1631 163 1631 c 128,-1,77
 176 1631 176 1631 189 1622 c 0,78,79
 214 1604 214 1604 236 1569 c 2,80,-1
 264 1526 l 1,81,82
 272 1516 272 1516 294 1475 c 2,83,-1
 344 1386 l 1,84,-1
 394 1299 l 2,85,86
 418 1260 418 1260 420 1250 c 1,87,-1
 486 1142 l 1,88,-1
 585 976 l 1,89,-1
 589 970 l 1,90,-1
 636 1062 l 1,91,-1
 693 1172 l 1,92,93
 725 1176 725 1176 753.5 1222 c 128,-1,94
 782 1268 782 1268 816 1314 c 128,-1,95
 850 1360 850 1360 896 1388 c 0,96,97
 919 1402 919 1402 946.5 1402 c 128,-1,98
 974 1402 974 1402 1006 1388 c 0,99,100
 1013 1384 1013 1384 1016.5 1384 c 128,-1,101
 1020 1384 1020 1384 1023 1381 c 2,102,-1
 1030 1374 l 1,103,-1
 1020 1338 l 2,104,105
 1016 1324 1016 1324 1012.5 1308 c 128,-1,106
 1009 1292 1009 1292 1009 1285 c 1,107,-1
 1006 1282 l 1,108,109
 1006 1279 1006 1279 1004 1279 c 128,-1,0
 1002 1279 1002 1279 1002 1275 c 128,-1,1
EndSplineSet
Validated: 1
EndChar

StartChar: Y
Encoding: 89 89 37
Width: 936
VWidth: 1597
Flags: W
LayerCount: 2
Fore
SplineSet
512 1096 m 0,0,1
 540 1132 540 1132 556 1200 c 1,2,3
 568 1240 568 1240 584 1288 c 0,4,5
 587 1296 587 1296 604 1342 c 0,6,7
 610 1378 610 1378 644 1422 c 0,8,9
 672 1457 672 1457 695 1498 c 1,10,11
 720 1543 720 1543 723 1546 c 0,12,13
 761 1591 761 1591 788 1604 c 128,-1,14
 815 1617 815 1617 835 1617 c 0,15,16
 861 1617 861 1617 876 1596 c 0,17,18
 906 1555 906 1555 910 1527 c 0,19,20
 911 1520 911 1520 911 1513 c 0,21,22
 911 1478 911 1478 888 1436 c 1,23,24
 872 1388 872 1388 852 1338 c 128,-1,25
 832 1288 832 1288 800 1247.5 c 128,-1,26
 768 1207 768 1207 752 1151 c 128,-1,27
 736 1095 736 1095 717 1048 c 1,28,29
 717 1044 717 1044 706 1035.5 c 128,-1,30
 695 1027 695 1027 695 1025 c 1,31,32
 688 1021 688 1021 680 1005.5 c 128,-1,33
 672 990 672 990 666 986 c 1,34,35
 662 980 662 980 653 959 c 128,-1,36
 644 938 644 938 630.5 914 c 128,-1,37
 617 890 617 890 606 868 c 128,-1,38
 595 846 595 846 592 842 c 1,39,40
 592 839 592 839 589 823 c 128,-1,41
 586 807 586 807 581 787.5 c 128,-1,42
 576 768 576 768 573 752 c 0,43,-1
 569 736 l 1,44,45
 553 692 553 692 530 602 c 0,46,47
 518 552 518 552 513 542 c 1,48,49
 509 536 509 536 506 512 c 128,-1,50
 503 488 503 488 500 460 c 128,-1,51
 497 432 497 432 495 407 c 0,52,53
 493 383 493 383 493 379 c 1,54,55
 461 303 461 303 435 250 c 128,-1,56
 409 197 409 197 390 136.5 c 128,-1,57
 371 76 371 76 326 20 c 0,58,59
 282 -36 282 -36 176 -94 c 1,60,61
 138 -43 138 -43 109 -1 c 128,-1,62
 80 41 80 41 68 73 c 0,63,64
 56 104 56 104 68 132 c 0,65,66
 79 158 79 158 124 185 c 0,67,68
 134 191 134 191 150 217 c 128,-1,69
 166 243 166 243 185 273.5 c 128,-1,70
 204 304 204 304 221.5 329.5 c 128,-1,71
 239 355 239 355 249 362 c 1,72,73
 288 435 288 435 289.5 523.5 c 128,-1,74
 291 612 291 612 291 656 c 1,75,76
 268 775 268 775 220 895 c 128,-1,77
 172 1015 172 1015 137 1130 c 1,78,79
 131 1133 131 1133 113 1178 c 128,-1,80
 95 1223 95 1223 77.5 1277.5 c 128,-1,81
 60 1332 60 1332 47 1383 c 0,82,83
 34 1435 34 1435 34 1448 c 0,84,85
 34 1492 34 1492 76 1544 c 0,86,87
 94 1566 94 1566 156 1566 c 0,88,89
 191 1566 191 1566 223.5 1558 c 128,-1,90
 256 1550 256 1550 281 1521 c 1,91,92
 320 1408 320 1408 344 1316 c 1,93,94
 398 1166 398 1166 404 1127 c 0,95,96
 414 1054 414 1054 416 1048 c 0,97,98
 437 968 437 968 452 936 c 0,99,100
 501 1077 501 1077 512 1096 c 0,0,1
EndSplineSet
Validated: 1
EndChar

StartChar: Z
Encoding: 90 90 38
Width: 1266
VWidth: 1597
Flags: W
LayerCount: 2
Fore
SplineSet
37 78 m 1,0,1
 40 97 40 97 37 123 c 128,-1,2
 34 149 34 149 31 165 c 1,3,4
 27 175 27 175 28 181 c 1,5,6
 34 200 34 200 61 227 c 128,-1,7
 88 254 88 254 111 274 c 1,8,-1
 133 289 l 1,9,10
 143 299 143 299 166 325 c 128,-1,11
 189 351 189 351 216 381 c 128,-1,12
 243 411 243 411 263.5 437 c 128,-1,13
 284 463 284 463 290 469 c 1,14,15
 316 504 316 504 380.5 584.5 c 128,-1,16
 445 665 445 665 512 748 c 1,17,18
 580 838 580 838 640.5 918 c 128,-1,19
 701 998 701 998 732 1037 c 0,20,21
 748 1056 748 1056 766 1089.5 c 128,-1,22
 784 1123 784 1123 800.5 1161.5 c 128,-1,23
 817 1200 817 1200 826 1238 c 0,24,25
 834 1276 834 1276 838 1303 c 1,26,27
 678 1303 678 1303 513 1306 c 128,-1,28
 348 1309 348 1309 185 1312 c 1,29,-1
 146 1350 l 1,30,-1
 153 1405 l 1,31,32
 153 1411 153 1411 151.5 1424 c 128,-1,33
 150 1437 150 1437 153 1450 c 1,34,35
 152 1461 152 1461 152 1471 c 0,36,37
 152 1500 152 1500 158 1530 c 0,38,39
 166 1572 166 1572 191 1584 c 1,40,41
 248 1588 248 1588 297 1588 c 0,42,43
 304 1588 304 1588 310 1588 c 0,44,45
 364 1588 364 1588 425 1587 c 1,46,47
 621 1593 621 1593 809.5 1604.5 c 128,-1,48
 998 1616 998 1616 1191 1636 c 1,49,50
 1203 1630 1203 1630 1223 1620 c 128,-1,51
 1243 1610 1243 1610 1249 1597 c 1,52,53
 1251 1589 1251 1589 1251 1576 c 0,54,55
 1251 1562 1251 1562 1249 1544 c 0,56,57
 1245 1508 1245 1508 1243 1498 c 1,58,-1
 1239 1450 l 1,59,60
 1239 1417 1239 1417 1234 1396.5 c 128,-1,61
 1229 1376 1229 1376 1207 1350 c 1,62,-1
 714 707 l 1,63,64
 715 702 715 702 715 696 c 0,65,66
 715 671 715 671 694 641 c 0,67,68
 668 604 668 604 646 576 c 0,69,70
 640 569 640 569 633.5 558 c 128,-1,71
 627 547 627 547 621 540 c 1,72,73
 615 531 615 531 601.5 507 c 128,-1,74
 588 483 588 483 573 456 c 1,75,76
 563 437 563 437 547 411.5 c 128,-1,77
 531 386 531 386 520 366.5 c 128,-1,78
 509 347 509 347 505.5 337.5 c 128,-1,79
 502 328 502 328 512 345 c 1,80,-1
 509 287 l 1,81,82
 643 299 643 299 782 312 c 0,83,84
 922 326 922 326 1056 339 c 1,85,86
 1059 335 1059 335 1062.5 328.5 c 128,-1,87
 1066 322 1066 322 1072 316 c 1,88,-1
 1072 296 l 1,89,90
 1068 280 1068 280 1068.5 261 c 128,-1,91
 1069 242 1069 242 1069 232 c 1,92,93
 1063 187 1063 187 1040.5 115 c 128,-1,94
 1018 43 1018 43 973 8 c 1,95,96
 944 8 944 8 880.5 5 c 128,-1,97
 817 2 817 2 736.5 -3.5 c 128,-1,98
 656 -9 656 -9 569.5 -13 c 128,-1,99
 483 -17 483 -17 416 -21 c 1,100,101
 381 -21 381 -21 352 -22.5 c 128,-1,102
 323 -24 323 -24 303 -27 c 1,103,-1
 255 -27 l 2,104,105
 230 -27 230 -27 201 -30.5 c 128,-1,106
 172 -34 172 -34 160 -34 c 0,107,108
 144 -34 144 -34 119.5 -32 c 128,-1,109
 95 -30 95 -30 76 -30 c 2,110,-1
 66 -30 l 1,111,112
 56 -24 56 -24 50 -16.5 c 128,-1,113
 44 -9 44 -9 34 2 c 1,114,-1
 34 8 l 1,115,116
 38 20 38 20 37.5 43 c 128,-1,117
 37 66 37 66 37 78 c 1,0,1
EndSplineSet
Validated: 1
EndChar

StartChar: asciicircum
Encoding: 94 94 39
Width: 748
VWidth: 1597
Flags: W
LayerCount: 2
Fore
SplineSet
37 1270 m 16,0,1
 35 1276 35 1276 35 1284 c 0,2,3
 35 1316 35 1316 75 1376 c 8,4,5
 78 1381 78 1381 157 1448 c 24,6,7
 236 1516 236 1516 243 1520 c 24,8,9
 304 1555 304 1555 368 1568 c 16,10,11
 408 1576 408 1576 434 1576 c 128,-1,12
 460 1576 460 1576 472 1568 c 0,13,14
 516 1536 516 1536 555 1506 c 0,15,16
 557 1506 557 1506 608 1448 c 24,17,18
 665 1384 665 1384 670 1376 c 24,19,20
 713 1313 713 1313 714 1294 c 0,21,22
 714 1266 714 1266 670 1244 c 0,23,24
 615 1216 615 1216 581 1216 c 0,25,26
 572 1216 572 1216 565 1218 c 8,27,28
 557 1220 557 1220 474 1290 c 24,29,30
 376 1373 376 1373 378 1376 c 24,31,32
 377 1376 377 1376 315 1318 c 24,33,-1
 229 1237 l 16,34,35
 181 1207 181 1207 149 1207 c 0,36,37
 143 1207 143 1207 138 1208 c 8,38,39
 55 1222 55 1222 37 1270 c 16,0,1
EndSplineSet
Validated: 33
EndChar

StartChar: underscore
Encoding: 95 95 40
Width: 904
VWidth: 1597
Flags: W
LayerCount: 2
Fore
SplineSet
41 -63 m 8,0,1
 81 -40 81 -40 157 -31 c 24,2,3
 188 -27 188 -27 349 -27 c 16,4,5
 364 -27 364 -27 378 -27 c 0,6,7
 509 -27 509 -27 575 -30 c 8,8,9
 641 -30 641 -30 707 -30 c 24,10,-1
 835 -30 l 24,11,12
 885 -45 885 -45 891 -86 c 16,13,14
 892 -91 892 -91 892 -95 c 0,15,16
 892 -129 892 -129 855 -166 c 8,17,18
 841 -180 841 -180 791 -186 c 16,19,20
 781 -187 781 -187 758 -187 c 128,-1,21
 735 -187 735 -187 699 -186 c 8,22,23
 605 -192 605 -192 511 -198 c 24,24,-1
 273 -195 l 16,25,26
 225 -197 225 -197 187.5 -197 c 128,-1,27
 150 -197 150 -197 121 -195 c 8,28,29
 61 -191 61 -191 45 -179 c 24,30,31
 13 -155 13 -155 13 -112 c 0,32,33
 13 -79 13 -79 41 -63 c 8,0,1
EndSplineSet
Validated: 1
EndChar

StartChar: a
Encoding: 97 97 41
Width: 972
VWidth: 1597
Flags: W
LayerCount: 2
Fore
SplineSet
243 -0 m 0,0,1
 206 -20 206 -20 163 -21 c 2,2,-1
 155 -21 l 2,3,4
 152 -21 152 -21 152 -18 c 1,5,6
 138 -7 138 -7 118.5 10.5 c 128,-1,7
 99 28 99 28 79.5 49.5 c 128,-1,8
 60 71 60 71 44 87 c 128,-1,9
 28 103 28 103 28 107 c 1,10,11
 24 110 24 110 20.5 151 c 128,-1,12
 17 192 17 192 17 213 c 0,13,14
 18 227 18 227 16 263 c 0,15,16
 16 273 16 273 15 280 c 0,17,18
 15 302 15 302 18 310 c 1,19,20
 25 313 25 313 32 335.5 c 128,-1,21
 39 358 39 358 39 366 c 1,22,23
 54 402 54 402 54 405 c 0,24,25
 66 447 66 447 76 476 c 0,26,27
 96 546 96 546 111 579 c 0,28,29
 134 628 134 628 150 669 c 0,30,31
 176 734 176 734 207 771 c 0,32,33
 323 908 323 908 369 936 c 0,34,35
 452 986 452 986 564 1022 c 0,36,37
 663 1054 663 1054 734 1062 c 1,38,39
 749 1062 749 1062 807.5 1049.5 c 128,-1,40
 866 1037 866 1037 891 1030 c 1,41,42
 898 1026 898 1026 908.5 1015.5 c 128,-1,43
 919 1005 919 1005 923 998 c 1,44,45
 923 984 923 984 917.5 950 c 128,-1,46
 912 916 912 916 906.5 877 c 128,-1,47
 901 838 901 838 897.5 802.5 c 128,-1,48
 894 767 894 767 891 753 c 1,49,50
 887 742 887 742 878 696 c 128,-1,51
 869 650 869 650 847.5 549.5 c 128,-1,52
 826 449 826 449 819 429 c 0,53,-1
 804 384 l 0,54,55
 792 338 792 338 793 336 c 0,56,57
 801 314 801 314 798 300 c 0,58,59
 797 295 797 295 795 267 c 0,60,61
 794 252 794 252 796 232 c 0,62,-1
 803 167 l 0,63,64
 805 146 805 146 798 135 c 1,65,66
 780 89 780 89 757 76 c 128,-1,67
 734 63 734 63 702 39 c 1,68,69
 652 16 652 16 654 0 c 0,70,71
 614 -18 l 0,72,73
 599 -25 599 -25 564 -32 c 1,74,75
 550 -36 550 -36 535 -36 c 1,76,-1
 537 144 l 1,77,78
 527 148 527 148 514 148 c 0,79,80
 491 148 491 148 462 134 c 0,81,82
 407 109 407 109 405 108 c 0,83,84
 327 47 327 47 243 -0 c 0,0,1
656 772 m 1,85,86
 663 812 663 812 663 824 c 1,87,88
 560 824 560 824 491 790 c 128,-1,89
 422 756 422 756 379.5 697.5 c 128,-1,90
 337 639 337 639 319 557.5 c 128,-1,91
 301 476 301 476 301 380 c 0,92,93
 301 373 301 373 300 355 c 0,94,95
 299 346 299 346 299 336 c 128,-1,96
 299 326 299 326 300 316 c 0,97,98
 302 295 302 295 308.5 279 c 128,-1,99
 315 263 315 263 333 259 c 1,100,101
 337 259 337 259 341 259 c 0,102,103
 457 259 457 259 491 307 c 0,104,105
 507 330 507 330 552 398 c 0,106,107
 581 442 581 442 583 484 c 1,108,109
 590 484 590 484 599 534 c 0,110,111
 599 535 599 535 606 564 c 0,112,113
 615 603 615 603 616 604 c 0,114,115
 631 616 631 616 656 772 c 1,85,86
EndSplineSet
Validated: 1
EndChar

StartChar: b
Encoding: 98 98 42
Width: 1056
VWidth: 1597
Flags: W
HStem: 30 275<411.189 514.785> 867 245<627.409 800.665>
VStem: 90 260<449.065 557.654> 812 243<666.882 856.826> 1047 5<839 904> 1052 3<839 904>
LayerCount: 2
Fore
SplineSet
1032 843 m 0,0,1
 1032 730 1032 730 988 663 c 0,2,3
 973 638 973 638 968 618 c 0,4,5
 966 610 966 610 947 572 c 1,6,7
 940 567 940 567 931.5 547 c 128,-1,8
 923 527 923 527 916 522 c 1,9,10
 915 517 915 517 900 492.5 c 128,-1,11
 885 468 885 468 878 464 c 1,12,13
 858 429 858 429 834 393 c 1,14,-1
 808 352 l 2,15,16
 789 322 789 322 767 299.5 c 128,-1,17
 745 277 745 277 736.5 264.5 c 128,-1,18
 728 252 728 252 713 235.5 c 128,-1,19
 698 219 698 219 663.5 186.5 c 128,-1,20
 629 154 629 154 628 149 c 1,21,22
 555 98 555 98 521 71.5 c 128,-1,23
 487 45 487 45 464.5 45 c 128,-1,24
 442 45 442 45 412 46 c 128,-1,25
 382 47 382 47 380 62 c 1,26,27
 348 93 348 93 345 104 c 128,-1,28
 342 115 342 115 312 137 c 1,29,30
 292 149 292 149 273 162 c 1,31,-1
 218 115 l 1,32,-1
 164 25 l 2,33,34
 146 -5 146 -5 97 -5 c 0,35,36
 49 -5 49 -5 34 42 c 0,37,38
 31 52 31 52 31 68 c 0,39,40
 31 80 31 80 33 95 c 0,41,42
 37 130 37 130 40.5 166.5 c 128,-1,43
 44 203 44 203 56 243 c 1,44,-1
 93 449 l 1,45,46
 90 451 90 451 90 461.5 c 128,-1,47
 90 472 90 472 97 495 c 0,48,49
 104 519 104 519 108 537 c 2,50,-1
 116 576 l 1,51,-1
 116 577 l 1,52,53
 106 591 106 591 115 615 c 2,54,-1
 128 649 l 1,55,-1
 130 642 l 2,56,57
 128 649 128 649 128 680 c 0,58,59
 128 709 128 709 140 733 c 1,60,-1
 147 771 l 1,61,-1
 163 830 l 1,62,-1
 187 1073 l 1,63,-1
 243 1392 l 1,64,-1
 308 1513 l 1,65,-1
 382 1518 l 1,66,-1
 394 1518 l 1,67,-1
 470 1491 l 1,68,-1
 470 1422 l 2,69,70
 470 1396 470 1396 456.5 1375 c 128,-1,71
 443 1354 443 1354 444 1346 c 1,72,-1
 444 1345 l 1,73,74
 445 1336 445 1336 445 1335 c 2,75,-1
 423 1204 l 2,76,77
 422 1200 422 1200 424 1198 c 1,78,-1
 409 1007 l 1,79,-1
 446 950 l 1,80,-1
 473 968 l 2,81,82
 480 973 480 973 509 977 c 0,83,84
 567 985 567 985 572 987 c 0,85,86
 630 1017 630 1017 631 1017 c 0,87,88
 641 1019 641 1019 733 1044 c 0,89,90
 755 1050 755 1050 804 1050 c 0,91,92
 810 1050 810 1050 814 1050 c 0,93,94
 868 1050 868 1050 874 1047 c 0,95,-1
 913 1032 l 2,96,-1
 958 1012 l 1,97,-1
 991 991 l 1,98,-1
 1003 970 l 2,99,-1
 1006 949 l 1,100,101
 1026 924 1026 924 1026 900 c 1,102,-1
 1032 843 l 0,0,1
370 572 m 1,103,104
 366 544 366 544 360 504 c 0,105,106
 358 488 358 488 360 476 c 2,107,-1
 364 436 l 1,108,109
 364 427 364 427 361 425 c 1,110,-1
 356 397 l 1,111,-1
 363 380 l 1,112,113
 367 376 367 376 371 364 c 0,114,115
 376 352 376 352 380 348 c 1,116,-1
 396 309 l 1,117,118
 423 301 423 301 432 301 c 0,119,120
 436 301 436 301 437 302 c 2,121,-1
 447 317 l 2,122,123
 465 317 465 317 473 323 c 0,124,125
 480 328 480 328 498 349 c 2,126,-1
 521 377 l 1,127,128
 527 381 527 381 539 400 c 128,-1,129
 551 419 551 419 556 423 c 2,130,-1
 589 447 l 2,131,132
 616 466 616 466 622 472 c 128,-1,133
 628 478 628 478 650 511 c 0,134,135
 672 544 672 544 678 552 c 1,136,-1
 724 594 l 1,137,-1
 739 640 l 1,138,139
 772 700 772 700 772 738 c 0,140,141
 772 823 772 823 683 823 c 0,142,143
 614 823 614 823 489 774 c 1,144,-1
 424 744 l 1,145,146
 400 731 400 731 399 712 c 1,147,-1
 401 694 l 1,148,149
 401 676 401 676 392 664 c 1,150,-1
 370 572 l 1,103,104
EndSplineSet
Validated: 1
EndChar

StartChar: c
Encoding: 99 99 43
Width: 858
VWidth: 1597
Flags: W
LayerCount: 2
Fore
SplineSet
198 -7 m 0,0,-1
 184 -7 l 1,1,2
 78 46 78 46 53 138.5 c 128,-1,3
 28 231 28 231 28 348 c 0,4,5
 28 458 28 458 46 539.5 c 128,-1,6
 64 621 64 621 103 692 c 128,-1,7
 142 763 142 763 200 841 c 128,-1,8
 258 919 258 919 339 994 c 0,9,10
 400 1051 400 1051 465.5 1059.5 c 128,-1,11
 531 1068 531 1068 620 1068 c 0,12,13
 624 1068 624 1068 641.5 1068 c 128,-1,14
 659 1068 659 1068 680.5 1068 c 128,-1,15
 702 1068 702 1068 719.5 1066.5 c 128,-1,16
 737 1065 737 1065 744 1065 c 1,17,18
 762 1058 762 1058 765.5 1045.5 c 128,-1,19
 769 1033 769 1033 769 1015 c 256,20,21
 769 997 769 997 766 960 c 128,-1,22
 763 923 763 923 745 909 c 1,23,24
 649 888 649 888 625 888 c 0,25,26
 623 888 623 888 622 888 c 0,27,28
 607 889 607 889 592 889 c 0,29,30
 554 889 554 889 516 882 c 0,31,32
 480 875 480 875 415 838 c 1,33,34
 372 817 372 817 349 769 c 128,-1,35
 326 721 326 721 317.5 666 c 128,-1,36
 309 611 309 611 309 556 c 128,-1,37
 309 501 309 501 309 462 c 0,38,39
 309 455 309 455 309 431.5 c 128,-1,40
 309 408 309 408 309 381.5 c 128,-1,41
 309 355 309 355 310.5 332 c 128,-1,42
 312 309 312 309 312 302 c 1,43,44
 330 259 330 259 355 252 c 128,-1,45
 380 245 380 245 415 245 c 2,46,-1
 443 245 l 2,47,48
 454 245 454 245 465 249 c 1,49,50
 500 270 500 270 537.5 321.5 c 128,-1,51
 575 373 575 373 616 424.5 c 128,-1,52
 657 476 657 476 697.5 517 c 128,-1,53
 738 558 738 558 781 558 c 0,54,55
 809 558 809 558 816 534.5 c 128,-1,56
 823 511 823 511 823 490 c 0,57,58
 823 451 823 451 814.5 433 c 128,-1,59
 806 415 806 415 767 376 c 1,60,61
 756 362 756 362 726 330 c 128,-1,62
 696 298 696 298 658.5 262.5 c 128,-1,63
 621 227 621 227 587.5 195 c 128,-1,64
 554 163 554 163 539 153 c 1,65,66
 532 138 532 138 491.5 110 c 128,-1,67
 451 82 451 82 440 67 c 1,68,69
 436 67 436 67 420 60 c 128,-1,70
 404 53 404 53 388 46 c 128,-1,71
 372 39 372 39 358 32 c 128,-1,72
 344 25 344 25 340 25 c 1,73,74
 337 21 337 21 326.5 8.5 c 128,-1,75
 316 -4 316 -4 312 -7 c 1,76,-1
 287 -7 l 2,77,78
 242 -7 242 -7 198 -7 c 0,0,-1
EndSplineSet
Validated: 1
EndChar

StartChar: d
Encoding: 100 100 44
Width: 889
VWidth: 1597
Flags: W
LayerCount: 2
Fore
SplineSet
610 1126 m 24,0,1
 614 1144 614 1144 617 1154 c 1,2,3
 617 1165 617 1165 619 1191.5 c 128,-1,4
 621 1218 621 1218 624.5 1250 c 128,-1,5
 628 1282 628 1282 632 1308 c 0,6,7
 636 1336 636 1336 639 1346 c 1,8,9
 671 1374 671 1374 692 1406 c 128,-1,10
 713 1438 713 1438 734.5 1462.5 c 128,-1,11
 756 1487 756 1487 784.5 1503 c 128,-1,12
 813 1519 813 1519 866 1519 c 1,13,14
 866 1498 866 1498 864 1439.5 c 128,-1,15
 862 1381 862 1381 860.5 1313.5 c 128,-1,16
 859 1246 859 1246 857 1187.5 c 128,-1,17
 855 1129 855 1129 852 1108 c 1,18,19
 852 1055 852 1055 845 969.5 c 128,-1,20
 838 884 838 884 829 802.5 c 128,-1,21
 820 721 820 721 813 662.5 c 128,-1,22
 806 604 806 604 802 600 c 2,23,-1
 781 579 l 1,24,25
 781 565 781 565 777.5 526 c 128,-1,26
 774 487 774 487 770.5 444 c 128,-1,27
 767 401 767 401 763 364 c 128,-1,28
 759 327 759 327 756 312 c 1,29,30
 756 298 756 298 752.5 271.5 c 128,-1,31
 749 245 749 245 745.5 216.5 c 128,-1,32
 742 188 742 188 738.5 167 c 128,-1,33
 735 146 735 146 735 142 c 1,34,35
 731 128 731 128 708 103 c 128,-1,36
 685 78 685 78 658.5 55 c 128,-1,37
 632 32 632 32 605 14 c 128,-1,38
 578 -4 578 -4 564 -4 c 2,39,-1
 543 -4 l 1,40,41
 530 4 530 4 506 11 c 128,-1,42
 482 18 482 18 482 25 c 2,43,-1
 498 168 l 1,44,-1
 484 175 l 2,45,46
 470 182 470 182 463 175 c 1,47,48
 431 157 431 157 399 127 c 128,-1,49
 367 97 367 97 327 77 c 128,-1,50
 287 57 287 57 251.5 37.5 c 128,-1,51
 216 18 216 18 177 18 c 256,52,53
 138 18 138 18 109.5 46.5 c 128,-1,54
 81 75 81 75 65 114 c 128,-1,55
 49 153 49 153 42 193.5 c 128,-1,56
 35 234 35 234 35 263 c 0,57,58
 35 273 35 273 38.5 305 c 128,-1,59
 42 337 42 337 45.5 371 c 128,-1,60
 49 405 49 405 52.5 437 c 128,-1,61
 56 469 56 469 56 483 c 1,62,63
 63 483 63 483 72 490 c 128,-1,64
 81 497 81 497 85 504 c 1,65,66
 82 506 82 506 82 513 c 0,67,68
 82 540 82 540 116 640 c 0,69,70
 136 696 136 696 160.5 746 c 128,-1,71
 185 796 185 796 220 837.5 c 128,-1,72
 255 879 255 879 309 921 c 1,73,74
 316 928 316 928 360.5 951.5 c 128,-1,75
 405 975 405 975 432 990 c 1,76,77
 459 999 459 999 522 1023 c 0,78,79
 594 1051 594 1051 610 1126 c 24,0,1
255 291 m 0,80,81
 267 272 267 272 292 272 c 0,82,83
 315 272 315 272 350 288 c 0,84,85
 402 312 402 312 438 348 c 1,86,87
 464 360 464 360 528 447 c 0,88,89
 548 474 548 474 564 585 c 0,90,91
 576 671 576 671 597 738 c 0,92,93
 612 788 612 788 612 856 c 0,94,95
 612 865 612 865 612 873 c 1,96,97
 511 846 511 846 459 813 c 0,98,99
 374 759 374 759 318 633 c 0,100,101
 239 453 239 453 239 359 c 0,102,103
 239 316 239 316 255 291 c 0,80,81
EndSplineSet
Validated: 1
EndChar

StartChar: e
Encoding: 101 101 45
Width: 744
VWidth: 1597
Flags: W
LayerCount: 2
Fore
SplineSet
694 792 m 1,0,1
 674 722 674 722 614 668 c 1,2,3
 578 625 578 625 530 596 c 0,4,5
 452 548 452 548 450 548 c 0,6,7
 361 495 361 495 336 478 c 0,8,9
 280 440 280 440 280 402 c 0,10,11
 280 300 280 300 296 287 c 0,12,13
 311 275 311 275 374 262 c 0,14,15
 377 261 377 261 381 261 c 0,16,17
 398 261 398 261 436 282 c 0,18,19
 524 330 524 330 530 332 c 0,20,21
 534 333 534 333 562 352 c 0,22,23
 578 364 578 364 616 396 c 0,24,25
 642 419 642 419 668 418 c 0,26,27
 679 418 679 418 690 414 c 1,28,29
 691 413 691 413 691 410 c 0,30,31
 691 392 691 392 652 298 c 0,32,33
 641 272 641 272 613 246 c 0,34,35
 612 245 612 245 571 196 c 0,36,37
 521 136 521 136 466 98 c 1,38,39
 425 57 425 57 364.5 27.5 c 128,-1,40
 304 -2 304 -2 240 -2 c 0,41,42
 211 -2 211 -2 203.5 7 c 128,-1,43
 196 16 196 16 166 49 c 1,44,45
 130 94 130 94 106 129 c 128,-1,46
 82 164 82 164 69 201 c 128,-1,47
 56 238 56 238 50 283 c 0,48,49
 44 330 44 330 44 372 c 0,50,51
 44 380 44 380 44 387 c 0,52,53
 50 602 50 602 54 626 c 0,54,55
 91 853 91 853 138 912 c 0,56,57
 207 999 207 999 294 1032 c 0,58,59
 441 1072 441 1072 526 1072 c 0,60,61
 534 1072 534 1072 542 1072 c 0,62,63
 624 1068 624 1068 652 1010 c 0,64,65
 695 923 695 923 695 817 c 0,66,67
 695 805 695 805 694 792 c 1,0,1
393 903 m 0,68,69
 356 891 356 891 315 843 c 0,70,71
 285 808 285 808 279 801 c 128,-1,72
 273 794 273 794 261 741 c 0,73,-1
 261 724 l 0,74,-1
 261 675 l 0,75,76
 261 642 261 642 276 615 c 1,77,78
 331 660 331 660 372 676 c 0,79,80
 501 737 501 737 515 767 c 0,81,82
 530 799 530 799 530 841 c 0,83,84
 530 863 530 863 512 905 c 0,85,86
 505 920 505 920 473 923 c 0,87,88
 471 924 471 924 468 924 c 0,89,90
 451 924 451 924 393 903 c 0,68,69
EndSplineSet
Validated: 1
EndChar

StartChar: f
Encoding: 102 102 46
Width: 967
VWidth: 1597
Flags: W
LayerCount: 2
Fore
SplineSet
195 36 m 1,0,1
 195 60 195 60 200.5 119 c 128,-1,2
 206 178 206 178 209.5 243.5 c 128,-1,3
 213 309 213 309 218 367.5 c 128,-1,4
 223 426 223 426 223 447 c 2,5,-1
 223 593 l 1,6,-1
 223 739 l 1,7,8
 142 760 142 760 85 788.5 c 128,-1,9
 28 817 28 817 28 906 c 0,10,11
 28 948 28 948 61.5 971 c 128,-1,12
 95 994 95 994 139.5 1013.5 c 128,-1,13
 184 1033 184 1033 231 1047.5 c 128,-1,14
 278 1062 278 1062 296 1108 c 1,15,16
 295 1113 295 1113 295 1120 c 0,17,18
 295 1141 295 1141 304 1181 c 0,19,20
 306 1190 306 1190 331 1243 c 0,21,22
 351 1286 351 1286 351 1287 c 0,23,24
 381 1331 381 1331 374 1322 c 1,25,26
 374 1326 374 1326 402 1373 c 128,-1,27
 430 1420 430 1420 437 1424 c 1,28,29
 441 1428 441 1428 460.5 1444.5 c 128,-1,30
 480 1461 480 1461 491 1482 c 128,-1,31
 502 1503 502 1503 520.5 1516.5 c 128,-1,32
 539 1530 539 1530 543 1533 c 1,33,34
 546 1540 546 1540 575 1544 c 128,-1,35
 604 1548 604 1548 608 1552 c 1,36,37
 665 1544 665 1544 712.5 1538.5 c 128,-1,38
 760 1533 760 1533 797 1506.5 c 128,-1,39
 834 1480 834 1480 880 1440 c 128,-1,40
 926 1400 926 1400 951 1342 c 1,41,42
 941 1317 941 1317 925 1313.5 c 128,-1,43
 909 1310 909 1310 891 1310 c 0,44,45
 884 1310 884 1310 871.5 1312 c 128,-1,46
 859 1314 859 1314 852 1314 c 0,47,48
 848 1314 848 1314 850 1317.5 c 128,-1,49
 852 1321 852 1321 830.5 1326 c 128,-1,50
 809 1331 809 1331 789.5 1336.5 c 128,-1,51
 770 1342 770 1342 767 1342 c 0,52,53
 735 1342 735 1342 722.5 1333 c 128,-1,54
 710 1324 710 1324 704.5 1311.5 c 128,-1,55
 699 1299 699 1299 675 1284.5 c 128,-1,56
 651 1270 651 1270 636 1256 c 0,57,58
 611 1231 611 1231 607 1212 c 128,-1,59
 603 1193 603 1193 583.5 1177 c 128,-1,60
 564 1161 564 1161 553.5 1136 c 128,-1,61
 543 1111 543 1111 543 1072 c 0,62,63
 543 1026 543 1026 589 1021 c 0,64,65
 620 1018 620 1018 661 1018 c 0,66,67
 682 1018 682 1018 706 1018 c 0,68,69
 728 1019 728 1019 749 1019 c 0,70,71
 758 1019 758 1019 767 1019 c 0,72,73
 803 1019 803 1019 834 1016 c 0,74,75
 891 1010 891 1010 916 960 c 1,76,77
 909 957 909 957 886 944.5 c 128,-1,78
 863 932 863 932 856 925 c 0,79,80
 850 923 850 923 838 907 c 128,-1,81
 826 891 826 891 808 877 c 128,-1,82
 790 863 790 863 778 847 c 0,83,84
 763 830 763 830 735 835 c 1,85,86
 713 824 713 824 677.5 820.5 c 128,-1,87
 642 817 642 817 605 810 c 128,-1,88
 568 803 568 803 539.5 788.5 c 128,-1,89
 511 774 511 774 511 739 c 1,90,91
 478 712 478 712 474 572 c 0,92,93
 470 476 470 476 464 384 c 1,94,95
 457 278 457 278 450 164 c 1,96,-1
 319 4 l 1,97,98
 316 4 316 4 300 2 c 128,-1,99
 284 0 284 0 277 0 c 0,100,101
 259 0 259 0 230.5 3.5 c 128,-1,102
 202 7 202 7 195 36 c 1,0,1
EndSplineSet
Validated: 1
EndChar

StartChar: g
Encoding: 103 103 47
Width: 960
VWidth: 1597
Flags: W
LayerCount: 2
Fore
SplineSet
361 -555 m 1,0,1
 232 -578 l 1,2,-1
 116 -572 l 1,3,-1
 96 -518 l 1,4,-1
 159 -418 l 1,5,-1
 273 -372 l 1,6,7
 314 -370 314 -370 366 -342 c 0,8,9
 389 -329 389 -329 462 -304 c 0,10,11
 491 -294 491 -294 564 -222 c 0,12,13
 574 -212 574 -212 609 -162 c 0,14,15
 616 -152 616 -152 629 -98 c 1,16,-1
 672 18 l 2,17,18
 689 64 689 64 689 95 c 0,19,20
 689 112 689 112 684 126 c 0,21,22
 668 170 668 170 657 192 c 0,23,24
 646 216 646 216 618 230 c 0,25,26
 594 242 594 242 576 222 c 0,27,28
 549 190 549 190 495 142 c 0,29,30
 450 102 450 102 396.5 81 c 128,-1,31
 343 60 343 60 290 33.5 c 128,-1,32
 237 7 237 7 173 7 c 0,33,34
 88 7 88 7 59.5 72.5 c 128,-1,35
 31 138 31 138 31 210 c 0,36,37
 31 337 31 337 89.5 486.5 c 128,-1,38
 148 636 148 636 244 763.5 c 128,-1,39
 340 891 340 891 468 976.5 c 128,-1,40
 596 1062 596 1062 734 1062 c 0,41,42
 759 1062 759 1062 791 1060 c 128,-1,43
 823 1058 823 1058 848 1047.5 c 128,-1,44
 873 1037 873 1037 890.5 1017.5 c 128,-1,45
 908 998 908 998 908 962 c 2,46,-1
 908 945 l 2,47,48
 908 934 908 934 902.5 900 c 128,-1,49
 897 866 897 866 892 827 c 128,-1,50
 887 788 887 788 883.5 754.5 c 128,-1,51
 880 721 880 721 880 710 c 0,52,53
 880 664 880 664 878 548.5 c 128,-1,54
 876 433 876 433 876 301.5 c 128,-1,55
 876 170 876 170 878 55 c 128,-1,56
 880 -60 880 -60 880 -107 c 1,57,58
 866 -142 l 2,59,60
 856 -167 856 -167 841 -195.5 c 128,-1,61
 826 -224 826 -224 812 -248 c 0,62,63
 792 -284 792 -284 791 -284 c 1,64,65
 791 -292 791 -292 708 -344 c 0,66,67
 607 -407 607 -407 600 -412 c 0,68,69
 536 -463 536 -463 531 -466 c 2,70,-1
 438 -512 l 2,71,72
 364 -549 364 -549 361 -555 c 1,0,1
561 438 m 9,73,74
 627 509 627 509 644 538 c 0,75,76
 673 590 673 590 675 597 c 1,77,78
 696 635 696 635 696 663 c 0,79,80
 696 756 696 756 684 776 c 1,81,-1
 640 827 l 1,82,83
 618 848 618 848 594 848 c 0,84,85
 587 848 587 848 579 846 c 2,86,-1
 514 827 l 1,87,88
 486 827 486 827 417 768 c 0,89,90
 357 716 357 716 351 694 c 0,91,92
 319 586 319 586 317 586 c 0,93,94
 308 586 308 586 285 480 c 2,95,-1
 273 425 l 1,96,-1
 265 347 l 1,97,98
 273 300 273 300 285 290 c 0,99,100
 309 272 309 272 337 272 c 0,101,102
 386 272 386 272 450 326 c 0,103,104
 464 338 464 338 561 438 c 9,73,74
EndSplineSet
Validated: 1
EndChar

StartChar: h
Encoding: 104 104 48
Width: 851
VWidth: 1597
Flags: W
LayerCount: 2
Fore
SplineSet
440 782 m 0,0,1
 418 762 418 762 414 757 c 0,2,3
 392 739 392 739 390 732 c 1,4,5
 383 721 383 721 370.5 694.5 c 128,-1,6
 358 668 358 668 347.5 639.5 c 128,-1,7
 337 611 337 611 326 586.5 c 128,-1,8
 315 562 315 562 315 555 c 0,9,10
 315 551 315 551 311.5 521 c 128,-1,11
 308 491 308 491 302.5 450 c 128,-1,12
 297 409 297 409 293.5 368 c 128,-1,13
 290 327 290 327 290 302 c 1,14,15
 287 295 287 295 288.5 275.5 c 128,-1,16
 290 256 290 256 290 249 c 1,17,18
 283 231 283 231 274.5 192 c 128,-1,19
 266 153 266 153 262 150 c 1,20,21
 258 143 258 143 226 123.5 c 128,-1,22
 194 104 194 104 187 100 c 1,23,24
 145 61 145 61 127 34.5 c 128,-1,25
 109 8 109 8 56 8 c 1,26,27
 56 36 56 36 56 110.5 c 128,-1,28
 56 185 56 185 58 268.5 c 128,-1,29
 60 352 60 352 60 425 c 128,-1,30
 60 498 60 498 60 526 c 1,31,32
 63 618 63 618 66.5 760.5 c 128,-1,33
 70 903 70 903 73.5 1036 c 128,-1,34
 77 1169 77 1169 81 1266 c 0,35,-1
 84 1364 l 1,36,-1
 237 1516 l 1,37,-1
 258 1516 l 2,38,39
 273 1516 273 1516 294 1512.5 c 128,-1,40
 315 1509 315 1509 315 1491 c 2,41,-1
 315 832 l 1,42,-1
 340 832 l 1,43,-1
 543 1034 l 1,44,45
 560 1055 560 1055 601 1058.5 c 128,-1,46
 642 1062 642 1062 670 1062 c 0,47,48
 741 1062 741 1062 769.5 1028.5 c 128,-1,49
 798 995 798 995 798 924 c 0,50,51
 798 913 798 913 796.5 886.5 c 128,-1,52
 795 860 795 860 795 856 c 0,53,54
 795 849 795 849 791.5 820.5 c 128,-1,55
 788 792 788 792 782.5 756.5 c 128,-1,56
 777 721 777 721 773.5 691 c 128,-1,57
 770 661 770 661 770 654 c 1,58,59
 766 626 766 626 762.5 558.5 c 128,-1,60
 759 491 759 491 755.5 414.5 c 128,-1,61
 752 338 752 338 748.5 268.5 c 128,-1,62
 745 199 745 199 745 175 c 1,63,-1
 567 -3 l 1,64,-1
 489 -3 l 1,65,66
 489 4 489 4 489 22 c 128,-1,67
 489 40 489 40 493 47 c 1,68,69
 493 54 493 54 496.5 80.5 c 128,-1,70
 500 107 500 107 503.5 135.5 c 128,-1,71
 507 164 507 164 510.5 190.5 c 128,-1,72
 514 217 514 217 514 224 c 256,73,74
 514 231 514 231 514 258 c 128,-1,75
 514 285 514 285 514 313 c 128,-1,76
 514 341 514 341 514 368 c 128,-1,77
 514 395 514 395 514 402 c 1,78,79
 518 420 518 420 526.5 467.5 c 128,-1,80
 535 515 535 515 543 526 c 1,81,82
 543 607 543 607 560 625 c 8,83,84
 596 844 596 844 596 845 c 17,85,86
 512 841 512 841 440 782 c 0,0,1
EndSplineSet
Validated: 1
EndChar

StartChar: i
Encoding: 105 105 49
Width: 489
VWidth: 1597
Flags: W
LayerCount: 2
Fore
SplineSet
35 28 m 0,0,1
 35 39 35 39 33 78 c 128,-1,2
 31 117 31 117 31 128 c 0,3,4
 31 146 31 146 33 185 c 128,-1,5
 35 224 35 224 35 227 c 0,6,7
 35 238 35 238 38.5 270 c 128,-1,8
 42 302 42 302 45.5 337.5 c 128,-1,9
 49 373 49 373 52.5 405 c 128,-1,10
 56 437 56 437 59 451 c 1,11,-1
 84 476 l 1,12,13
 106 550 106 550 107.5 642.5 c 128,-1,14
 109 735 109 735 125 816.5 c 128,-1,15
 141 898 141 898 187 953.5 c 128,-1,16
 233 1009 233 1009 343 1009 c 1,17,18
 343 788 343 788 329 578.5 c 128,-1,19
 315 369 315 369 283 153 c 0,20,21
 280 131 280 131 251.5 104.5 c 128,-1,22
 223 78 223 78 187.5 55 c 128,-1,23
 152 32 152 32 118 16 c 128,-1,24
 84 0 84 0 70 0 c 2,25,-1
 63 0 l 2,26,27
 59 0 59 0 59 4 c 1,28,29
 52 4 52 4 43.5 12.5 c 128,-1,30
 35 21 35 21 35 28 c 0,0,1
180 1413 m 0,31,32
 180 1438 180 1438 185.5 1473.5 c 128,-1,33
 191 1509 191 1509 209 1526 c 1,34,35
 212 1526 212 1526 226.5 1529.5 c 128,-1,36
 241 1533 241 1533 256.5 1538.5 c 128,-1,37
 272 1544 272 1544 288 1547.5 c 128,-1,38
 304 1551 304 1551 308 1551 c 256,39,40
 312 1551 312 1551 320.5 1561.5 c 128,-1,41
 329 1572 329 1572 333 1572 c 1,42,43
 333 1576 333 1576 343.5 1576 c 128,-1,44
 354 1576 354 1576 361 1576 c 0,45,46
 365 1576 365 1576 374 1576 c 128,-1,47
 383 1576 383 1576 383 1572 c 1,48,49
 397 1565 397 1565 423.5 1528 c 128,-1,50
 450 1491 450 1491 457 1473 c 1,51,52
 461 1473 461 1473 462.5 1453.5 c 128,-1,53
 464 1434 464 1434 464 1424 c 0,54,55
 464 1417 464 1417 462.5 1399 c 128,-1,56
 461 1381 461 1381 457 1374 c 1,57,58
 450 1367 450 1367 428.5 1356.5 c 128,-1,59
 407 1346 407 1346 382.5 1335 c 128,-1,60
 358 1324 358 1324 336.5 1313.5 c 128,-1,61
 315 1303 315 1303 308 1299 c 1,62,-1
 283 1299 l 2,63,64
 230 1299 230 1299 205 1331.5 c 128,-1,65
 180 1364 180 1364 180 1413 c 0,31,32
EndSplineSet
Validated: 1
EndChar

StartChar: j
Encoding: 106 106 50
Width: 602
VWidth: 1597
Flags: W
LayerCount: 2
Fore
SplineSet
-126 -476 m 1,0,1
 -88 -438 -88 -438 -59.5 -421 c 128,-1,2
 -31 -404 -31 -404 18.5 -379 c 128,-1,3
 68 -354 68 -354 97 -304 c 1,4,5
 104 -297 104 -297 111 -261.5 c 128,-1,6
 118 -226 118 -226 118 -208 c 1,7,8
 122 -194 122 -194 125.5 -161 c 128,-1,9
 129 -128 129 -128 134 -90 c 128,-1,10
 139 -52 139 -52 143 -17 c 128,-1,11
 147 18 147 18 147 36 c 1,12,-1
 171 58 l 1,13,14
 175 118 175 118 178 121 c 1,15,16
 182 167 182 167 183.5 215 c 128,-1,17
 185 263 185 263 189 295 c 1,18,19
 192 302 192 302 190.5 330.5 c 128,-1,20
 189 359 189 359 189 366 c 256,21,22
 189 373 189 373 192.5 408.5 c 128,-1,23
 196 444 196 444 199.5 485 c 128,-1,24
 203 526 203 526 206.5 561.5 c 128,-1,25
 210 597 210 597 210 604 c 0,26,27
 213 627 213 627 213 656 c 0,28,29
 213 669 213 669 212 686 c 128,-1,30
 211 703 211 703 211 719 c 0,31,32
 212 750 212 750 214 780 c 0,33,34
 218 828 218 828 226.5 870.5 c 128,-1,35
 235 913 235 913 260 941 c 0,36,37
 270 952 270 952 291.5 968 c 128,-1,38
 313 984 313 984 339.5 1000 c 128,-1,39
 366 1016 366 1016 389 1028 c 128,-1,40
 412 1040 412 1040 430 1040 c 0,41,42
 476 1040 476 1040 476 991 c 2,43,-1
 476 966 l 1,44,45
 474 924 474 924 470 858 c 2,46,47
 462 730 l 2,48,49
 458 668 458 668 455 623 c 2,50,-1
 452 579 l 1,51,-1
 430 558 l 1,52,-1
 423 508 l 2,53,54
 416 458 416 458 409 389 c 2,55,-1
 395 247 l 2,56,57
 388 174 388 174 384 128 c 1,58,-1
 388 58 l 2,59,60
 388 52 388 52 381 17 c 2,61,-1
 365 -60 l 2,62,63
 356 -102 356 -102 349 -145 c 128,-1,64
 342 -188 342 -188 338 -208 c 0,65,66
 321 -283 321 -283 285.5 -332.5 c 128,-1,67
 250 -382 250 -382 200 -420 c 128,-1,68
 150 -458 150 -458 92 -486 c 2,69,-1
 -24 -542 l 1,70,71
 -27 -546 -27 -546 -40.5 -552 c 128,-1,72
 -54 -558 -54 -558 -66 -562 c 0,73,74
 -80 -566 -80 -566 -91 -562 c 1,75,76
 -101 -560 -101 -560 -110 -556 c 0,77,78
 -137 -542 -137 -542 -135 -506 c 0,79,80
 -134 -490 -134 -490 -126 -476 c 1,0,1
256 1416 m 0,81,82
 256 1441 256 1441 258 1476.5 c 128,-1,83
 260 1512 260 1512 285 1528 c 1,84,85
 288 1532 288 1532 304 1538 c 2,86,-1
 340 1552 l 2,87,88
 360 1560 360 1560 377.5 1566 c 128,-1,89
 395 1572 395 1572 402 1574 c 0,90,91
 405 1574 405 1574 414 1576 c 128,-1,92
 423 1578 423 1578 430 1578 c 0,93,94
 469 1578 469 1578 497.5 1536 c 128,-1,95
 526 1494 526 1494 526 1454 c 0,96,97
 526 1387 526 1387 464 1351.5 c 128,-1,98
 402 1316 402 1316 341 1316 c 0,99,100
 292 1316 292 1316 274 1346.5 c 128,-1,101
 256 1377 256 1377 256 1416 c 0,81,82
EndSplineSet
Validated: 1
EndChar

StartChar: k
Encoding: 107 107 51
Width: 908
VWidth: 1597
Flags: W
LayerCount: 2
Fore
SplineSet
35 75 m 2,0,1
 35 117 35 117 38.5 207.5 c 128,-1,2
 42 298 42 298 47.5 413.5 c 128,-1,3
 53 529 53 529 56.5 653.5 c 128,-1,4
 60 778 60 778 65.5 893.5 c 128,-1,5
 71 1009 71 1009 77 1150 c 128,-1,6
 83 1291 83 1291 86 1333 c 1,7,8
 100 1340 100 1340 112.5 1375.5 c 128,-1,9
 125 1411 125 1411 143 1452 c 128,-1,10
 161 1493 161 1493 194.5 1524.5 c 128,-1,11
 228 1556 228 1556 289 1556 c 1,12,13
 289 1553 289 1553 292 1553 c 2,14,-1
 299 1553 l 1,15,-1
 306 1553 l 1,16,-1
 328 1468 l 1,17,-1
 323 675 l 1,18,19
 328 686 328 686 422 798 c 0,20,21
 470 855 470 855 520 915.5 c 128,-1,22
 570 976 570 976 628 1024 c 128,-1,23
 686 1072 686 1072 764 1072 c 1,24,-1
 770 941 l 1,25,26
 758 931 758 931 734.5 905.5 c 128,-1,27
 711 880 711 880 681.5 852.5 c 128,-1,28
 652 825 652 825 628 799 c 0,29,30
 599 767 599 767 593 763 c 0,31,32
 589 760 589 760 580 742 c 128,-1,33
 571 724 571 724 571 721 c 1,34,35
 564 714 564 714 548 687.5 c 128,-1,36
 532 661 532 661 525 653 c 1,37,38
 553 575 553 575 587 534.5 c 128,-1,39
 621 494 621 494 660 430 c 1,40,41
 667 412 667 412 681.5 387 c 128,-1,42
 696 362 696 362 710 337 c 128,-1,43
 724 312 724 312 736.5 294.5 c 128,-1,44
 749 277 749 277 749 273 c 1,45,46
 774 234 774 234 795 211 c 128,-1,47
 816 188 816 188 816 135 c 0,48,49
 816 121 816 121 791.5 99.5 c 128,-1,50
 767 78 767 78 735 57 c 128,-1,51
 703 36 703 36 671 21.5 c 128,-1,52
 639 7 639 7 624 7 c 0,53,54
 585 7 585 7 548 64 c 128,-1,55
 511 121 511 121 470 190 c 128,-1,56
 429 259 429 259 386.5 323 c 128,-1,57
 344 387 344 387 291 405 c 1,58,-1
 291 96 l 2,59,60
 291 67 291 67 268 49.5 c 128,-1,61
 245 32 245 32 216.5 21.5 c 128,-1,62
 188 11 188 11 156 7.5 c 128,-1,63
 124 4 124 4 110 4 c 0,64,65
 81 4 81 4 58 7.5 c 128,-1,66
 35 11 35 11 35 46 c 2,67,-1
 35 75 l 2,0,1
EndSplineSet
Validated: 1
EndChar

StartChar: l
Encoding: 108 108 52
Width: 413
VWidth: 1597
Flags: W
LayerCount: 2
Fore
SplineSet
48 111 m 1,0,1
 73 463 73 463 80.5 739.5 c 128,-1,2
 88 1016 88 1016 138 1364 c 1,3,4
 163 1386 163 1386 174.5 1426.5 c 128,-1,5
 186 1467 186 1467 201 1509.5 c 128,-1,6
 216 1552 216 1552 256.5 1582.5 c 128,-1,7
 297 1613 297 1613 337 1613 c 0,8,9
 373 1613 373 1613 382 1584.5 c 128,-1,10
 391 1556 391 1556 391 1517 c 2,11,-1
 391 1471 l 2,12,13
 391 1461 391 1461 387 1414.5 c 128,-1,14
 383 1368 383 1368 379 1318.5 c 128,-1,15
 375 1269 375 1269 372 1224.5 c 128,-1,16
 369 1180 369 1180 369 1170 c 0,17,18
 366 1113 366 1113 360.5 967.5 c 128,-1,19
 355 822 355 822 344 735 c 128,-1,20
 333 648 333 648 328 504 c 128,-1,21
 323 360 323 360 319 303 c 1,22,23
 294 289 294 289 287.5 239.5 c 128,-1,24
 281 190 281 190 270 135 c 128,-1,25
 259 80 259 80 232 37 c 0,26,27
 207 -3 207 -3 92 -3 c 2,28,-1
 74 -3 l 2,29,30
 70 -3 70 -3 66 1 c 1,31,32
 64 19 64 19 60 33 c 0,33,34
 56 47 56 47 52 61.5 c 128,-1,35
 48 76 48 76 48 83 c 2,36,-1
 48 97 l 1,37,-1
 48 111 l 1,0,1
EndSplineSet
Validated: 1
EndChar

StartChar: m
Encoding: 109 109 53
Width: 1367
VWidth: 1597
Flags: W
LayerCount: 2
Fore
SplineSet
62 664 m 0,0,1
 62 678 62 678 64 715 c 128,-1,2
 66 752 66 752 69.5 791.5 c 128,-1,3
 73 831 73 831 78.5 866.5 c 128,-1,4
 84 902 84 902 87 916 c 0,5,6
 91 937 91 937 108.5 962 c 128,-1,7
 126 987 126 987 149 1011.5 c 128,-1,8
 172 1036 172 1036 199 1052 c 128,-1,9
 226 1068 226 1068 250 1068 c 1,10,-1
 258 1065 l 1,11,-1
 261 1065 l 1,12,13
 268 1061 268 1061 277 1054 c 128,-1,14
 286 1047 286 1047 286 1040 c 1,15,16
 290 1033 290 1033 293.5 1011.5 c 128,-1,17
 297 990 297 990 300.5 967 c 128,-1,18
 304 944 304 944 307.5 923 c 128,-1,19
 311 902 311 902 311 891 c 1,20,-1
 336 891 l 2,21,22
 375 891 375 891 407 914 c 128,-1,23
 439 937 439 937 472.5 967 c 128,-1,24
 506 997 506 997 543.5 1020.5 c 128,-1,25
 581 1044 581 1044 634 1044 c 0,26,27
 694 1044 694 1044 722.5 1020.5 c 128,-1,28
 751 997 751 997 765.5 967 c 128,-1,29
 780 937 780 937 794 914 c 128,-1,30
 808 891 808 891 840 891 c 256,31,32
 872 891 872 891 900.5 910.5 c 128,-1,33
 929 930 929 930 957.5 955 c 128,-1,34
 986 980 986 980 1021.5 999.5 c 128,-1,35
 1057 1019 1057 1019 1103 1019 c 0,36,37
 1163 1019 1163 1019 1216.5 988.5 c 128,-1,38
 1270 958 1270 958 1287 891 c 1,39,40
 1287 877 1287 877 1287 843 c 128,-1,41
 1287 809 1287 809 1289 772 c 128,-1,42
 1291 735 1291 735 1291 701 c 128,-1,43
 1291 667 1291 667 1291 653 c 0,44,45
 1291 578 1291 578 1291 518 c 128,-1,46
 1291 458 1291 458 1289 397.5 c 128,-1,47
 1287 337 1287 337 1280 275 c 128,-1,48
 1273 213 1273 213 1263 138 c 1,49,50
 1213 74 1213 74 1154.5 37 c 128,-1,51
 1096 0 1096 0 1010 0 c 1,52,53
 1010 159 1010 159 1024.5 317 c 128,-1,54
 1039 475 1039 475 1039 635 c 0,55,56
 1039 657 1039 657 1037 683.5 c 128,-1,57
 1035 710 1035 710 1028 734.5 c 128,-1,58
 1021 759 1021 759 1007 777 c 128,-1,59
 993 795 993 795 964 795 c 0,60,61
 925 795 925 795 902 777 c 128,-1,62
 879 759 879 759 861.5 736 c 128,-1,63
 844 713 844 713 828 686.5 c 128,-1,64
 812 660 812 660 787 642 c 1,65,66
 780 504 780 504 767.5 353 c 128,-1,67
 755 202 755 202 737 63 c 1,68,69
 680 14 680 14 618 -2 c 128,-1,70
 556 -18 556 -18 485 -18 c 1,71,-1
 485 163 l 1,72,-1
 513 191 l 1,73,-1
 517 237 l 0,74,75
 521 283 521 283 524 347 c 128,-1,76
 527 411 527 411 531 478.5 c 128,-1,77
 535 546 535 546 538 593 c 1,78,-1
 538 678 l 1,79,-1
 538 767 l 1,80,81
 531 791 531 791 509.5 793 c 128,-1,82
 488 795 488 795 471 795 c 0,83,84
 467 795 467 795 463.5 793 c 128,-1,85
 460 791 460 791 453 791 c 2,86,-1
 439 791 l 1,87,88
 353 742 353 742 323 664 c 0,89,90
 293 584 293 584 286 494 c 0,91,92
 279 411 279 411 279 367 c 0,93,94
 279 353 279 353 280 343 c 0,95,96
 281 327 281 327 281 310 c 0,97,98
 281 304 281 304 281 298 c 0,99,100
 281 211 281 211 261 138 c 0,101,102
 258 127 258 127 231 107.5 c 128,-1,103
 204 88 204 88 168.5 67 c 128,-1,104
 133 46 133 46 101 30 c 128,-1,105
 69 14 69 14 59 14 c 0,106,107
 28 14 28 14 26 30 c 0,108,109
 23 51 23 51 23 81 c 0,110,111
 23 88 23 88 23 96 c 0,112,113
 23 110 23 110 34 152 c 128,-1,114
 45 194 45 194 45 201 c 0,115,116
 49 307 49 307 51 333 c 0,117,118
 56 448 56 448 57 453 c 0,119,120
 62 506 62 506 62 664 c 0,0,1
EndSplineSet
Validated: 1
EndChar

StartChar: n
Encoding: 110 110 54
Width: 883
VWidth: 1597
Flags: W
LayerCount: 2
Fore
SplineSet
21 71 m 1,0,1
 19 116 l 1,2,3
 19 143 19 143 45 149 c 1,4,5
 66 309 66 309 70 481 c 0,6,7
 71 538 71 538 72 594 c 0,8,9
 72 766 72 766 67 868 c 1,10,11
 92 911 92 911 131 958.5 c 128,-1,12
 170 1006 170 1006 227 1006 c 0,13,14
 258 1006 258 1006 267 983 c 128,-1,15
 276 960 276 960 281.5 933 c 128,-1,16
 287 906 287 906 296 885 c 128,-1,17
 305 864 305 864 340 868 c 1,18,19
 365 900 365 900 404 937 c 128,-1,20
 443 974 443 974 487.5 1004 c 128,-1,21
 532 1034 532 1034 580 1054 c 128,-1,22
 628 1074 628 1074 670 1074 c 2,23,-1
 724 1074 l 1,24,25
 734 1067 734 1067 761 1041.5 c 128,-1,26
 788 1016 788 1016 791 1002 c 1,27,28
 791 988 791 988 791 951 c 128,-1,29
 791 914 791 914 793 873 c 128,-1,30
 795 832 795 832 795 764 c 128,-1,31
 795 696 795 696 795 682 c 0,32,33
 795 533 795 533 791.5 415.5 c 128,-1,34
 788 298 788 298 770 149 c 1,35,36
 727 92 727 92 670.5 46 c 128,-1,37
 614 0 614 0 543 0 c 1,38,-1
 585 747 l 1,39,-1
 564 843 l 2,40,41
 556 859 556 859 510 819 c 0,42,43
 472 786 472 786 429 739 c 1,44,45
 422 732 422 732 406 698 c 128,-1,46
 390 664 390 664 372 625 c 128,-1,47
 354 586 354 586 336.5 552 c 128,-1,48
 319 518 319 518 315 511 c 0,49,50
 312 504 312 504 299.5 497 c 128,-1,51
 287 490 287 490 280 490 c 1,52,-1
 280 128 l 2,53,54
 280 121 280 121 258.5 85.5 c 128,-1,55
 237 50 237 50 227 36 c 1,56,57
 205 14 205 14 160.5 1.5 c 128,-1,58
 116 -11 116 -11 88 -11 c 0,59,60
 67 -11 67 -11 54.5 -7.5 c 128,-1,61
 42 -4 42 -4 21 14 c 1,62,-1
 21 71 l 1,0,1
EndSplineSet
Validated: 1
EndChar

StartChar: o
Encoding: 111 111 55
Width: 810
VWidth: 1597
Flags: W
LayerCount: 2
Fore
SplineSet
31 334 m 0,0,1
 31 391 31 391 34.5 442.5 c 128,-1,2
 38 494 38 494 56 550 c 1,3,4
 56 554 56 554 65 573.5 c 128,-1,5
 74 593 74 593 78 597 c 1,6,7
 72 621 72 621 81 636 c 0,8,9
 91 654 91 654 107 678.5 c 128,-1,10
 123 703 123 703 139.5 733.5 c 128,-1,11
 156 764 156 764 159 771 c 1,12,13
 165 783 165 783 180 810 c 0,14,15
 185 818 185 818 210 843 c 1,16,17
 245 886 245 886 278.5 920.5 c 128,-1,18
 312 955 312 955 347.5 987 c 128,-1,19
 383 1019 383 1019 425.5 1040.5 c 128,-1,20
 468 1062 468 1062 528 1062 c 0,21,22
 549 1062 549 1062 592 1058.5 c 128,-1,23
 635 1055 635 1055 652 1037 c 1,24,25
 706 976 706 976 729 884 c 0,26,27
 749 805 749 805 749 740 c 0,28,29
 749 729 749 729 748 717 c 1,30,31
 749 714 749 714 749 705 c 0,32,33
 748 698 748 698 748 686 c 0,34,35
 746 662 746 662 747 646 c 2,36,-1
 747 600 l 2,37,38
 747 597 747 597 747.5 589.5 c 128,-1,39
 748 582 748 582 748 579 c 1,40,41
 745 572 745 572 738 543.5 c 128,-1,42
 731 515 731 515 723.5 483 c 128,-1,43
 716 451 716 451 709 424.5 c 128,-1,44
 702 398 702 398 702 391 c 1,45,46
 684 344 684 344 661 328 c 128,-1,47
 638 312 638 312 610 277 c 1,48,49
 571 231 571 231 533.5 181 c 128,-1,50
 496 131 496 131 451.5 92 c 128,-1,51
 407 53 407 53 355.5 26.5 c 128,-1,52
 304 0 304 0 241 0 c 0,53,54
 177 0 177 0 137.5 33.5 c 128,-1,55
 98 67 98 67 73.5 118.5 c 128,-1,56
 49 170 49 170 40 227 c 128,-1,57
 31 284 31 284 31 334 c 0,0,1
283 462 m 0,58,59
 283 437 283 437 283 398 c 128,-1,60
 283 359 283 359 290 321.5 c 128,-1,61
 297 284 297 284 318.5 257.5 c 128,-1,62
 340 231 340 231 379 231 c 0,63,64
 383 231 383 231 390 238 c 128,-1,65
 397 245 397 245 400 252 c 1,66,67
 415 273 415 273 450.5 319.5 c 128,-1,68
 486 366 486 366 493 391 c 1,69,70
 519 439 519 439 531 501 c 0,71,72
 537 531 537 531 543 606 c 0,73,74
 544 620 544 620 544 652 c 128,-1,75
 544 684 544 684 543 735 c 0,76,77
 541 805 541 805 459 846 c 1,78,79
 359 775 359 775 321 673.5 c 128,-1,80
 283 572 283 572 283 462 c 0,58,59
EndSplineSet
Validated: 1
EndChar

StartChar: p
Encoding: 112 112 56
Width: 1116
VWidth: 1597
Flags: W
LayerCount: 2
Fore
SplineSet
49 -310 m 0,0,1
 67 -248 67 -248 67 -181 c 2,2,3
 67 -147 l 1,4,-1
 67 -90 l 1,5,-1
 67 -32 l 1,6,-1
 67 0 l 1,7,8
 71 43 71 43 74.5 112 c 128,-1,9
 78 181 78 181 83.5 246.5 c 128,-1,10
 89 312 89 312 92 360 c 2,11,-1
 95 409 l 1,12,-1
 120 431 l 1,13,14
 120 434 120 434 124 464.5 c 128,-1,15
 128 495 128 495 132.5 534 c 128,-1,16
 137 573 137 573 141 615 c 128,-1,17
 145 657 145 657 145 685 c 2,18,19
 145 716 l 1,20,-1
 145 775 l 1,21,-1
 145 832 l 1,22,-1
 145 863 l 1,23,24
 160 906 160 906 215 959 c 128,-1,25
 270 1012 270 1012 326 1012 c 0,26,27
 330 1012 330 1012 339 1003 c 128,-1,28
 348 994 348 994 351 987 c 0,29,30
 356 976 356 976 366 912 c 0,31,32
 376 846 376 846 376 838 c 0,33,34
 376 837 376 837 384 835 c 0,35,36
 398 832 398 832 401 835 c 0,37,38
 463 912 463 912 464 912 c 0,39,40
 515 950 515 950 518 950 c 0,41,42
 519 950 519 950 556 980 c 0,43,44
 572 993 572 993 620 1008 c 1,45,46
 680 1041 680 1041 737 1041 c 2,47,48
 863 1041 l 1,49,-1
 883 1041 l 1,50,51
 894 1034 894 1034 919 1023 c 128,-1,52
 944 1012 944 1012 968 1000 c 2,53,-1
 1010 976 l 2,54,55
 1030 966 1030 966 1036 963 c 1,56,57
 1039 960 1039 960 1048.5 929.5 c 128,-1,58
 1058 899 1058 899 1058 888 c 0,59,60
 1058 881 1058 881 1059.5 829.5 c 128,-1,61
 1061 778 1061 778 1061 749 c 2,62,-1
 1061 712 l 2,63,64
 1062 690 1062 690 1060 666 c 0,65,66
 1058 644 1058 644 1058 628 c 2,67,-1
 1058 607 l 2,68,69
 1058 600 1058 600 1052.5 546.5 c 128,-1,70
 1047 493 1047 493 1044 484 c 0,71,72
 1005 393 1005 393 916 292 c 0,73,74
 814 176 814 176 760 132 c 0,75,76
 757 129 757 129 637.5 80.5 c 128,-1,77
 518 32 518 32 512 24 c 1,78,79
 508 24 508 24 474 20 c 128,-1,80
 440 16 440 16 415.5 14.5 c 128,-1,81
 391 13 391 13 365 32 c 128,-1,82
 339 51 339 51 336 48 c 0,83,84
 333 44 333 44 323.5 2 c 128,-1,85
 314 -40 314 -40 302 -112 c 128,-1,86
 290 -184 290 -184 283 -203.5 c 128,-1,87
 276 -223 276 -223 276 -226 c 2,88,-1
 268 -260 l 1,89,-1
 260 -300 l 1,90,91
 252 -307 252 -307 252 -360 c 0,92,93
 252 -370 252 -370 228 -424 c 1,94,95
 234 -439 234 -439 152 -527 c 0,96,97
 116 -566 116 -566 0 -548 c 1,98,99
 -8 -506 -8 -506 49 -310 c 0,0,1
678 811 m 0,100,101
 656 811 656 811 617 807 c 128,-1,102
 578 803 578 803 575 800 c 0,103,104
 563 786 563 786 548 778 c 0,105,106
 530 768 530 768 496 759 c 0,107,108
 468 751 468 751 440 712 c 1,109,-1
 401 661 l 1,110,111
 390 643 390 643 370 604 c 0,112,113
 355 573 355 573 351 554 c 2,114,-1
 324 428 l 2,115,116
 307 349 307 349 308 340 c 0,117,118
 309 321 309 321 308 310 c 0,119,120
 307 291 307 291 328 256 c 1,121,-1
 368 240 l 2,122,123
 388 232 388 232 413 232 c 0,124,125
 488 232 488 232 600 308 c 0,126,127
 672 357 672 357 720 400 c 0,128,129
 786 460 786 460 788 464 c 0,130,131
 826 548 826 548 828 579 c 0,132,133
 836 686 836 686 836 710 c 2,134,135
 836 716 l 1,136,137
 829 778 829 778 776 800 c 1,138,139
 762 803 762 803 725 807 c 128,-1,140
 688 811 688 811 678 811 c 0,100,101
EndSplineSet
Validated: 33
EndChar

StartChar: q
Encoding: 113 113 57
Width: 988
VWidth: 1597
Flags: W
LayerCount: 2
Fore
SplineSet
564 57 m 0,0,1
 564 71 564 71 582 134 c 0,2,3
 584 141 584 141 580 143 c 0,4,5
 569 152 569 152 556 152 c 0,6,7
 533 152 533 152 502 127 c 1,8,9
 490 127 490 127 441 74 c 0,10,11
 416 47 416 47 383.5 23.5 c 128,-1,12
 351 0 351 0 304 -8 c 0,13,14
 252 -17 252 -17 210 -17 c 0,15,16
 196 -17 196 -17 183 -16 c 0,17,18
 159 -14 159 -14 105 16 c 0,19,20
 76 32 76 32 56 62 c 0,21,22
 39 89 39 89 35 137 c 128,-1,23
 31 185 31 185 31 231 c 0,24,25
 31 337 31 337 55 426.5 c 128,-1,26
 79 516 79 516 125 608 c 1,27,28
 132 615 132 615 166 678 c 128,-1,29
 200 741 200 741 203 749 c 1,30,31
 253 809 253 809 294.5 864.5 c 128,-1,32
 336 920 336 920 389.5 971.5 c 128,-1,33
 443 1023 443 1023 507 1055 c 128,-1,34
 571 1087 571 1087 660 1087 c 0,35,36
 770 1087 770 1087 805.5 1037 c 128,-1,37
 841 987 841 987 869 891 c 1,38,39
 869 859 869 859 865.5 775.5 c 128,-1,40
 862 692 862 692 856 602 c 2,41,-1
 846 428 l 2,42,43
 841 344 841 344 837 312 c 1,44,45
 837 295 837 295 831.5 252.5 c 128,-1,46
 826 210 826 210 821 162 c 2,47,-1
 812 75 l 2,48,49
 808 28 808 28 805 21 c 0,50,51
 788 -9 788 -9 777 -53 c 0,52,53
 771 -75 771 -75 760 -121 c 0,54,55
 732 -230 732 -230 732 -239 c 2,56,-1
 732 -240 l 1,57,58
 795 -240 795 -240 795 -216 c 1,59,60
 806 -216 806 -216 834 -211 c 128,-1,61
 862 -206 862 -206 890.5 -208 c 128,-1,62
 919 -210 919 -210 943.5 -211.5 c 128,-1,63
 968 -213 968 -213 979 -213 c 1,64,65
 979 -270 979 -270 949 -309 c 128,-1,66
 919 -348 919 -348 874.5 -378 c 128,-1,67
 830 -408 830 -408 773 -430 c 128,-1,68
 716 -452 716 -452 684 -480 c 0,69,70
 676 -488 676 -488 634.5 -507 c 128,-1,71
 593 -526 593 -526 592 -534.5 c 128,-1,72
 591 -543 591 -543 578 -551.5 c 128,-1,73
 565 -560 565 -560 554 -564 c 1,74,75
 542 -566 542 -566 531 -567 c 1,76,-1
 520 -567 l 1,77,-1
 506 -564 l 2,78,79
 502 -564 502 -564 490 -552 c 2,80,-1
 474 -535 l 1,81,-1
 474 -521 l 1,82,-1
 474 -503 l 2,83,84
 474 -420 474 -420 476 -405 c 0,85,86
 482 -373 482 -373 482 -362 c 1,87,88
 486 -348 486 -348 490 -322 c 2,89,90
 498 -268 l 2,91,92
 502 -246 502 -246 509 -222 c 0,93,94
 530 -151 530 -151 532 -141 c 0,95,96
 546 -28 546 -28 546 -27 c 0,97,98
 564 2 564 2 564 57 c 0,0,1
287 426 m 0,99,100
 287 369 287 369 301 335.5 c 128,-1,101
 315 302 315 302 358 249 c 1,102,-1
 368 245 l 1,103,104
 390 245 390 245 455 297 c 128,-1,105
 520 349 520 349 554 417 c 0,106,107
 584 477 584 477 584 537 c 2,108,-1
 584 552 l 1,109,110
 581 618 581 618 581 650 c 0,111,112
 581 661 581 661 579.5 692.5 c 128,-1,113
 578 724 578 724 578 732 c 1,114,115
 571 735 571 735 546 747.5 c 128,-1,116
 521 760 521 760 514 760 c 1,117,118
 514 763 514 763 496 763 c 2,119,-1
 489 763 l 2,120,121
 486 763 486 763 482 760 c 0,122,123
 379 700 379 700 333 625 c 128,-1,124
 287 550 287 550 287 426 c 0,99,100
EndSplineSet
Validated: 1
EndChar

StartChar: r
Encoding: 114 114 58
Width: 887
VWidth: 1597
Flags: W
LayerCount: 2
Fore
SplineSet
32 36 m 1,0,1
 32 43 32 43 32 66 c 128,-1,2
 32 89 32 89 30 113.5 c 128,-1,3
 28 138 28 138 28 161.5 c 128,-1,4
 28 185 28 185 28 195 c 0,5,6
 28 210 28 210 28 236.5 c 128,-1,7
 28 263 28 263 30 287.5 c 128,-1,8
 32 312 32 312 32 332 c 128,-1,9
 32 352 32 352 32 355 c 0,10,11
 32 369 32 369 42.5 420.5 c 128,-1,12
 53 472 53 472 63.5 532.5 c 128,-1,13
 74 593 74 593 84.5 644.5 c 128,-1,14
 95 696 95 696 95 707 c 1,15,16
 106 788 106 788 106 841.5 c 128,-1,17
 106 895 106 895 123 945.5 c 128,-1,18
 140 996 140 996 178 1027 c 128,-1,19
 216 1058 216 1058 300 1090 c 1,20,-1
 308 1090 l 2,21,22
 311 1090 311 1090 312.5 1091 c 128,-1,23
 314 1092 314 1092 318 1092 c 0,24,25
 326 1092 326 1092 332 1072 c 0,26,27
 336 1064 336 1064 350 1024 c 0,28,29
 357 945 l 0,30,31
 361 917 361 917 397 917 c 0,32,33
 403 917 403 917 411 918 c 1,34,35
 506 1020 506 1020 566 1036 c 0,36,37
 680 1066 680 1066 754 1066 c 0,38,39
 757 1066 757 1066 776.5 1068 c 128,-1,40
 796 1070 796 1070 817.5 1068 c 128,-1,41
 839 1066 839 1066 858.5 1059 c 128,-1,42
 878 1052 878 1052 882 1032 c 1,43,44
 864 1025 864 1025 837 996.5 c 128,-1,45
 810 968 810 968 792 960 c 1,46,47
 763 928 763 928 744 910 c 0,48,49
 723 892 723 892 686 904 c 1,50,51
 683 900 683 900 661.5 890 c 128,-1,52
 640 880 640 880 618 875 c 128,-1,53
 596 870 596 870 577 864.5 c 128,-1,54
 558 859 558 859 554 859 c 1,55,56
 544 856 544 856 521 843.5 c 128,-1,57
 498 831 498 831 490 827 c 1,58,59
 472 813 472 813 443.5 777.5 c 128,-1,60
 415 742 415 742 390 715.5 c 128,-1,61
 365 689 365 689 345.5 667.5 c 128,-1,62
 326 646 326 646 323 643 c 0,63,64
 319 639 319 639 314 614 c 128,-1,65
 309 589 309 589 303.5 559 c 128,-1,66
 298 529 298 529 294.5 499 c 128,-1,67
 291 469 291 469 291 455 c 1,68,69
 287 437 287 437 285.5 390.5 c 128,-1,70
 284 344 284 344 284 292.5 c 128,-1,71
 284 241 284 241 285.5 195 c 128,-1,72
 287 149 287 149 291 131 c 1,73,74
 252 85 252 85 204 42.5 c 128,-1,75
 156 0 156 0 95 0 c 0,76,77
 74 0 74 0 56.5 3.5 c 128,-1,78
 39 7 39 7 32 36 c 1,0,1
EndSplineSet
Validated: 1
EndChar

StartChar: s
Encoding: 115 115 59
Width: 795
VWidth: 1597
Flags: W
LayerCount: 2
Fore
SplineSet
262 484 m 0,0,1
 207 510 207 510 193 520 c 1,2,-1
 160 540 l 1,3,4
 157 544 157 544 142.5 577.5 c 128,-1,5
 128 611 128 611 117 618 c 1,6,-1
 102 678 l 0,7,-1
 102 726 l 0,8,9
 98 753 98 753 98 778 c 0,10,11
 98 872 98 872 157 924 c 8,12,13
 200 962 200 962 208 968 c 0,14,15
 252 1002 252 1002 271 1012 c 1,16,17
 274 1016 274 1016 293.5 1027 c 128,-1,18
 313 1038 313 1038 320 1038 c 1,19,20
 331 1045 331 1045 345 1046.5 c 128,-1,21
 359 1048 359 1048 374 1052 c 1,22,23
 388 1056 388 1056 404 1061 c 128,-1,24
 420 1066 420 1066 431 1074 c 1,25,26
 524 1065 524 1065 537 1059 c 0,27,28
 640 1014 640 1014 645 1011 c 1,29,30
 736 990 736 990 741 936 c 0,31,32
 743 917 743 917 743 901 c 0,33,34
 743 860 743 860 732 834 c 1,35,36
 693 816 693 816 654 798 c 1,37,-1
 606 777 l 1,38,39
 581 776 581 776 556 775 c 2,40,-1
 532 775 l 1,41,42
 510 782 510 782 503 784 c 128,-1,43
 496 786 496 786 493 789 c 0,44,45
 475 811 475 811 459 828.5 c 128,-1,46
 443 846 443 846 418 850 c 1,47,-1
 421 850 l 1,48,49
 412 852 412 852 404 852 c 0,50,51
 364 852 364 852 361 804 c 1,52,-1
 351 768 l 1,53,-1
 345 721 l 1,54,55
 363 710 363 710 395 697.5 c 128,-1,56
 427 685 427 685 438 681 c 1,57,-1
 441 674 l 2,58,59
 447 660 447 660 471 655 c 0,60,61
 494 650 494 650 512 642 c 1,62,-1
 533 635 l 1,63,64
 533 632 533 632 537 628 c 1,65,66
 537 625 537 625 541 621 c 1,67,68
 551 614 551 614 565.5 605 c 128,-1,69
 580 596 580 596 594 589 c 0,70,71
 622 575 622 575 641.5 564.5 c 128,-1,72
 661 554 661 554 665 550 c 0,73,74
 683 536 683 536 707.5 504 c 128,-1,75
 732 472 732 472 729 468 c 1,76,77
 722 419 722 419 714.5 376.5 c 128,-1,78
 707 334 707 334 700 284 c 1,79,80
 682 277 682 277 675 263 c 128,-1,81
 668 249 668 249 661 231 c 1,82,83
 654 210 654 210 647 192 c 1,84,85
 641 186 641 186 624 176 c 0,86,87
 588 153 588 153 586 151 c 0,88,89
 553.541 130.4 553.541 130.4 552.044 129.995 c 24,90,91
 546.21 126.498 546.21 126.498 540.375 123 c 2,92,-1
 537 121 l 2,93,94
 519.412 110.177 519.412 110.177 519 110 c 0,95,96
 512 107 512 107 508 103 c 0,97,98
 505 99 505 99 476.5 83 c 128,-1,99
 448 67 448 67 441 64 c 1,100,101
 430 57 430 57 408 38 c 128,-1,102
 386 19 386 19 351 12 c 1,103,104
 344 0 344 0 258 0 c 0,105,106
 220 0 220 0 181 0 c 1,107,108
 146 7 146 7 128.5 13.5 c 128,-1,109
 111 20 111 20 75 27 c 1,110,111
 60 36 60 36 38.5 49.5 c 128,-1,112
 17 63 17 63 3 70 c 1,113,-1
 17 166 l 1,114,115
 20.8291 170.83 20.8291 170.83 24.6582 175.66 c 0,116,117
 30.1582 181.16 30.1582 181.16 39.5791 186.08 c 128,-1,118
 49 191 49 191 65 203.5 c 128,-1,119
 81 216 81 216 92 223 c 1,120,121
 120 244 120 244 134 257 c 0,122,123
 143 265 143 265 168 265 c 0,124,125
 181 265 181 265 199 263 c 1,126,127
 206 263 206 263 222 257.5 c 128,-1,128
 238 252 238 252 249 249 c 1,129,130
 256 231 256 231 268.5 229 c 128,-1,131
 281 227 281 227 295 227 c 0,132,133
 299 227 299 227 300.5 225.5 c 128,-1,134
 302 224 302 224 306 224 c 0,135,136
 340 224 340 224 363 231 c 0,137,138
 373 234 373 234 386 238.5 c 128,-1,139
 399 243 399 243 423 267 c 1,140,-1
 480 366 l 1,141,142
 454.183 391.817 454.183 391.817 445 396 c 0,143,144
 433.763 401.119 433.763 401.119 384 426 c 0,145,146
 382 427 382 427 262 484 c 0,0,1
160 540 m 1025,147,-1
EndSplineSet
EndChar

StartChar: t
Encoding: 116 116 60
Width: 875
VWidth: 1597
Flags: W
LayerCount: 2
Fore
SplineSet
24 872 m 1,0,1
 24 922 24 922 43.5 950 c 128,-1,2
 63 978 63 978 91.5 999.5 c 128,-1,3
 120 1021 120 1021 150 1040.5 c 128,-1,4
 180 1060 180 1060 202 1092 c 1,5,6
 205 1110 205 1110 214 1156 c 128,-1,7
 223 1202 223 1202 233.5 1253.5 c 128,-1,8
 244 1305 244 1305 253 1353 c 128,-1,9
 262 1401 262 1401 265 1419 c 1,10,11
 273 1444 273 1444 294 1479.5 c 128,-1,12
 315 1515 315 1515 341.5 1545 c 128,-1,13
 368 1575 368 1575 396.5 1596.5 c 128,-1,14
 425 1618 425 1618 447 1618 c 0,15,16
 486 1618 486 1618 509 1586 c 128,-1,17
 532 1554 532 1554 532 1518 c 0,18,19
 532 1497 532 1497 528.5 1479 c 128,-1,20
 525 1461 525 1461 496 1451 c 1,21,-1
 464 1156 l 1,22,23
 463 1151 463 1151 463 1145 c 0,24,25
 463 1118 463 1118 496 1092 c 0,26,27
 518 1076 518 1076 540 1061 c 1,28,29
 554 1057 554 1057 591.5 1055.5 c 128,-1,30
 629 1054 629 1054 669.5 1054 c 128,-1,31
 710 1054 710 1054 747.5 1055.5 c 128,-1,32
 785 1057 785 1057 803 1061 c 1,33,34
 827 1050 827 1050 832.5 1030.5 c 128,-1,35
 838 1011 838 1011 838 990 c 0,36,37
 838 983 838 983 836.5 972.5 c 128,-1,38
 835 962 835 962 835 958 c 1,39,40
 763 868 763 868 656 845 c 0,41,42
 548 827 548 827 518 827 c 0,43,44
 491 827 491 827 464 829 c 1,45,46
 432 758 432 758 414.5 673 c 128,-1,47
 397 588 397 588 397 517 c 2,48,-1
 397 499 l 1,49,50
 400 478 400 478 405.5 440.5 c 128,-1,51
 411 403 411 403 416.5 367.5 c 128,-1,52
 422 332 422 332 425.5 302 c 128,-1,53
 429 272 429 272 429 268 c 1,54,55
 432 261 432 261 444.5 236 c 128,-1,56
 457 211 457 211 464 204 c 1,57,58
 471 201 471 201 493 199.5 c 128,-1,59
 515 198 515 198 522 198 c 0,60,61
 568 198 568 198 600 214 c 128,-1,62
 632 230 632 230 662 251.5 c 128,-1,63
 692 273 692 273 724 296 c 128,-1,64
 756 319 756 319 803 337 c 1,65,-1
 803 319 l 2,66,67
 803 266 803 266 763.5 223 c 128,-1,68
 724 180 724 180 671 144.5 c 128,-1,69
 618 109 618 109 573 84 c 128,-1,70
 528 59 528 59 496 37 c 1,71,72
 493 37 493 37 480.5 23 c 128,-1,73
 468 9 468 9 464 5 c 0,74,75
 457 -2 457 -2 430.5 -12.5 c 128,-1,76
 404 -23 404 -23 397 -27 c 1,77,-1
 383 -27 l 1,78,-1
 365 -27 l 1,79,80
 336 -20 336 -20 286.5 -7.5 c 128,-1,81
 237 5 237 5 234 5 c 1,82,83
 226 12 226 12 214 35.5 c 128,-1,84
 202 59 202 59 191 85.5 c 128,-1,85
 180 112 180 112 173 137 c 128,-1,86
 166 162 166 162 166 172 c 2,87,-1
 166 829 l 2,88,89
 166 836 166 836 153.5 847 c 128,-1,90
 141 858 141 858 134 861 c 0,91,92
 123 865 123 865 79 868.5 c 128,-1,93
 35 872 35 872 24 872 c 1,0,1
EndSplineSet
Validated: 1
EndChar

StartChar: u
Encoding: 117 117 61
Width: 858
VWidth: 1597
Flags: W
LayerCount: 2
Fore
SplineSet
114 922 m 16,0,1
 124 959 124 959 150 982 c 1,2,3
 190 1002 190 1002 230 1022 c 1,4,5
 306 1033 306 1033 312 1034 c 0,6,7
 314 1034 314 1034 315 1034 c 0,8,9
 364 1034 364 1034 374 978 c 1,10,-1
 346 908 l 1,11,-1
 332 834 l 0,12,13
 320 772 320 772 318 746 c 1,14,15
 306 725 306 725 302 690 c 0,16,17
 298 656 298 656 288 604 c 1,18,-1
 256 412 l 0,19,20
 249 372 249 372 249 324 c 0,21,22
 249 293 249 293 252 258 c 0,23,24
 254 224 254 224 313 224 c 0,25,26
 316 224 316 224 320 224 c 1,27,28
 327 224 327 224 335 224 c 0,29,30
 407 224 407 224 454 260 c 0,31,32
 533 321 533 321 542 370 c 1,33,34
 577 439 577 439 586 534 c 0,35,36
 604 724 604 724 614 766 c 1,37,-1
 626 858 l 1,38,39
 632 925 632 925 642 932 c 0,40,41
 660 944 660 944 694 980 c 0,42,43
 698 984 698 984 736 1012 c 0,44,45
 750 1024 750 1024 779 1024 c 0,46,47
 795 1024 795 1024 816 1020 c 1,48,49
 828 1001 828 1001 828 917 c 0,50,51
 828 905 828 905 828 892 c 0,52,-1
 812 762 l 1,53,54
 803 705 803 705 797 641 c 128,-1,55
 791 577 791 577 780.5 520.5 c 128,-1,56
 770 464 770 464 766 442 c 1,57,58
 766 435 766 435 760.5 412 c 128,-1,59
 755 389 755 389 750 364 c 0,60,61
 746 339 746 339 740 316 c 24,62,63
 735 295 735 295 715 219 c 1,64,65
 712 212 712 212 701.5 188.5 c 128,-1,66
 691 165 691 165 681 153 c 1,67,68
 651 116 651 116 649 115 c 0,69,70
 643 113 643 113 598 80 c 0,71,72
 565 56 565 56 536 46 c 0,73,74
 456 19 456 19 430 12 c 1,75,-1
 348 0 l 0,76,77
 301 -6 301 -6 253 -6 c 0,78,79
 163 -6 163 -6 70 16 c 1,80,81
 34 44 34 44 16 80 c 1,82,83
 15 83 15 83 15 96 c 0,84,85
 15 161 15 161 48 484 c 8,86,87
 55 547 55 547 86 756 c 24,88,89
 108 899 108 899 114 922 c 16,0,1
EndSplineSet
Validated: 1
EndChar

StartChar: v
Encoding: 118 118 62
Width: 830
VWidth: 1597
Flags: W
LayerCount: 2
Fore
SplineSet
46 488 m 1,0,1
 31 666 31 666 31 845 c 2,2,-1
 31 934 l 1,3,-1
 166 1069 l 1,4,-1
 255 1069 l 1,5,6
 258 1040 258 1040 263.5 971 c 128,-1,7
 269 902 269 902 278 824 c 128,-1,8
 287 746 287 746 292 675 c 128,-1,9
 297 604 297 604 301 579 c 1,10,11
 301 561 301 561 310 511.5 c 128,-1,12
 319 462 319 462 322 444 c 1,13,14
 329 451 329 451 345 467 c 128,-1,15
 361 483 361 483 368 490 c 1,16,17
 372 497 372 497 388 531 c 128,-1,18
 404 565 404 565 423.5 602 c 128,-1,19
 443 639 443 639 461 668 c 128,-1,20
 479 697 479 697 482 704 c 1,21,22
 486 707 486 707 504.5 740 c 128,-1,23
 523 773 523 773 530 776 c 1,24,25
 565 826 565 826 591 871 c 128,-1,26
 617 916 617 916 649 964 c 128,-1,27
 681 1012 681 1012 727 1044 c 128,-1,28
 773 1076 773 1076 848 1076 c 1,29,30
 848 1069 848 1069 844.5 1030 c 128,-1,31
 841 991 841 991 837 980 c 1,32,33
 826 941 826 941 796 898.5 c 128,-1,34
 766 856 766 856 732.5 813.5 c 128,-1,35
 699 771 699 771 665 726.5 c 128,-1,36
 631 682 631 682 613 646 c 1,37,38
 610 643 610 643 604.5 625 c 128,-1,39
 599 607 599 607 590 589.5 c 128,-1,40
 581 572 581 572 576 554 c 128,-1,41
 571 536 571 536 567 533 c 1,42,43
 564 522 564 522 553 502.5 c 128,-1,44
 542 483 542 483 531.5 461.5 c 128,-1,45
 521 440 521 440 512 422.5 c 128,-1,46
 503 405 503 405 500 401 c 1,47,48
 500 398 500 398 491 389 c 128,-1,49
 482 380 482 380 478 376 c 1,50,51
 439 309 439 309 419.5 254 c 128,-1,52
 400 199 400 199 375.5 151 c 128,-1,53
 351 103 351 103 308 65.5 c 128,-1,54
 265 28 265 28 187 -4 c 1,55,-1
 166 -4 l 2,56,57
 138 -4 138 -4 122 5 c 128,-1,58
 106 14 106 14 77 43 c 1,59,-1
 46 488 l 1,0,1
EndSplineSet
Validated: 1
EndChar

StartChar: w
Encoding: 119 119 63
Width: 1256
VWidth: 1597
Flags: W
LayerCount: 2
Fore
SplineSet
607 146 m 1,0,1
 607 160 607 160 603.5 200.5 c 128,-1,2
 600 241 600 241 596.5 287.5 c 128,-1,3
 593 334 593 334 589 373 c 128,-1,4
 585 412 585 412 582 430 c 1,5,6
 582 444 582 444 573 488.5 c 128,-1,7
 564 533 564 533 557 550 c 1,8,9
 553 540 553 540 544.5 517 c 128,-1,10
 536 494 536 494 525 467 c 128,-1,11
 514 440 514 440 502 417 c 128,-1,12
 490 394 490 394 486 384 c 1,13,14
 486 380 486 380 482.5 378 c 128,-1,15
 479 376 479 376 475 369 c 1,16,-1
 465 359 l 1,17,18
 433 316 433 316 404.5 254 c 128,-1,19
 376 192 376 192 340.5 135 c 128,-1,20
 305 78 305 78 259 39 c 128,-1,21
 213 0 213 0 142 0 c 0,22,23
 110 0 110 0 99 26.5 c 128,-1,24
 88 53 88 53 81 87 c 128,-1,25
 74 121 74 121 65 151 c 128,-1,26
 56 181 56 181 35 192 c 1,27,-1
 35 906 l 1,28,-1
 177 1048 l 1,29,-1
 262 1048 l 1,30,-1
 262 394 l 1,31,32
 266 394 266 394 278.5 385 c 128,-1,33
 291 376 291 376 298 384 c 1,34,35
 301 384 301 384 310 405 c 128,-1,36
 319 426 319 426 319 430 c 1,37,38
 347 472 347 472 390 573.5 c 128,-1,39
 433 675 433 675 484.5 781.5 c 128,-1,40
 536 888 536 888 591 969.5 c 128,-1,41
 646 1051 646 1051 699 1051 c 0,42,43
 770 1051 770 1051 779 1010 c 128,-1,44
 788 969 788 969 795 906 c 0,45,46
 798 877 798 877 805.5 802.5 c 128,-1,47
 813 728 813 728 821.5 644.5 c 128,-1,48
 830 561 830 561 835.5 486.5 c 128,-1,49
 841 412 841 412 845 384 c 1,50,51
 848 394 848 394 867.5 438.5 c 128,-1,52
 887 483 887 483 916 501 c 1,53,54
 919 515 919 515 930 552 c 128,-1,55
 941 589 941 589 951.5 630 c 128,-1,56
 962 671 962 671 972.5 708.5 c 128,-1,57
 983 746 983 746 987 763 c 0,58,59
 1012 856 1012 856 1035 916.5 c 128,-1,60
 1058 977 1058 977 1129 1048 c 0,61,62
 1146 1065 1146 1065 1164 1068.5 c 128,-1,63
 1182 1072 1182 1072 1203 1072 c 0,64,65
 1249 1072 1249 1072 1249 1026 c 2,66,-1
 1249 1001 l 1,67,68
 1246 977 1246 977 1237 941.5 c 128,-1,69
 1228 906 1228 906 1221 870.5 c 128,-1,70
 1214 835 1214 835 1207 810 c 0,71,-1
 1200 785 l 1,72,-1
 1178 763 l 1,73,74
 1171 746 1171 746 1158.5 705 c 128,-1,75
 1146 664 1146 664 1130.5 618 c 128,-1,76
 1115 572 1115 572 1100.5 531 c 128,-1,77
 1086 490 1086 490 1083 476 c 1,78,79
 1079 469 1079 469 1070 453 c 128,-1,80
 1061 437 1061 437 1058 430 c 1,81,82
 1015 362 1015 362 992 291 c 128,-1,83
 969 220 969 220 941 146 c 1,84,85
 923 96 923 96 891 73 c 128,-1,86
 859 50 859 50 823.5 35.5 c 128,-1,87
 788 21 788 21 754 5 c 128,-1,88
 720 -11 720 -11 699 -46 c 1,89,90
 681 -28 681 -28 670.5 2 c 128,-1,91
 660 32 660 32 651 62 c 128,-1,92
 642 92 642 92 631.5 115 c 128,-1,93
 621 138 621 138 607 146 c 1,0,1
EndSplineSet
Validated: 1
EndChar

StartChar: x
Encoding: 120 120 64
Width: 913
VWidth: 1597
Flags: W
LayerCount: 2
Fore
SplineSet
-7 43 m 1,0,1
 21 92 21 92 56.5 156 c 128,-1,2
 92 220 92 220 131 270 c 1,3,4
 167 312 167 312 193.5 337 c 128,-1,5
 220 362 220 362 220 426 c 0,6,7
 220 511 220 511 199 607 c 128,-1,8
 178 703 178 703 153 785 c 1,9,10
 146 788 146 788 126.5 795.5 c 128,-1,11
 107 803 107 803 87.5 810 c 128,-1,12
 68 817 68 817 53.5 826 c 128,-1,13
 39 835 39 835 39 842 c 0,14,15
 39 874 39 874 65.5 911 c 128,-1,16
 92 948 92 948 129.5 980 c 128,-1,17
 167 1012 167 1012 208 1035 c 128,-1,18
 249 1058 249 1058 277 1058 c 0,19,20
 281 1058 281 1058 293 1056.5 c 128,-1,21
 305 1055 305 1055 309 1055 c 1,22,23
 316 1051 316 1051 334 1037 c 128,-1,24
 352 1023 352 1023 369.5 1003.5 c 128,-1,25
 387 984 387 984 403 968 c 128,-1,26
 419 952 419 952 423 941 c 0,27,28
 426 930 426 930 438.5 898 c 128,-1,29
 451 866 451 866 461.5 830.5 c 128,-1,30
 472 795 472 795 481 763.5 c 128,-1,31
 490 732 490 732 490 717 c 1,32,33
 515 767 515 767 561 824 c 128,-1,34
 607 881 607 881 646 920 c 1,35,36
 661 937 661 937 687.5 964 c 128,-1,37
 714 991 714 991 739 1017.5 c 128,-1,38
 764 1044 764 1044 783 1062 c 0,39,-1
 803 1080 l 1,40,-1
 895 1080 l 1,41,42
 891 1072 891 1072 882.5 1044 c 128,-1,43
 874 1016 874 1016 870 1009 c 1,44,45
 863 987 863 987 845.5 944.5 c 128,-1,46
 828 902 828 902 828 898 c 1,47,48
 799 849 799 849 751 806 c 128,-1,49
 703 763 703 763 668 717 c 1,50,51
 657 707 657 707 635.5 675 c 128,-1,52
 614 643 614 643 591 607.5 c 128,-1,53
 568 572 568 572 550.5 543.5 c 128,-1,54
 533 515 533 515 533 504 c 0,55,56
 533 487 533 487 547 447.5 c 128,-1,57
 561 408 561 408 580.5 369 c 128,-1,58
 600 330 600 330 623 298 c 128,-1,59
 646 266 646 266 668 266 c 0,60,61
 693 266 693 266 709 278.5 c 128,-1,62
 725 291 725 291 749 291 c 0,63,64
 778 291 778 291 781.5 271.5 c 128,-1,65
 785 252 785 252 785 231 c 0,66,67
 785 185 785 185 756.5 142 c 128,-1,68
 728 99 728 99 685.5 67.5 c 128,-1,69
 643 36 643 36 591.5 16 c 128,-1,70
 540 -4 540 -4 497 -4 c 2,71,-1
 490 -4 l 1,72,73
 440 25 440 25 392.5 71 c 128,-1,74
 345 117 345 117 309 156 c 1,75,76
 270 146 270 146 245 121 c 128,-1,77
 220 96 220 96 193.5 67.5 c 128,-1,78
 167 39 167 39 137 17.5 c 128,-1,79
 107 -4 107 -4 64 -4 c 0,80,81
 46 -4 46 -4 19.5 1.5 c 128,-1,82
 -7 7 -7 7 -7 32 c 2,83,-1
 -7 43 l 1,0,1
EndSplineSet
Validated: 1
EndChar

StartChar: y
Encoding: 121 121 65
Width: 906
VWidth: 1597
Flags: W
LayerCount: 2
Fore
SplineSet
2 -559 m 1,0,-1
 -21 -530 l 1,1,-1
 -22 -500 l 1,2,3
 -10 -468 l 1,4,-1
 134 -344 l 1,5,6
 211 -264 211 -264 212 -264 c 0,7,8
 233 -225 233 -225 305 -177 c 0,9,10
 308 -175 308 -175 358 -124 c 0,11,12
 375 -106 375 -106 376.5 -93 c 128,-1,13
 378 -80 378 -80 378 -45 c 0,14,15
 378 -37 378 -37 376 -16 c 128,-1,16
 374 5 374 5 374 8 c 1,17,18
 367 8 367 8 354.5 15.5 c 128,-1,19
 342 23 342 23 340 30 c 1,20,21
 326 55 l 2,22,23
 314 76 314 76 314 90 c 1,24,25
 252 248 252 248 162 435.5 c 128,-1,26
 72 623 72 623 36 800 c 1,27,28
 26 807 26 807 26 851 c 2,29,-1
 26 875 l 2,30,31
 26 900 26 900 36 930.5 c 128,-1,32
 46 961 46 961 64 989 c 128,-1,33
 82 1017 82 1017 107 1037 c 128,-1,34
 132 1057 132 1057 160 1057 c 0,35,36
 199 1057 199 1057 211.5 1017.5 c 128,-1,37
 224 978 224 978 234 954 c 1,38,-1
 250 930 l 2,39,40
 252 928 252 928 274 870 c 0,41,42
 303 796 303 796 314 749 c 1,43,44
 331 721 331 721 334 689 c 0,45,46
 337 653 337 653 364.5 580 c 128,-1,47
 392 507 392 507 398 479 c 128,-1,48
 404 451 404 451 404 444 c 1,49,50
 407 433 407 433 419.5 404.5 c 128,-1,51
 432 376 432 376 444 344 c 128,-1,52
 456 312 456 312 469 287.5 c 128,-1,53
 482 263 482 263 484 263 c 1,54,55
 488 271 488 271 495 295 c 128,-1,56
 502 319 502 319 502 326 c 1,57,58
 509 337 509 337 516.5 362 c 128,-1,59
 524 387 524 387 529 415.5 c 128,-1,60
 534 444 534 444 540 470.5 c 128,-1,61
 546 497 546 497 548 507 c 1,62,-1
 570 532 l 1,63,-1
 670 887 l 1,64,65
 692 902 692 902 708 926 c 2,66,-1
 741 974 l 2,67,68
 758 998 758 998 778 1015.5 c 128,-1,69
 798 1033 798 1033 826 1033 c 256,70,71
 854 1033 854 1033 867 1026 c 128,-1,72
 880 1019 880 1019 880 987 c 0,73,74
 880 976 880 976 875 940 c 0,75,76
 873 927 873 927 860 868 c 0,77,78
 854 841 854 841 854 813 c 0,79,80
 854 802 854 802 855 791 c 0,81,82
 860 752 860 752 848 748 c 1,83,84
 835 688 835 688 774 493 c 0,85,86
 758 442 758 442 758 425 c 1,87,88
 756 410 756 410 718 266 c 1,89,-1
 682 169 l 1,90,-1
 618 8 l 1,91,92
 620 -3 620 -3 620 -15 c 0,93,94
 620 -51 620 -51 606 -95 c 0,95,96
 578 -184 578 -184 562 -199 c 1,97,98
 559 -197 559 -197 480 -264 c 2,99,-1
 308 -408 l 2,100,101
 267 -442 267 -442 248 -464 c 1,102,-1
 202 -508 l 1,103,104
 156 -554 156 -554 126 -558 c 0,105,106
 95 -562 95 -562 63 -564 c 1,107,108
 32 -561 32 -561 2 -559 c 1,0,-1
EndSplineSet
Validated: 33
EndChar

StartChar: z
Encoding: 122 122 66
Width: 898
VWidth: 1597
Flags: W
LayerCount: 2
Fore
SplineSet
94 813 m 1,0,1
 94 838 94 838 105 879 c 128,-1,2
 116 920 116 920 135 959 c 128,-1,3
 154 998 154 998 182 1026 c 0,4,5
 212 1055 212 1055 248 1055 c 2,6,-1
 852 1055 l 2,7,8
 856 1055 856 1055 864 1044 c 0,9,10
 875 1030 875 1030 877 1026 c 2,11,-1
 880 1019 l 1,12,-1
 880 1012 l 2,13,14
 880 959 880 959 836 925 c 128,-1,15
 792 891 792 891 763 856 c 1,16,17
 763 852 763 852 752.5 834.5 c 128,-1,18
 742 817 742 817 727.5 794 c 128,-1,19
 713 771 713 771 699 747.5 c 128,-1,20
 685 724 685 724 678 714 c 1,21,22
 646 653 646 653 603.5 598 c 128,-1,23
 561 543 561 543 520 488 c 128,-1,24
 479 433 479 433 445.5 372.5 c 128,-1,25
 412 312 412 312 397 245 c 1,26,-1
 884 245 l 1,27,28
 884 185 884 185 864.5 151 c 128,-1,29
 845 117 845 117 814.5 92 c 128,-1,30
 784 67 784 67 747 42.5 c 128,-1,31
 710 18 710 18 678 -21 c 1,32,33
 646 -25 646 -25 561 -28.5 c 128,-1,34
 476 -32 476 -32 381.5 -37.5 c 128,-1,35
 287 -43 287 -43 202 -46.5 c 128,-1,36
 117 -50 117 -50 85 -50 c 0,37,38
 78 -50 78 -50 53 -51.5 c 128,-1,39
 28 -53 28 -53 21 -53 c 1,40,41
 21 4 21 4 58.5 78.5 c 128,-1,42
 96 153 96 153 145.5 227.5 c 128,-1,43
 195 302 195 302 250 371 c 0,44,45
 328 469 328 469 341 487 c 0,46,47
 351 501 351 501 383 549 c 128,-1,48
 415 597 415 597 449 650 c 128,-1,49
 483 703 483 703 509.5 751 c 128,-1,50
 536 799 536 799 539 813 c 1,51,-1
 94 813 l 1,0,1
EndSplineSet
Validated: 1
EndChar

StartChar: exclam
Encoding: 33 33 67
Width: 416
VWidth: 1597
Flags: W
LayerCount: 2
Fore
SplineSet
51 707 m 1,0,-1
 94 735 l 1,1,-1
 104 1494 l 2,2,3
 104 1498 104 1498 115 1510.5 c 128,-1,4
 126 1523 126 1523 142 1539 c 128,-1,5
 158 1555 158 1555 175.5 1569 c 128,-1,6
 193 1583 193 1583 204 1590 c 1,7,8
 236 1619 236 1619 282 1626 c 0,9,10
 311 1630 311 1630 338 1630 c 0,11,12
 353 1630 353 1630 367 1629 c 1,13,14
 367 1615 367 1615 365 1581.5 c 128,-1,15
 363 1548 363 1548 361.5 1510.5 c 128,-1,16
 360 1473 360 1473 358 1437.5 c 128,-1,17
 356 1402 356 1402 356 1388 c 0,18,19
 356 1349 356 1349 351 1260.5 c 128,-1,20
 346 1172 346 1172 339 1078 c 128,-1,21
 332 984 332 984 326.5 904 c 128,-1,22
 321 824 321 824 321 799 c 1,23,24
 314 718 314 718 299.5 643.5 c 128,-1,25
 285 569 285 569 257 513.5 c 128,-1,26
 229 458 229 458 179 426.5 c 128,-1,27
 129 395 129 395 51 395 c 1,28,-1
 51 707 l 1,0,-1
339 244 m 0,29,30
 339 237 339 237 336.5 219 c 128,-1,31
 334 201 334 201 334 194 c 1,32,33
 327 183 327 183 308 160 c 128,-1,34
 289 137 289 137 267.5 112.5 c 128,-1,35
 246 88 246 88 224.5 64.5 c 128,-1,36
 203 41 203 41 197 31 c 1,37,38
 193 27 193 27 171.5 16.5 c 128,-1,39
 150 6 150 6 144 2 c 1,40,41
 140 2 140 2 136.5 0.5 c 128,-1,42
 133 -1 133 -1 128 -1 c 0,43,44
 88 2 88 2 62 36 c 0,45,46
 40 65 40 65 40 105 c 0,47,48
 40 113 40 113 41 120 c 1,49,50
 41 141 41 141 74.5 176.5 c 128,-1,51
 108 212 108 212 152.5 245.5 c 128,-1,52
 197 279 197 279 239 304 c 128,-1,53
 281 329 281 329 300 329 c 0,54,55
 328 329 328 329 333.5 300.5 c 128,-1,56
 339 272 339 272 339 244 c 0,29,30
EndSplineSet
Validated: 1
EndChar

StartChar: quotedbl
Encoding: 34 34 68
Width: 525
VWidth: 1597
Flags: W
LayerCount: 2
Fore
SplineSet
30 1109 m 0,0,1
 30 1116 30 1116 32 1139 c 128,-1,2
 34 1162 34 1162 34 1187 c 128,-1,3
 34 1212 34 1212 34 1233 c 128,-1,4
 34 1254 34 1254 30 1265 c 1,5,6
 35 1288 35 1288 35 1317 c 0,7,8
 36 1332 36 1332 34 1348 c 0,9,10
 32 1379 32 1379 31 1410 c 0,11,12
 31 1428 31 1428 32 1446 c 0,13,14
 34 1496 34 1496 51.5 1536.5 c 128,-1,15
 69 1577 69 1577 119 1599 c 1,16,17
 135 1609 135 1609 146 1609 c 0,18,19
 156 1608 156 1608 162 1602 c 0,20,21
 176 1588 176 1588 186 1560 c 1,22,23
 218 1490 218 1490 222 1432 c 0,24,25
 223 1422 223 1422 222 1411 c 0,26,27
 222 1364 222 1364 209 1322 c 0,28,29
 193 1270 193 1270 164.5 1219 c 128,-1,30
 136 1168 136 1168 101 1109 c 1,31,32
 97 1106 97 1106 94 1098 c 1,33,34
 90 1095 90 1095 90 1087 c 2,35,-1
 90 1084 l 1,36,37
 87 1079 87 1079 83 1080 c 1,38,39
 80 1077 80 1077 76 1076 c 1,40,-1
 66 1073 l 1,41,42
 58 1073 58 1073 44 1085.5 c 128,-1,43
 30 1098 30 1098 30 1109 c 0,0,1
261 1112 m 1,44,45
 268 1130 268 1130 273 1188 c 0,46,47
 276 1224 276 1224 276 1245 c 0,48,49
 276 1258 276 1258 275 1265 c 1,50,51
 280 1292 280 1292 280 1328 c 0,52,53
 280 1338 280 1338 280 1349 c 128,-1,54
 280 1360 280 1360 280 1372 c 0,55,56
 280 1411 280 1411 285 1449 c 0,57,58
 292 1499 292 1499 313.5 1539.5 c 128,-1,59
 335 1580 335 1580 385 1599 c 1,60,61
 398 1603 398 1603 408 1603 c 0,62,63
 422 1602 422 1602 429 1594 c 0,64,65
 440 1580 440 1580 448 1552 c 1,66,67
 473 1477 473 1477 473 1422.5 c 128,-1,68
 473 1368 473 1368 453.5 1318 c 128,-1,69
 434 1268 434 1268 402 1218 c 128,-1,70
 370 1168 370 1168 332 1109 c 1,71,72
 328 1106 328 1106 324 1098 c 2,73,-1
 317 1084 l 1,74,-1
 314 1080 l 1,75,76
 311 1080 311 1080 310.5 1078 c 128,-1,77
 310 1076 310 1076 307 1076 c 2,78,-1
 296 1076 l 1,79,80
 295 1075 295 1075 293 1075 c 0,81,82
 286 1074 286 1074 276 1088 c 0,83,84
 264 1104 264 1104 261 1112 c 1,44,45
EndSplineSet
Validated: 1
EndChar

StartChar: ampersand
Encoding: 38 38 69
Width: 1238
VWidth: 1597
Flags: W
LayerCount: 2
Fore
SplineSet
463 1154 m 16,0,1
 465 1154 465 1154 468 1154 c 0,2,3
 511 1154 511 1154 544 1206 c 0,4,5
 558 1228 558 1228 558 1288 c 0,6,7
 558 1295 558 1295 558 1303 c 8,8,9
 558 1314 558 1314 540 1365 c 24,10,11
 517 1430 517 1430 510 1439 c 24,12,13
 490 1466 490 1466 459 1477 c 16,14,15
 431 1486 431 1486 409 1486 c 0,16,17
 391 1486 391 1486 377 1480 c 8,18,19
 361 1473 361 1473 340 1428 c 16,20,21
 317 1377 317 1377 317 1352 c 0,22,23
 317 1314 317 1314 325 1303 c 1,24,25
 352 1249 352 1249 381 1217 c 24,26,27
 438 1156 438 1156 463 1154 c 16,0,1
473 814 m 8,28,29
 446 810 446 810 366 739 c 24,30,31
 332 709 332 709 295 658 c 24,32,33
 264 614 264 614 258 587 c 24,34,35
 247 533 247 533 247 424 c 0,36,37
 247 325 247 325 317 287 c 0,38,39
 379 253 379 253 433 239 c 16,40,41
 481 225 481 225 508 225 c 0,42,43
 520 225 520 225 529 228 c 8,44,45
 568 240 568 240 636 298 c 0,46,47
 702 355 702 355 711 406 c 0,48,49
 718 449 718 449 718 474 c 0,50,51
 718 493 718 493 714 502 c 8,52,53
 667 610 667 610 658 632 c 0,54,55
 648 655 648 655 537 765 c 16,56,57
 487 814 487 814 474 814 c 0,58,59
 473 814 l 8,28,29
978 254 m 24,60,-1
 1011 232 l 24,61,62
 1022 213 1022 213 1033 194 c 24,63,64
 1038 186 1038 186 1062 158 c 24,65,66
 1090 127 1090 127 1103 109 c 24,67,68
 1132 72 1132 72 1140 56 c 24,69,70
 1158 23 1158 23 1158 9 c 0,71,72
 1158 -2 1158 -2 1145 -16 c 8,73,74
 1129 -33 1129 -33 1115 -37 c 16,75,76
 1112 -38 1112 -38 1100.5 -38 c 128,-1,77
 1089 -38 1089 -38 1069 -37 c 8,78,-1
 1028 -37 l 24,79,80
 1022 -33 1022 -33 969 23 c 24,81,82
 912 83 912 83 907 90 c 0,83,84
 881 133 881 133 866 165 c 0,85,86
 845 210 845 210 831 210 c 0,87,88
 825 210 825 210 821 202 c 0,89,90
 796 153 796 153 781 134 c 24,91,92
 762 113 762 113 718 83 c 24,93,94
 695 63 695 63 672 44 c 24,95,96
 649 30 649 30 612 20 c 24,97,98
 554 4 554 4 519 0 c 16,99,100
 474 -4 474 -4 439 -4 c 128,-1,101
 404 -4 404 -4 378 0 c 8,102,103
 304 11 304 11 229 43 c 24,104,105
 218 48 218 48 172 87 c 24,106,107
 117 135 117 135 109 146 c 24,108,109
 64 212 64 212 46 273 c 24,110,111
 40 293 40 293 37 383 c 16,112,113
 36 410 36 410 36 432 c 0,114,115
 36 486 36 486 40 509 c 8,116,117
 45 546 45 546 69 606 c 24,118,119
 112 713 112 713 136 743 c 24,120,121
 141 750 141 750 243 839 c 24,122,-1
 333 915 l 24,123,124
 384 959 384 959 384 963 c 24,125,126
 384 966 384 966 329 1009 c 24,127,128
 253 1082 253 1082 240 1101 c 24,129,130
 232 1111 232 1111 188 1202 c 24,131,132
 157 1267 157 1267 154 1276 c 16,133,134
 152 1286 152 1286 152 1297 c 0,135,136
 152 1318 152 1318 158 1347 c 8,137,138
 160 1359 160 1359 184 1413 c 24,139,140
 218 1491 218 1491 225 1502 c 24,141,142
 259 1553 259 1553 296 1580 c 24,143,144
 343 1614 343 1614 392 1625 c 16,145,146
 398 1626 398 1626 407 1626 c 0,147,148
 431 1626 431 1626 473 1617 c 8,149,150
 500 1612 500 1612 533 1596 c 24,151,152
 557 1584 557 1584 607 1551 c 24,153,154
 627 1542 627 1542 647 1532 c 24,155,156
 662 1517 662 1517 675 1481 c 24,157,158
 680 1467 680 1467 688 1422 c 24,159,160
 698 1360 698 1360 700 1329 c 16,161,162
 704 1276 704 1276 704 1247 c 0,163,164
 704 1233 704 1233 703 1225 c 8,165,166
 702 1218 702 1218 673 1147 c 24,167,168
 650 1089 650 1089 640 1069 c 24,169,170
 620 1031 620 1031 607 1013 c 24,171,-1
 566 978 l 24,172,173
 567 974 567 974 616 936 c 24,174,-1
 671 898 l 24,175,176
 711 860 711 860 749 810 c 24,177,178
 794 749 794 749 814 708 c 24,179,180
 828 679 828 679 853 594 c 16,181,182
 871 532 871 532 871 517 c 0,183,184
 871 514 871 514 870 513 c 8,185,186
 884 465 884 465 891 463 c 24,187,188
 917 455 917 455 938 492 c 24,189,190
 949 512 949 512 999 658 c 24,191,192
 1028 741 1028 741 1036 776 c 24,193,194
 1038 785 1038 785 1043 847 c 16,195,196
 1047 891 1047 891 1047 905 c 0,197,198
 1047 911 1047 911 1046 912 c 0,199,200
 1066 948 1066 948 1099 948 c 0,201,202
 1100 948 1100 948 1101 948 c 8,203,204
 1124 948 1124 948 1141 911 c 24,205,206
 1146 900 1146 900 1144 851 c 24,207,208
 1142 808 1142 808 1136 750 c 24,209,210
 1134 735 1134 735 1127 712 c 16,211,212
 1132 705 1132 705 1132 685 c 0,213,214
 1132 670 1132 670 1129 647 c 8,215,216
 1124 605 1124 605 1111 558 c 24,217,218
 1102 527 1102 527 1077 473 c 24,219,220
 1050 413 1050 413 1037 391 c 24,221,222
 1001 338 1001 338 984 332 c 24,223,224
 954 295 954 295 954 290 c 24,225,226
 953 280 953 280 978 254 c 24,60,-1
EndSplineSet
Validated: 1
EndChar

StartChar: quotesingle
Encoding: 39 39 70
Width: 411
VWidth: 1597
Flags: W
LayerCount: 2
Fore
SplineSet
36 1101 m 1,0,1
 40 1109 40 1109 50.5 1129.5 c 128,-1,2
 61 1150 61 1150 73.5 1173.5 c 128,-1,3
 86 1197 86 1197 94.5 1220 c 128,-1,4
 103 1243 103 1243 107 1250 c 1,5,6
 128 1282 128 1282 144 1333 c 128,-1,7
 160 1384 160 1384 185 1432 c 128,-1,8
 210 1480 210 1480 243.5 1514 c 128,-1,9
 277 1548 277 1548 338 1548 c 0,10,11
 377 1548 377 1548 382.5 1528.5 c 128,-1,12
 388 1509 388 1509 388 1477 c 0,13,14
 388 1392 388 1392 366.5 1335 c 128,-1,15
 345 1278 345 1278 307.5 1235.5 c 128,-1,16
 270 1193 270 1193 218.5 1154 c 128,-1,17
 167 1115 167 1115 107 1069 c 1,18,-1
 86 1048 l 1,19,-1
 68 1048 l 1,20,-1
 57 1048 l 1,21,22
 54 1052 54 1052 45 1071.5 c 128,-1,23
 36 1091 36 1091 36 1101 c 1,0,1
EndSplineSet
Validated: 1
EndChar

StartChar: asterisk
Encoding: 42 42 71
Width: 797
VWidth: 1597
Flags: W
LayerCount: 2
Fore
SplineSet
222 1012 m 1,0,1
 208 1012 208 1012 208 1016 c 1,2,3
 179 1002 179 1002 158 993 c 128,-1,4
 137 984 137 984 117.5 978.5 c 128,-1,5
 98 973 98 973 75 971.5 c 128,-1,6
 52 970 52 970 16 970 c 1,7,8
 16 984 16 984 25 1010.5 c 128,-1,9
 34 1037 34 1037 46.5 1063.5 c 128,-1,10
 59 1090 59 1090 73 1113 c 128,-1,11
 87 1136 87 1136 98 1143 c 0,12,13
 105 1147 105 1147 133.5 1152.5 c 128,-1,14
 162 1158 162 1158 169 1161 c 128,-1,15
 176 1164 176 1164 190 1171.5 c 128,-1,16
 204 1179 204 1179 208 1179 c 1,17,-1
 208 1190 l 2,18,19
 208 1211 208 1211 195.5 1228.5 c 128,-1,20
 183 1246 183 1246 168.5 1264 c 128,-1,21
 154 1282 154 1282 142 1299.5 c 128,-1,22
 130 1317 130 1317 130 1338 c 0,23,24
 130 1352 130 1352 144 1375.5 c 128,-1,25
 158 1399 158 1399 176 1422 c 128,-1,26
 194 1445 194 1445 215 1461 c 128,-1,27
 236 1477 236 1477 254 1477 c 2,28,-1
 261 1477 l 1,29,-1
 336 1402 l 1,30,31
 339 1402 339 1402 353.5 1393 c 128,-1,32
 368 1384 368 1384 371 1381 c 0,33,34
 375 1377 375 1377 391 1356 c 128,-1,35
 407 1335 407 1335 410 1331 c 1,36,37
 414 1331 414 1331 415.5 1329.5 c 128,-1,38
 417 1328 417 1328 421 1328 c 0,39,40
 435 1328 435 1328 460 1368.5 c 128,-1,41
 485 1409 485 1409 518.5 1460.5 c 128,-1,42
 552 1512 552 1512 591 1553 c 128,-1,43
 630 1594 630 1594 673 1594 c 1,44,45
 673 1551 673 1551 651.5 1512 c 128,-1,46
 630 1473 630 1473 607 1437.5 c 128,-1,47
 584 1402 584 1402 563 1366.5 c 128,-1,48
 542 1331 542 1331 542 1296 c 1,49,50
 602 1296 602 1296 635.5 1321 c 128,-1,51
 669 1346 669 1346 719 1346 c 0,52,53
 762 1346 762 1346 762 1303 c 0,54,55
 762 1267 762 1267 742.5 1239 c 128,-1,56
 723 1211 723 1211 694.5 1189.5 c 128,-1,57
 666 1168 666 1168 632 1152 c 128,-1,58
 598 1136 598 1136 570 1126 c 1,59,-1
 570 1115 l 2,60,61
 570 1107 570 1107 584 1093.5 c 128,-1,62
 598 1080 598 1080 616 1058.5 c 128,-1,63
 634 1037 634 1037 648 1015.5 c 128,-1,64
 662 994 662 994 666 980 c 1,65,66
 669 965 669 965 653 939 c 128,-1,67
 637 913 637 913 614 888 c 128,-1,68
 591 863 591 863 566.5 845.5 c 128,-1,69
 542 828 542 828 527 828 c 0,70,71
 499 828 499 828 470.5 874 c 128,-1,72
 442 920 442 920 424 941 c 1,73,74
 417 948 417 948 408.5 960.5 c 128,-1,75
 400 973 400 973 392 987 c 1,76,-1
 371 1016 l 1,77,-1
 353 1016 l 1,78,79
 346 998 346 998 326.5 950 c 128,-1,80
 307 902 307 902 300 888 c 0,81,82
 297 881 297 881 288 865 c 128,-1,83
 279 849 279 849 275 849 c 1,84,85
 275 842 275 842 252 822.5 c 128,-1,86
 229 803 229 803 226 796 c 1,87,88
 208 775 208 775 204.5 755.5 c 128,-1,89
 201 736 201 736 169 721 c 0,90,91
 162 718 162 718 137 714.5 c 128,-1,92
 112 711 112 711 105 711 c 1,93,94
 105 750 105 750 122.5 787 c 128,-1,95
 140 824 140 824 163 859.5 c 128,-1,96
 186 895 186 895 204 932 c 128,-1,97
 222 969 222 969 222 1012 c 1,0,1
EndSplineSet
Validated: 1
EndChar

StartChar: comma
Encoding: 44 44 72
Width: 405
VWidth: 1597
Flags: W
LayerCount: 2
Fore
SplineSet
94 274 m 0,0,1
 140 328 140 328 225 328 c 0,2,3
 246 328 246 328 269 325 c 0,4,5
 330 316 330 316 354.5 275 c 128,-1,6
 379 234 379 234 379 128 c 0,7,8
 379 90 379 90 353 51 c 0,9,10
 351 48 351 48 327 -16 c 0,11,12
 315 -48 315 -48 263 -95 c 0,13,-1
 182 -162 l 0,14,-1
 121 -204 l 0,15,-1
 34 -238 l 0,16,17
 82 -126 82 -126 84 -121 c 0,18,19
 119 -64 119 -64 126 -58 c 0,20,21
 175 -22 175 -22 175 -2 c 0,22,23
 175 10 175 10 159 17 c 0,24,25
 93 43 93 43 80 64 c 0,26,27
 49 111 49 111 49 170 c 0,28,29
 49 222 49 222 94 274 c 0,0,1
EndSplineSet
Validated: 1
EndChar

StartChar: hyphenminus
Encoding: 45 45 73
Width: 919
VWidth: 1597
Flags: W
LayerCount: 2
Fore
SplineSet
11 714 m 0,0,1
 11 734 11 734 40 776.5 c 128,-1,2
 69 819 69 819 93 846 c 1,3,4
 93 854 93 854 117 880.5 c 128,-1,5
 141 907 141 907 150 915 c 1,6,-1
 168 935 l 1,7,-1
 885 939 l 1,8,9
 885 865 885 865 833.5 803.5 c 128,-1,10
 782 742 782 742 727 691 c 1,11,12
 719 686 719 686 704 681 c 0,13,14
 686 675 686 675 668 675 c 2,15,-1
 62 672 l 2,16,17
 61 672 l 0,18,19
 11 672 11 672 11 714 c 0,0,1
EndSplineSet
Validated: 1
EndChar

StartChar: colon
Encoding: 58 58 74
Width: 524
VWidth: 1597
Flags: W
LayerCount: 2
Fore
SplineSet
24 156 m 0,0,1
 24 255 24 255 94.5 300.5 c 128,-1,2
 165 346 165 346 246 346 c 0,3,4
 329 346 329 346 351 306 c 128,-1,5
 373 266 373 266 373 176 c 0,6,7
 373 141 373 141 343.5 106.5 c 128,-1,8
 314 72 314 72 270.5 45 c 128,-1,9
 227 18 227 18 181.5 0.5 c 128,-1,10
 136 -17 136 -17 102 -17 c 0,11,12
 83 -17 83 -17 68 5.5 c 128,-1,13
 53 28 53 28 43.5 55 c 128,-1,14
 34 82 34 82 29 111.5 c 128,-1,15
 24 141 24 141 24 156 c 0,0,1
92 918 m 0,16,17
 92 1017 92 1017 162.5 1062 c 128,-1,18
 233 1107 233 1107 314 1107 c 0,19,20
 397 1107 397 1107 419 1067 c 128,-1,21
 441 1027 441 1027 441 937 c 0,22,23
 441 903 441 903 411.5 868.5 c 128,-1,24
 382 834 382 834 338.5 806.5 c 128,-1,25
 295 779 295 779 249.5 761.5 c 128,-1,26
 204 744 204 744 170 744 c 0,27,28
 151 744 151 744 136 766.5 c 128,-1,29
 121 789 121 789 111.5 816 c 128,-1,30
 102 843 102 843 97 873.5 c 128,-1,31
 92 904 92 904 92 918 c 0,16,17
EndSplineSet
Validated: 1
EndChar

StartChar: equal
Encoding: 61 61 75
Width: 869
VWidth: 1597
Flags: W
LayerCount: 2
Fore
SplineSet
125 742 m 0,0,1
 125 767 125 767 166 813 c 128,-1,2
 207 859 207 859 232 888 c 1,3,4
 232 899 232 899 253 920 c 2,5,-1
 274 941 l 1,6,-1
 862 941 l 1,7,8
 862 859 862 859 817.5 813 c 128,-1,9
 773 767 773 767 713 714 c 1,10,11
 706 710 706 710 688 703 c 128,-1,12
 670 696 670 696 667 696 c 2,13,-1
 182 696 l 2,14,15
 125 696 125 696 125 742 c 0,0,1
47 387 m 0,16,17
 47 412 47 412 88 458 c 128,-1,18
 129 504 129 504 154 533 c 1,19,20
 154 544 154 544 175 565 c 2,21,-1
 196 586 l 1,22,-1
 784 586 l 1,23,24
 784 504 784 504 739.5 458 c 128,-1,25
 695 412 695 412 635 359 c 1,26,27
 628 355 628 355 610 348 c 128,-1,28
 592 341 592 341 589 341 c 2,29,-1
 104 341 l 2,30,31
 47 341 47 341 47 387 c 0,16,17
EndSplineSet
Validated: 1
EndChar

StartChar: plus
Encoding: 43 43 76
Width: 754
VWidth: 1597
Flags: W
LayerCount: 2
Fore
SplineSet
269 1087 m 1,0,1
 271 1098 271 1098 274 1128.5 c 128,-1,2
 277 1159 277 1159 278.5 1170.5 c 128,-1,3
 280 1182 280 1182 284.5 1208 c 128,-1,4
 289 1234 289 1234 292.5 1248 c 128,-1,5
 296 1262 296 1262 303 1284.5 c 128,-1,6
 310 1307 310 1307 317.5 1322 c 128,-1,7
 325 1337 325 1337 336.5 1355.5 c 128,-1,8
 348 1374 348 1374 362 1390 c 0,9,10
 371 1401 371 1401 374.5 1405 c 128,-1,11
 378 1409 378 1409 390 1420 c 128,-1,12
 402 1431 402 1431 409.5 1435.5 c 128,-1,13
 417 1440 417 1440 428 1444 c 0,14,15
 436 1447 436 1447 444 1448 c 0,16,17
 447 1448 447 1448 449 1448 c 0,18,19
 459 1446 459 1446 467 1438 c 0,20,21
 476 1431 476 1431 478.5 1417.5 c 128,-1,22
 481 1404 481 1404 480.5 1396 c 128,-1,23
 480 1388 480 1388 477 1368 c 128,-1,24
 474 1348 474 1348 474 1346 c 0,25,26
 470 1309 470 1309 470 1268.5 c 128,-1,27
 470 1228 470 1228 472 1178 c 128,-1,28
 474 1128 474 1128 474 1100 c 1,29,30
 488 1100 488 1100 548 1104 c 0,31,32
 587 1107 587 1107 618 1107 c 0,33,34
 636 1106 636 1106 652 1106 c 0,35,36
 696 1104 696 1104 718 1087 c 0,37,38
 727 1081 727 1081 731.5 1071.5 c 128,-1,39
 736 1062 736 1062 738 1054 c 0,40,41
 739 1050 739 1050 738.5 1045 c 128,-1,42
 738 1040 738 1040 738 1034 c 0,43,44
 736 1020 736 1020 734.5 1014 c 128,-1,45
 733 1008 733 1008 729 993 c 128,-1,46
 725 978 725 978 725 975 c 0,47,48
 719 949 719 949 709.5 929 c 128,-1,49
 700 909 700 909 688.5 896 c 128,-1,50
 677 883 677 883 662 873.5 c 128,-1,51
 647 864 647 864 631 860 c 128,-1,52
 615 856 615 856 596.5 854 c 128,-1,53
 578 852 578 852 557.5 852 c 128,-1,54
 537 852 537 852 516 852 c 0,55,56
 496 852 496 852 485 852 c 1,57,58
 485 829 485 829 488 780.5 c 128,-1,59
 491 732 491 732 492 695 c 0,60,61
 492 684 492 684 492 673 c 0,62,63
 492 644 492 644 490 614 c 0,64,65
 488 570 488 570 475 535.5 c 128,-1,66
 462 501 462 501 438 477 c 0,67,68
 429 467 429 467 418.5 458 c 128,-1,69
 408 449 408 449 393 439 c 128,-1,70
 378 429 378 429 363.5 423 c 128,-1,71
 349 417 349 417 334.5 417 c 128,-1,72
 320 417 320 417 308 426 c 1,73,74
 297 435 297 435 292.5 451.5 c 128,-1,75
 288 468 288 468 286.5 496 c 128,-1,76
 285 524 285 524 285 527 c 0,77,78
 280 572 280 572 278 622 c 0,79,80
 277 643 277 643 277 669 c 0,81,82
 277 703 277 703 278 743 c 0,83,84
 280 814 280 814 280 841 c 1,85,86
 276 841 276 841 270 841 c 0,87,88
 250 841 250 841 208 839 c 0,89,90
 184 838 184 838 163 838 c 0,91,92
 134 838 134 838 110 840 c 0,93,94
 68 844 68 844 46 861 c 1,95,96
 23 880 23 880 19 926 c 0,97,98
 18 936 18 936 18 946 c 0,99,100
 18 980 18 980 30 1016 c 0,101,102
 44 1060 44 1060 69 1076 c 1,103,104
 90 1091 90 1091 124 1094 c 0,105,106
 137 1095 137 1095 152 1095 c 0,107,108
 177 1095 177 1095 208 1092 c 0,109,110
 258 1087 258 1087 269 1087 c 1,0,1
EndSplineSet
Validated: 1
EndChar

StartChar: period
Encoding: 46 46 77
Width: 458
VWidth: 1597
Flags: W
LayerCount: 2
Fore
SplineSet
219 329 m 8,0,1
 247 326 247 326 273 313 c 24,2,3
 301 299 301 299 316 280 c 24,4,5
 318 278 318 278 338 235 c 24,6,7
 345 221 345 221 352 209 c 24,8,9
 359 184 359 184 358 160 c 24,10,11
 357 124 357 124 351 119 c 24,12,-1
 346 85 l 24,13,14
 340 69 340 69 325 49 c 24,15,16
 304 25 304 25 297 25 c 24,17,-1
 269 -1 l 24,18,19
 263 -4 263 -4 222 -10 c 16,20,21
 178 -16 178 -16 166 -16 c 0,22,23
 164 -16 l 8,24,25
 155 -15 155 -15 122 -1 c 24,26,27
 81 16 81 16 74 22 c 24,28,29
 71 25 71 25 54 64 c 24,30,31
 35 105 35 105 34 110 c 16,32,33
 34 112 34 112 34 114 c 0,34,35
 34 124 34 124 39 144 c 8,36,37
 46 170 46 170 52 184 c 24,38,39
 64 211 64 211 81 234 c 24,40,41
 87 243 87 243 112 269 c 24,42,43
 136 294 136 294 145 302 c 24,44,45
 166 318 166 318 179 323 c 16,46,47
 196 329 196 329 212 329 c 0,48,49
 215 329 215 329 219 329 c 8,0,1
EndSplineSet
Validated: 1
EndChar

StartChar: dollar
Encoding: 36 36 78
Width: 898
VWidth: 1597
Flags: W
LayerCount: 2
Fore
SplineSet
594 522 m 24,0,1
 572 517 572 517 544 456 c 24,2,3
 538 443 538 443 518 353 c 24,4,5
 506 303 506 303 500 264 c 16,6,7
 490 204 490 204 490 189 c 0,8,9
 490 185 490 185 491 184 c 0,10,11
 501 167 501 167 537 167 c 0,12,13
 547 167 547 167 558 168 c 8,14,15
 604 173 604 173 633 202 c 24,16,17
 652 219 652 219 674 278 c 16,18,19
 691 323 691 323 691 350 c 0,20,21
 691 354 691 354 691 357 c 8,22,23
 690 374 690 374 665 424 c 24,24,25
 657 440 657 440 629 477 c 24,26,27
 596 523 596 523 594 522 c 24,0,1
248 303 m 8,28,29
 276 274 276 274 292 266 c 24,30,31
 325 250 325 250 335 261 c 24,32,33
 337 263 337 263 346 317 c 24,34,35
 352 352 352 352 354 362 c 24,36,37
 363 397 363 397 366 398 c 24,38,39
 369 410 369 410 376 448 c 24,40,41
 385 492 385 492 385 497 c 0,42,43
 383 558 383 558 389 544 c 24,44,45
 385 555 385 555 354 587 c 24,46,47
 337 604 337 604 316 617 c 24,48,-1
 261 645 l 1,49,50
 228 652 228 652 207 677 c 0,51,52
 187 700 187 700 162 724 c 0,53,54
 134 751 134 751 115 765 c 0,55,56
 97 778 97 778 87 842 c 0,57,58
 78 898 78 898 70 909 c 0,59,60
 49 940 49 940 47 953 c 0,61,62
 41 993 41 993 41 1012.5 c 128,-1,63
 41 1032 41 1032 55 1062 c 0,64,-1
 63 1110 l 0,65,-1
 94 1152 l 1,66,-1
 114 1200 l 0,67,-1
 147 1254 l 0,68,69
 151 1254 151 1254 207 1311 c 0,70,71
 229 1334 229 1334 314 1345 c 0,72,73
 380 1354 380 1354 381 1356 c 0,74,75
 402 1376 402 1376 413 1442 c 128,-1,76
 424 1508 424 1508 428 1527 c 0,77,78
 437 1568 437 1568 480 1615 c 0,79,80
 483 1618 483 1618 488 1618 c 0,81,82
 501 1618 501 1618 531 1602 c 0,83,84
 603 1564 603 1564 603 1560 c 0,85,86
 602 1558 602 1558 602 1553 c 0,87,88
 602 1537 602 1537 613 1488 c 0,89,90
 623 1444 623 1444 619 1434 c 0,91,92
 617 1429 617 1429 603 1360 c 0,93,94
 602 1355 602 1355 602 1350 c 0,95,96
 602 1322 602 1322 625 1299 c 0,97,98
 629 1295 629 1295 699 1246 c 0,99,100
 734 1221 734 1221 774 1198 c 1,101,-1
 817 1150 l 0,102,103
 845 1149 845 1149 845 1111 c 0,104,105
 845 1093 845 1093 839 1068 c 0,106,107
 835 1052 835 1052 803 1038 c 0,108,109
 793 1034 793 1034 773 1034 c 0,110,111
 748 1034 748 1034 709 1041 c 0,112,113
 672 1048 672 1048 636 1068 c 0,114,115
 563 1107 563 1107 562 1107 c 0,116,117
 553 1107 553 1107 548 1038 c 0,118,-1
 541 987 l 0,119,-1
 535 918 l 0,120,121
 527 887 527 887 519 855 c 16,122,123
 514 802 514 802 514 769 c 0,124,125
 514 740 514 740 518 727 c 8,126,127
 518 726 518 726 561 716 c 24,128,129
 588 700 588 700 602 695 c 16,130,131
 629 686 629 686 658 677 c 1,132,133
 692 643 692 643 720 633 c 0,134,135
 756 622 756 622 767 604 c 0,136,137
 801 550 801 550 805 544 c 0,138,139
 814 525 814 525 836 482 c 0,140,141
 852 452 852 452 856 428 c 0,142,143
 865 367 865 367 865 362 c 0,144,145
 860 304 860 304 860 291 c 0,146,147
 862 264 862 264 862 243 c 0,148,149
 862 185 862 185 848 165 c 0,150,151
 818 124 818 124 803 90 c 0,152,153
 794 72 794 72 727 15 c 1,154,155
 647 -21 647 -21 647 -20 c 0,156,157
 627 -33 627 -33 587 -40 c 0,158,159
 578 -42 578 -42 560 -49 c 0,160,161
 557 -51 557 -51 507 -46 c 0,162,163
 502 -45 502 -45 488 -33 c 0,164,-1
 441 -18 l 1,165,-1
 431 -51 l 2,166,-1
 423 -73 l 2,167,-1
 417 -115 l 0,168,-1
 396 -162 l 1,169,170
 365 -166 365 -166 333 -169 c 0,171,-1
 250 -112 l 0,172,173
 259 -75 259 -75 269 -37 c 0,174,-1
 296 79 l 0,175,-1
 202 125 l 0,176,-1
 98 190 l 0,177,-1
 28 238 l 1,178,179
 33 275 33 275 39 312 c 0,180,-1
 98 360 l 0,181,-1
 162 344 l 0,182,-1
 248 303 l 8,28,29
363 838 m 8,183,184
 364 839 364 839 398 989 c 24,185,186
 434 1143 434 1143 434 1144 c 24,187,188
 427 1185 427 1185 363 1189 c 16,189,190
 362 1189 362 1189 360 1189 c 0,191,192
 336 1189 336 1189 300 1153 c 8,193,194
 268 1121 268 1121 251 1078 c 16,195,196
 228 1021 228 1021 228 984 c 0,197,198
 228 977 228 977 229 971 c 8,199,200
 234 921 234 921 274 882 c 16,201,202
 324 833 324 833 349 833 c 0,203,204
 357 833 357 833 363 838 c 8,183,184
EndSplineSet
Validated: 33
EndChar

StartChar: percent
Encoding: 37 37 79
Width: 1250
VWidth: 1597
Flags: W
LayerCount: 2
Fore
SplineSet
979 530 m 16,0,1
 968 530 968 530 958 530 c 0,2,3
 896 530 896 530 858 515 c 8,4,5
 800 491 800 491 760 437 c 24,6,7
 748 421 748 421 737 355 c 16,8,9
 728 302 728 302 728 277 c 0,10,11
 728 267 728 267 729 261 c 8,12,13
 738 228 738 228 776 203 c 24,14,15
 803 185 803 185 850 179 c 24,16,17
 873 176 873 176 909 187 c 24,18,19
 944 196 944 196 967 214 c 24,20,21
 994 233 994 233 1018 265 c 24,22,23
 1040 294 1040 294 1053 328 c 24,24,25
 1062 349 1062 349 1069 394 c 24,26,27
 1074 434 1074 434 1072 448 c 24,28,29
 1064 492 1064 492 1049 507 c 24,30,31
 1024 528 1024 528 979 530 c 16,0,1
1115 651 m 24,32,33
 1165 613 1165 613 1197 534 c 24,34,35
 1199 529 1199 529 1201 437 c 16,36,37
 1202 405 1202 405 1202 381.5 c 128,-1,38
 1202 358 1202 358 1201 343 c 8,39,40
 1198 270 1198 270 1193 254 c 24,41,42
 1180 210 1180 210 1150 176 c 24,43,44
 1130 153 1130 153 1072 117 c 24,45,46
 958 47 958 47 928 39 c 16,47,48
 920 37 920 37 907 37 c 0,49,50
 876 37 876 37 819 51 c 8,51,52
 737 71 737 71 698 94 c 24,53,54
 663 115 663 115 632 164 c 24,55,56
 595 223 595 223 589 265 c 16,57,58
 586 292 586 292 586 317 c 0,59,60
 586 373 586 373 601 421 c 8,61,62
 627 503 627 503 686 577 c 24,63,64
 722 621 722 621 788 651 c 24,65,-1
 889 671 l 24,66,-1
 991 690 l 24,67,68
 1073 683 1073 683 1115 651 c 24,32,33
460 1544 m 24,69,70
 477 1537 477 1537 523 1506 c 24,71,72
 566 1476 566 1476 573 1466 c 24,73,74
 592 1439 592 1439 604 1400 c 24,75,76
 618 1349 618 1349 608 1338 c 24,77,-1
 624 1283 l 16,78,79
 632 1237 632 1237 632 1217 c 0,80,81
 632 1211 632 1211 612 1154 c 24,82,83
 594 1103 594 1103 593 1100 c 24,84,85
 578 1073 578 1073 562 1061 c 24,86,87
 546 1050 546 1050 491 1026 c 24,88,89
 426 996 426 996 410 994 c 144,-1,90
 394 992 394 992 377 992 c 0,91,92
 347 992 347 992 312 998 c 8,93,94
 234 1014 234 1014 199 1034 c 24,95,96
 185 1042 185 1042 140 1100 c 24,97,98
 98 1155 98 1155 82 1186 c 24,99,100
 60 1227 60 1227 55 1264 c 16,101,102
 53 1276 53 1276 53 1289 c 0,103,104
 53 1310 53 1310 58 1334 c 8,105,106
 68 1378 68 1378 90 1424 c 24,107,108
 118 1483 118 1483 140 1506 c 24,109,110
 143 1509 143 1509 207 1544 c 24,111,112
 268 1578 268 1578 273 1580 c 16,113,114
 288 1584 288 1584 305.5 1584 c 128,-1,115
 323 1584 323 1584 343 1580 c 8,116,117
 401 1568 401 1568 460 1544 c 24,69,70
460 1396 m 24,118,119
 423 1424 423 1424 390 1435 c 16,120,121
 359 1445 359 1445 335 1445 c 0,122,123
 325 1445 325 1445 316 1443 c 8,124,125
 275 1434 275 1434 246 1404 c 16,126,127
 191 1356 191 1356 191 1339 c 0,128,129
 191 1330 191 1330 207 1330 c 8,130,131
 210 1330 210 1330 211 1252 c 0,132,133
 211 1231 211 1231 261 1174 c 24,134,135
 296 1134 296 1134 328 1119 c 16,136,137
 362 1103 362 1103 393 1103 c 0,138,139
 402 1103 402 1103 410 1104 c 8,140,141
 415 1105 415 1105 456 1139 c 24,142,143
 492 1169 492 1169 495 1174 c 24,144,145
 500 1183 500 1183 511 1240 c 24,146,147
 517 1274 517 1274 516 1287 c 24,148,149
 515 1301 515 1301 507 1326 c 24,150,151
 501 1343 501 1343 491 1357 c 24,152,153
 471 1387 471 1387 460 1396 c 24,118,119
995 1250 m 16,154,155
 939 1181 939 1181 942 1168 c 1,156,157
 923 1130 923 1130 798 903 c 0,158,159
 700 724 700 724 572 566 c 0,160,161
 395 345 395 345 225 44 c 1,162,163
 195 3 195 3 169.5 -18.5 c 128,-1,164
 144 -40 144 -40 128 -44 c 0,165,166
 122 -46 122 -46 116 -46 c 0,167,168
 108 -46 108 -46 98 -42 c 0,169,170
 84 -35 84 -35 75.5 -24 c 128,-1,171
 67 -13 67 -13 55.5 2.5 c 128,-1,172
 44 18 44 18 37 24 c 1,173,-1
 861 1413 l 1,174,175
 949 1591 949 1591 1028 1622 c 0,176,177
 1047 1629 1047 1629 1063 1629 c 0,178,179
 1094 1629 1094 1629 1117 1604 c 0,180,181
 1151 1568 1151 1568 1151 1525 c 0,182,183
 1151 1515 1151 1515 1133 1479 c 8,184,185
 1123 1459 1123 1459 1081 1390 c 24,186,187
 1029 1304 1029 1304 995 1250 c 16,154,155
EndSplineSet
Validated: 33
EndChar

StartChar: numbersign
Encoding: 35 35 80
Width: 1513
VWidth: 0
Flags: W
LayerCount: 2
Fore
SplineSet
870 535 m 24,0,1
 871 550 871 550 870 578 c 24,2,-1
 867 615 l 24,3,4
 873 621 873 621 867 660 c 24,5,6
 858 680 858 680 855 699 c 24,7,8
 850 731 850 731 852 752 c 0,9,10
 852 758 852 758 772 760 c 0,11,12
 744 762 744 762 718 762 c 0,13,14
 703 762 703 762 689 761 c 8,15,16
 678 761 678 761 624 755 c 24,17,18
 553 748 553 748 551 746 c 24,19,20
 548 710 l 24,21,22
 547 689 547 689 546 663 c 24,23,24
 544 614 544 614 543 603 c 24,25,26
 542 571 542 571 543 542 c 24,27,28
 544 496 544 496 546 494 c 24,29,30
 552 487 552 487 591 485 c 24,31,-1
 656 488 l 24,32,33
 664 488 664 488 714 485 c 24,34,-1
 760 482 l 24,35,36
 856 484 856 484 864 488 c 24,37,38
 867 489 867 489 870 535 c 24,0,1
1082 541 m 24,39,40
 1086 500 1086 500 1091 459 c 24,41,42
 1092 457 1092 457 1132 463 c 24,43,-1
 1179 471 l 24,44,45
 1225 474 1225 474 1230 469 c 24,46,-1
 1280 480 l 24,47,48
 1357 494 1357 494 1372 495 c 24,49,50
 1415 497 1415 497 1420 488 c 24,51,-1
 1471 490 l 24,52,53
 1480 486 1480 486 1485 462 c 24,54,55
 1486 459 1486 459 1486 418 c 16,56,57
 1486 400 1486 400 1486 390.5 c 128,-1,58
 1486 381 1486 381 1486 380 c 8,59,60
 1479 348 1479 348 1468 335 c 24,61,62
 1451 316 1451 316 1421 306 c 24,63,64
 1400 299 1400 299 1364 300 c 24,65,66
 1314 301 1314 301 1308 309 c 24,67,-1
 1233 295 l 16,68,69
 1191 289 1191 289 1172 289 c 0,70,71
 1168 289 1168 289 1166 289 c 8,72,73
 1127 292 1127 292 1121 303 c 24,74,75
 1107 301 1107 301 1098 279 c 24,76,77
 1104 275 1104 275 1103 258 c 24,78,79
 1102 237 1102 237 1103 215 c 24,80,81
 1103 202 1103 202 1106 173 c 24,82,-1
 1112 113 l 24,83,84
 1113 86 1113 86 1112 63 c 24,85,86
 1110 25 1110 25 1106 19 c 24,87,88
 1096 0 1096 0 1074 -5 c 24,89,90
 1039 -13 1039 -13 1029 1 c 24,91,-1
 987 -8 l 24,92,93
 973 -8 973 -8 937 4 c 24,94,95
 902 14 902 14 899 19 c 24,96,97
 894 27 894 27 890 69 c 24,98,99
 886 121 886 121 890 125 c 24,100,101
 888 167 888 167 881 215 c 24,102,103
 878 237 878 237 872 258 c 24,104,105
 863 293 863 293 860 295 c 24,106,-1
 786 292 l 16,107,108
 742 291 742 291 720 291 c 128,-1,109
 698 291 698 291 698 292 c 8,110,-1
 632 279 l 24,111,112
 601 276 601 276 597 282 c 24,113,114
 562 270 562 270 547 250 c 24,115,116
 545 247 545 247 547 215 c 24,117,-1
 552 152 l 24,118,119
 555 111 555 111 555 105 c 24,120,121
 555 103 555 103 547 19 c 24,122,123
 543 -17 l 16,124,125
 524 -24 524 -24 509 -24 c 0,126,127
 487 -24 487 -24 475 -8 c 8,128,129
 474 -8 474 -8 422 -5 c 24,130,-1
 368 -2 l 24,131,132
 339 6 339 6 333 19 c 24,133,134
 318 51 318 51 336 67 c 24,135,136
 338 115 338 115 338 134 c 24,137,138
 338 163 338 163 338 184 c 24,139,140
 335 206 335 206 339 237 c 24,141,142
 337 283 337 283 333 288 c 24,143,144
 328 295 328 295 292 300 c 24,145,-1
 244 300 l 24,146,147
 198 303 198 303 196 306 c 24,148,-1
 117 303 l 24,149,150
 92 305 92 305 64 314 c 24,151,152
 35 324 35 324 31 332 c 24,153,154
 31 390 l 24,155,156
 31 425 31 425 31 430 c 24,157,158
 33 485 33 485 34 487 c 24,159,160
 40 495 40 495 84 502 c 24,161,162
 94 504 94 504 148 504 c 24,163,164
 204 504 204 504 206 504 c 24,165,166
 235 504 235 504 264 504 c 24,167,-1
 312 504 l 24,168,169
 342 513 342 513 351 531 c 24,170,171
 357 542 357 542 359 594 c 24,172,-1
 357 644 l 24,173,174
 355 705 355 705 357 706 c 24,175,-1
 357 733 l 24,176,177
 306 734 l 24,178,-1
 250 734 l 0,179,180
 205 735 205 735 205 737 c 24,181,182
 152 748 l 24,183,-1
 107 745 l 24,184,185
 59 742 59 742 57 742 c 24,186,187
 19 743 19 743 15 747 c 0,188,189
 14 748 14 748 14 754 c 0,190,191
 14 770 14 770 21 819 c 8,192,193
 22 860 22 860 24 885 c 0,194,195
 27 918 27 918 30 939 c 24,196,197
 30 940 30 940 81 938 c 16,198,199
 132 937 132 937 146 937 c 0,200,-1
 148 937 l 8,201,202
 196 938 196 938 201 939 c 0,203,204
 210 941 210 941 258 936 c 0,205,206
 271 935 271 935 312 941 c 24,207,208
 346 946 346 946 348 949 c 24,209,210
 354 959 354 959 357 1012 c 24,211,212
 357 1016 357 1016 354 1068 c 24,213,-1
 348 1160 l 24,214,215
 347 1197 347 1197 348 1210 c 24,216,-1
 359 1258 l 24,217,-1
 359 1305 l 24,218,219
 367 1312 367 1312 418 1308 c 24,220,221
 508 1301 508 1301 510 1294 c 0,222,223
 518 1246 518 1246 518 1194 c 24,224,225
 518 1193 518 1193 528 1132 c 24,226,227
 536 1077 536 1077 537 1075 c 24,228,229
 537 1034 537 1034 537 1028 c 24,230,231
 539 993 539 993 542 977 c 0,232,233
 547 959 547 959 552 942 c 24,234,235
 559 922 559 922 593 951 c 24,236,237
 607 949 607 949 621 946 c 24,238,239
 649 944 649 944 667 946 c 24,240,-1
 730 956 l 0,241,242
 779 963 779 963 783 964 c 24,243,244
 803 973 803 973 804 988 c 0,245,246
 804 994 804 994 795 1094 c 8,247,-1
 789 1166 l 16,248,249
 788 1200 788 1200 787.5 1218 c 128,-1,250
 787 1236 787 1236 789 1237 c 8,251,-1
 780 1287 l 24,252,253
 777 1317 777 1317 780 1320 c 24,254,255
 782 1321 782 1321 822 1323 c 0,256,-1
 857 1329 l 24,257,258
 892 1334 892 1334 910.5 1335 c 144,-1,259
 929 1336 929 1336 940 1336 c 128,-1,260
 951 1336 951 1336 955 1335 c 8,261,262
 976 1329 976 1329 987 1314 c 24,263,264
 1004 1291 1004 1291 1011 1261 c 24,265,266
 1016 1236 1016 1236 1005 1228 c 24,267,-1
 1005 1181 l 24,268,-1
 1005 1142 l 24,269,270
 1006 1093 1006 1093 1008 1071 c 24,271,-1
 1015 1009 l 24,272,273
 1017 970 1017 970 1015 967 c 24,274,275
 1029 937 1029 937 1050 932 c 24,276,-1
 1109 943 l 24,277,278
 1147 950 1147 950 1166 952 c 24,279,280
 1191 955 1191 955 1228 956 c 24,281,282
 1264 957 1264 957 1281 956 c 24,283,284
 1320 953 1320 953 1323 949 c 24,285,-1
 1373 959 l 24,286,287
 1405 962 1405 962 1418 959 c 24,288,289
 1432 956 1432 956 1436 943 c 24,290,291
 1447 912 1447 912 1450 869 c 16,292,293
 1453 832 1453 832 1453 806 c 0,294,295
 1453 774 1453 774 1449 758 c 8,296,297
 1447 750 1447 750 1422 753 c 24,298,299
 1364 759 1364 759 1363 758 c 0,300,301
 1350 755 1350 755 1337 756 c 0,302,303
 1314 756 1314 756 1292 764 c 8,304,-1
 1232 750 l 24,305,306
 1199 745 1199 745 1194 750 c 24,307,-1
 1131 737 l 24,308,309
 1087 731 1087 731 1084 735 c 24,310,311
 1074 727 1074 727 1071 686 c 16,312,313
 1071 683 1071 683 1071 678 c 0,314,315
 1071 660 1071 660 1074 618 c 8,316,317
 1077 572 1077 572 1082 541 c 24,39,40
EndSplineSet
Validated: 1
EndChar

StartChar: semicolon
Encoding: 59 59 81
Width: 524
VWidth: 1597
Flags: W
LayerCount: 2
Fore
SplineSet
92 918 m 0,0,1
 92 1017 92 1017 162.5 1062 c 128,-1,2
 233 1107 233 1107 314 1107 c 0,3,4
 397 1107 397 1107 419 1067 c 128,-1,5
 441 1027 441 1027 441 937 c 0,6,7
 441 903 441 903 411.5 868.5 c 128,-1,8
 382 834 382 834 338.5 806.5 c 128,-1,9
 295 779 295 779 249.5 761.5 c 128,-1,10
 204 744 204 744 170 744 c 0,11,12
 151 744 151 744 136 766.5 c 128,-1,13
 121 789 121 789 111.5 816 c 128,-1,14
 102 843 102 843 97 873.5 c 128,-1,15
 92 904 92 904 92 918 c 0,0,1
94 274 m 0,16,17
 140 328 140 328 225 328 c 0,18,19
 246 328 246 328 269 325 c 0,20,21
 330 316 330 316 354.5 275 c 128,-1,22
 379 234 379 234 379 128 c 0,23,24
 379 90 379 90 353 51 c 0,25,26
 351 48 351 48 327 -16 c 0,27,28
 315 -48 315 -48 263 -95 c 0,29,-1
 182 -162 l 0,30,-1
 121 -204 l 0,31,-1
 34 -238 l 0,32,33
 82 -126 82 -126 84 -121 c 0,34,35
 119 -64 119 -64 126 -58 c 0,36,37
 175 -22 175 -22 175 -2 c 0,38,39
 175 10 175 10 159 17 c 0,40,41
 93 43 93 43 80 64 c 0,42,43
 49 111 49 111 49 170 c 0,44,45
 49 222 49 222 94 274 c 0,16,17
EndSplineSet
Validated: 1
EndChar

